<?xml version="1.0" encoding="utf-8" standalone="no"?>
<!DOCTYPE svg PUBLIC "-//W3C//DTD SVG 1.1//EN"
  "http://www.w3.org/Graphics/SVG/1.1/DTD/svg11.dtd">
<!-- Created with matplotlib (https://matplotlib.org/) -->
<svg height="345.6pt" version="1.1" viewBox="0 0 460.8 345.6" width="460.8pt" xmlns="http://www.w3.org/2000/svg" xmlns:xlink="http://www.w3.org/1999/xlink">
 <defs>
  <style type="text/css">
*{stroke-linecap:butt;stroke-linejoin:round;}
  </style>
 </defs>
 <g id="figure_1">
  <g id="patch_1">
   <path d="M 0 345.6 
L 460.8 345.6 
L 460.8 0 
L 0 0 
z
" style="fill:#ffffff;"/>
  </g>
  <g id="axes_1">
   <g id="patch_2">
    <path d="M 57.6 307.584 
L 414.72 307.584 
L 414.72 41.472 
L 57.6 41.472 
z
" style="fill:#ffffff;"/>
   </g>
   <g id="matplotlib.axis_1">
    <g id="xtick_1">
     <g id="line2d_1">
      <defs>
       <path d="M 0 0 
L 0 3.5 
" id="m5ad626ca1c" style="stroke:#000000;stroke-width:0.8;"/>
      </defs>
      <g>
       <use style="stroke:#000000;stroke-width:0.8;" x="73.994973" xlink:href="#m5ad626ca1c" y="307.584"/>
      </g>
     </g>
     <g id="text_1">
      <!-- 0 -->
      <defs>
       <path d="M 31.78125 66.40625 
Q 24.171875 66.40625 20.328125 58.90625 
Q 16.5 51.421875 16.5 36.375 
Q 16.5 21.390625 20.328125 13.890625 
Q 24.171875 6.390625 31.78125 6.390625 
Q 39.453125 6.390625 43.28125 13.890625 
Q 47.125 21.390625 47.125 36.375 
Q 47.125 51.421875 43.28125 58.90625 
Q 39.453125 66.40625 31.78125 66.40625 
z
M 31.78125 74.21875 
Q 44.046875 74.21875 50.515625 64.515625 
Q 56.984375 54.828125 56.984375 36.375 
Q 56.984375 17.96875 50.515625 8.265625 
Q 44.046875 -1.421875 31.78125 -1.421875 
Q 19.53125 -1.421875 13.0625 8.265625 
Q 6.59375 17.96875 6.59375 36.375 
Q 6.59375 54.828125 13.0625 64.515625 
Q 19.53125 74.21875 31.78125 74.21875 
z
" id="DejaVuSans-48"/>
      </defs>
      <g transform="translate(70.813723 322.182437)scale(0.1 -0.1)">
       <use xlink:href="#DejaVuSans-48"/>
      </g>
     </g>
    </g>
    <g id="xtick_2">
     <g id="line2d_2">
      <g>
       <use style="stroke:#000000;stroke-width:0.8;" x="114.556511" xlink:href="#m5ad626ca1c" y="307.584"/>
      </g>
     </g>
     <g id="text_2">
      <!-- 250 -->
      <defs>
       <path d="M 19.1875 8.296875 
L 53.609375 8.296875 
L 53.609375 0 
L 7.328125 0 
L 7.328125 8.296875 
Q 12.9375 14.109375 22.625 23.890625 
Q 32.328125 33.6875 34.8125 36.53125 
Q 39.546875 41.84375 41.421875 45.53125 
Q 43.3125 49.21875 43.3125 52.78125 
Q 43.3125 58.59375 39.234375 62.25 
Q 35.15625 65.921875 28.609375 65.921875 
Q 23.96875 65.921875 18.8125 64.3125 
Q 13.671875 62.703125 7.8125 59.421875 
L 7.8125 69.390625 
Q 13.765625 71.78125 18.9375 73 
Q 24.125 74.21875 28.421875 74.21875 
Q 39.75 74.21875 46.484375 68.546875 
Q 53.21875 62.890625 53.21875 53.421875 
Q 53.21875 48.921875 51.53125 44.890625 
Q 49.859375 40.875 45.40625 35.40625 
Q 44.1875 33.984375 37.640625 27.21875 
Q 31.109375 20.453125 19.1875 8.296875 
z
" id="DejaVuSans-50"/>
       <path d="M 10.796875 72.90625 
L 49.515625 72.90625 
L 49.515625 64.59375 
L 19.828125 64.59375 
L 19.828125 46.734375 
Q 21.96875 47.46875 24.109375 47.828125 
Q 26.265625 48.1875 28.421875 48.1875 
Q 40.625 48.1875 47.75 41.5 
Q 54.890625 34.8125 54.890625 23.390625 
Q 54.890625 11.625 47.5625 5.09375 
Q 40.234375 -1.421875 26.90625 -1.421875 
Q 22.3125 -1.421875 17.546875 -0.640625 
Q 12.796875 0.140625 7.71875 1.703125 
L 7.71875 11.625 
Q 12.109375 9.234375 16.796875 8.0625 
Q 21.484375 6.890625 26.703125 6.890625 
Q 35.15625 6.890625 40.078125 11.328125 
Q 45.015625 15.765625 45.015625 23.390625 
Q 45.015625 31 40.078125 35.4375 
Q 35.15625 39.890625 26.703125 39.890625 
Q 22.75 39.890625 18.8125 39.015625 
Q 14.890625 38.140625 10.796875 36.28125 
z
" id="DejaVuSans-53"/>
      </defs>
      <g transform="translate(105.012761 322.182437)scale(0.1 -0.1)">
       <use xlink:href="#DejaVuSans-50"/>
       <use x="63.623047" xlink:href="#DejaVuSans-53"/>
       <use x="127.246094" xlink:href="#DejaVuSans-48"/>
      </g>
     </g>
    </g>
    <g id="xtick_3">
     <g id="line2d_3">
      <g>
       <use style="stroke:#000000;stroke-width:0.8;" x="155.118048" xlink:href="#m5ad626ca1c" y="307.584"/>
      </g>
     </g>
     <g id="text_3">
      <!-- 500 -->
      <g transform="translate(145.574298 322.182437)scale(0.1 -0.1)">
       <use xlink:href="#DejaVuSans-53"/>
       <use x="63.623047" xlink:href="#DejaVuSans-48"/>
       <use x="127.246094" xlink:href="#DejaVuSans-48"/>
      </g>
     </g>
    </g>
    <g id="xtick_4">
     <g id="line2d_4">
      <g>
       <use style="stroke:#000000;stroke-width:0.8;" x="195.679586" xlink:href="#m5ad626ca1c" y="307.584"/>
      </g>
     </g>
     <g id="text_4">
      <!-- 750 -->
      <defs>
       <path d="M 8.203125 72.90625 
L 55.078125 72.90625 
L 55.078125 68.703125 
L 28.609375 0 
L 18.3125 0 
L 43.21875 64.59375 
L 8.203125 64.59375 
z
" id="DejaVuSans-55"/>
      </defs>
      <g transform="translate(186.135836 322.182437)scale(0.1 -0.1)">
       <use xlink:href="#DejaVuSans-55"/>
       <use x="63.623047" xlink:href="#DejaVuSans-53"/>
       <use x="127.246094" xlink:href="#DejaVuSans-48"/>
      </g>
     </g>
    </g>
    <g id="xtick_5">
     <g id="line2d_5">
      <g>
       <use style="stroke:#000000;stroke-width:0.8;" x="236.241123" xlink:href="#m5ad626ca1c" y="307.584"/>
      </g>
     </g>
     <g id="text_5">
      <!-- 1000 -->
      <defs>
       <path d="M 12.40625 8.296875 
L 28.515625 8.296875 
L 28.515625 63.921875 
L 10.984375 60.40625 
L 10.984375 69.390625 
L 28.421875 72.90625 
L 38.28125 72.90625 
L 38.28125 8.296875 
L 54.390625 8.296875 
L 54.390625 0 
L 12.40625 0 
z
" id="DejaVuSans-49"/>
      </defs>
      <g transform="translate(223.516123 322.182437)scale(0.1 -0.1)">
       <use xlink:href="#DejaVuSans-49"/>
       <use x="63.623047" xlink:href="#DejaVuSans-48"/>
       <use x="127.246094" xlink:href="#DejaVuSans-48"/>
       <use x="190.869141" xlink:href="#DejaVuSans-48"/>
      </g>
     </g>
    </g>
    <g id="xtick_6">
     <g id="line2d_6">
      <g>
       <use style="stroke:#000000;stroke-width:0.8;" x="276.80266" xlink:href="#m5ad626ca1c" y="307.584"/>
      </g>
     </g>
     <g id="text_6">
      <!-- 1250 -->
      <g transform="translate(264.07766 322.182437)scale(0.1 -0.1)">
       <use xlink:href="#DejaVuSans-49"/>
       <use x="63.623047" xlink:href="#DejaVuSans-50"/>
       <use x="127.246094" xlink:href="#DejaVuSans-53"/>
       <use x="190.869141" xlink:href="#DejaVuSans-48"/>
      </g>
     </g>
    </g>
    <g id="xtick_7">
     <g id="line2d_7">
      <g>
       <use style="stroke:#000000;stroke-width:0.8;" x="317.364198" xlink:href="#m5ad626ca1c" y="307.584"/>
      </g>
     </g>
     <g id="text_7">
      <!-- 1500 -->
      <g transform="translate(304.639198 322.182437)scale(0.1 -0.1)">
       <use xlink:href="#DejaVuSans-49"/>
       <use x="63.623047" xlink:href="#DejaVuSans-53"/>
       <use x="127.246094" xlink:href="#DejaVuSans-48"/>
       <use x="190.869141" xlink:href="#DejaVuSans-48"/>
      </g>
     </g>
    </g>
    <g id="xtick_8">
     <g id="line2d_8">
      <g>
       <use style="stroke:#000000;stroke-width:0.8;" x="357.925735" xlink:href="#m5ad626ca1c" y="307.584"/>
      </g>
     </g>
     <g id="text_8">
      <!-- 1750 -->
      <g transform="translate(345.200735 322.182437)scale(0.1 -0.1)">
       <use xlink:href="#DejaVuSans-49"/>
       <use x="63.623047" xlink:href="#DejaVuSans-55"/>
       <use x="127.246094" xlink:href="#DejaVuSans-53"/>
       <use x="190.869141" xlink:href="#DejaVuSans-48"/>
      </g>
     </g>
    </g>
    <g id="xtick_9">
     <g id="line2d_9">
      <g>
       <use style="stroke:#000000;stroke-width:0.8;" x="398.487273" xlink:href="#m5ad626ca1c" y="307.584"/>
      </g>
     </g>
     <g id="text_9">
      <!-- 2000 -->
      <g transform="translate(385.762273 322.182437)scale(0.1 -0.1)">
       <use xlink:href="#DejaVuSans-50"/>
       <use x="63.623047" xlink:href="#DejaVuSans-48"/>
       <use x="127.246094" xlink:href="#DejaVuSans-48"/>
       <use x="190.869141" xlink:href="#DejaVuSans-48"/>
      </g>
     </g>
    </g>
   </g>
   <g id="matplotlib.axis_2">
    <g id="ytick_1">
     <g id="line2d_10">
      <defs>
       <path d="M 0 0 
L -3.5 0 
" id="m369dcb7008" style="stroke:#000000;stroke-width:0.8;"/>
      </defs>
      <g>
       <use style="stroke:#000000;stroke-width:0.8;" x="57.6" xlink:href="#m369dcb7008" y="307.584"/>
      </g>
     </g>
     <g id="text_10">
      <!-- 0.0 -->
      <defs>
       <path d="M 10.6875 12.40625 
L 21 12.40625 
L 21 0 
L 10.6875 0 
z
" id="DejaVuSans-46"/>
      </defs>
      <g transform="translate(34.696875 311.383219)scale(0.1 -0.1)">
       <use xlink:href="#DejaVuSans-48"/>
       <use x="63.623047" xlink:href="#DejaVuSans-46"/>
       <use x="95.410156" xlink:href="#DejaVuSans-48"/>
      </g>
     </g>
    </g>
    <g id="ytick_2">
     <g id="line2d_11">
      <g>
       <use style="stroke:#000000;stroke-width:0.8;" x="57.6" xlink:href="#m369dcb7008" y="256.896"/>
      </g>
     </g>
     <g id="text_11">
      <!-- 0.2 -->
      <g transform="translate(34.696875 260.695219)scale(0.1 -0.1)">
       <use xlink:href="#DejaVuSans-48"/>
       <use x="63.623047" xlink:href="#DejaVuSans-46"/>
       <use x="95.410156" xlink:href="#DejaVuSans-50"/>
      </g>
     </g>
    </g>
    <g id="ytick_3">
     <g id="line2d_12">
      <g>
       <use style="stroke:#000000;stroke-width:0.8;" x="57.6" xlink:href="#m369dcb7008" y="206.208"/>
      </g>
     </g>
     <g id="text_12">
      <!-- 0.4 -->
      <defs>
       <path d="M 37.796875 64.3125 
L 12.890625 25.390625 
L 37.796875 25.390625 
z
M 35.203125 72.90625 
L 47.609375 72.90625 
L 47.609375 25.390625 
L 58.015625 25.390625 
L 58.015625 17.1875 
L 47.609375 17.1875 
L 47.609375 0 
L 37.796875 0 
L 37.796875 17.1875 
L 4.890625 17.1875 
L 4.890625 26.703125 
z
" id="DejaVuSans-52"/>
      </defs>
      <g transform="translate(34.696875 210.007219)scale(0.1 -0.1)">
       <use xlink:href="#DejaVuSans-48"/>
       <use x="63.623047" xlink:href="#DejaVuSans-46"/>
       <use x="95.410156" xlink:href="#DejaVuSans-52"/>
      </g>
     </g>
    </g>
    <g id="ytick_4">
     <g id="line2d_13">
      <g>
       <use style="stroke:#000000;stroke-width:0.8;" x="57.6" xlink:href="#m369dcb7008" y="155.52"/>
      </g>
     </g>
     <g id="text_13">
      <!-- 0.6 -->
      <defs>
       <path d="M 33.015625 40.375 
Q 26.375 40.375 22.484375 35.828125 
Q 18.609375 31.296875 18.609375 23.390625 
Q 18.609375 15.53125 22.484375 10.953125 
Q 26.375 6.390625 33.015625 6.390625 
Q 39.65625 6.390625 43.53125 10.953125 
Q 47.40625 15.53125 47.40625 23.390625 
Q 47.40625 31.296875 43.53125 35.828125 
Q 39.65625 40.375 33.015625 40.375 
z
M 52.59375 71.296875 
L 52.59375 62.3125 
Q 48.875 64.0625 45.09375 64.984375 
Q 41.3125 65.921875 37.59375 65.921875 
Q 27.828125 65.921875 22.671875 59.328125 
Q 17.53125 52.734375 16.796875 39.40625 
Q 19.671875 43.65625 24.015625 45.921875 
Q 28.375 48.1875 33.59375 48.1875 
Q 44.578125 48.1875 50.953125 41.515625 
Q 57.328125 34.859375 57.328125 23.390625 
Q 57.328125 12.15625 50.6875 5.359375 
Q 44.046875 -1.421875 33.015625 -1.421875 
Q 20.359375 -1.421875 13.671875 8.265625 
Q 6.984375 17.96875 6.984375 36.375 
Q 6.984375 53.65625 15.1875 63.9375 
Q 23.390625 74.21875 37.203125 74.21875 
Q 40.921875 74.21875 44.703125 73.484375 
Q 48.484375 72.75 52.59375 71.296875 
z
" id="DejaVuSans-54"/>
      </defs>
      <g transform="translate(34.696875 159.319219)scale(0.1 -0.1)">
       <use xlink:href="#DejaVuSans-48"/>
       <use x="63.623047" xlink:href="#DejaVuSans-46"/>
       <use x="95.410156" xlink:href="#DejaVuSans-54"/>
      </g>
     </g>
    </g>
    <g id="ytick_5">
     <g id="line2d_14">
      <g>
       <use style="stroke:#000000;stroke-width:0.8;" x="57.6" xlink:href="#m369dcb7008" y="104.832"/>
      </g>
     </g>
     <g id="text_14">
      <!-- 0.8 -->
      <defs>
       <path d="M 31.78125 34.625 
Q 24.75 34.625 20.71875 30.859375 
Q 16.703125 27.09375 16.703125 20.515625 
Q 16.703125 13.921875 20.71875 10.15625 
Q 24.75 6.390625 31.78125 6.390625 
Q 38.8125 6.390625 42.859375 10.171875 
Q 46.921875 13.96875 46.921875 20.515625 
Q 46.921875 27.09375 42.890625 30.859375 
Q 38.875 34.625 31.78125 34.625 
z
M 21.921875 38.8125 
Q 15.578125 40.375 12.03125 44.71875 
Q 8.5 49.078125 8.5 55.328125 
Q 8.5 64.0625 14.71875 69.140625 
Q 20.953125 74.21875 31.78125 74.21875 
Q 42.671875 74.21875 48.875 69.140625 
Q 55.078125 64.0625 55.078125 55.328125 
Q 55.078125 49.078125 51.53125 44.71875 
Q 48 40.375 41.703125 38.8125 
Q 48.828125 37.15625 52.796875 32.3125 
Q 56.78125 27.484375 56.78125 20.515625 
Q 56.78125 9.90625 50.3125 4.234375 
Q 43.84375 -1.421875 31.78125 -1.421875 
Q 19.734375 -1.421875 13.25 4.234375 
Q 6.78125 9.90625 6.78125 20.515625 
Q 6.78125 27.484375 10.78125 32.3125 
Q 14.796875 37.15625 21.921875 38.8125 
z
M 18.3125 54.390625 
Q 18.3125 48.734375 21.84375 45.5625 
Q 25.390625 42.390625 31.78125 42.390625 
Q 38.140625 42.390625 41.71875 45.5625 
Q 45.3125 48.734375 45.3125 54.390625 
Q 45.3125 60.0625 41.71875 63.234375 
Q 38.140625 66.40625 31.78125 66.40625 
Q 25.390625 66.40625 21.84375 63.234375 
Q 18.3125 60.0625 18.3125 54.390625 
z
" id="DejaVuSans-56"/>
      </defs>
      <g transform="translate(34.696875 108.631219)scale(0.1 -0.1)">
       <use xlink:href="#DejaVuSans-48"/>
       <use x="63.623047" xlink:href="#DejaVuSans-46"/>
       <use x="95.410156" xlink:href="#DejaVuSans-56"/>
      </g>
     </g>
    </g>
    <g id="ytick_6">
     <g id="line2d_15">
      <g>
       <use style="stroke:#000000;stroke-width:0.8;" x="57.6" xlink:href="#m369dcb7008" y="54.144"/>
      </g>
     </g>
     <g id="text_15">
      <!-- 1.0 -->
      <g transform="translate(34.696875 57.943219)scale(0.1 -0.1)">
       <use xlink:href="#DejaVuSans-49"/>
       <use x="63.623047" xlink:href="#DejaVuSans-46"/>
       <use x="95.410156" xlink:href="#DejaVuSans-48"/>
      </g>
     </g>
    </g>
   </g>
   <g id="line2d_16">
    <defs>
     <path d="M 0 3 
C 0.795609 3 1.55874 2.683901 2.12132 2.12132 
C 2.683901 1.55874 3 0.795609 3 0 
C 3 -0.795609 2.683901 -1.55874 2.12132 -2.12132 
C 1.55874 -2.683901 0.795609 -3 0 -3 
C -0.795609 -3 -1.55874 -2.683901 -2.12132 -2.12132 
C -2.683901 -1.55874 -3 -0.795609 -3 0 
C -3 0.795609 -2.683901 1.55874 -2.12132 2.12132 
C -1.55874 2.683901 -0.795609 3 0 3 
z
" id="mbab702580c" style="stroke:#1f77b4;"/>
    </defs>
    <g clip-path="url(#pca7a361b93)">
     <use style="fill:#1f77b4;stroke:#1f77b4;" x="138.893433" xlink:href="#mbab702580c" y="307.584"/>
     <use style="fill:#1f77b4;stroke:#1f77b4;" x="171.342663" xlink:href="#mbab702580c" y="299.9808"/>
     <use style="fill:#1f77b4;stroke:#1f77b4;" x="203.791893" xlink:href="#mbab702580c" y="274.6368"/>
     <use style="fill:#1f77b4;stroke:#1f77b4;" x="236.241123" xlink:href="#mbab702580c" y="218.88"/>
     <use style="fill:#1f77b4;stroke:#1f77b4;" x="268.690353" xlink:href="#mbab702580c" y="117.504"/>
     <use style="fill:#1f77b4;stroke:#1f77b4;" x="301.139583" xlink:href="#mbab702580c" y="82.0224"/>
     <use style="fill:#1f77b4;stroke:#1f77b4;" x="333.588813" xlink:href="#mbab702580c" y="76.9536"/>
    </g>
   </g>
   <g id="line2d_17">
    <path clip-path="url(#pca7a361b93)" d="M 73.832727 307.55192 
L 80.45833 307.538607 
L 87.083933 307.519771 
L 93.709536 307.493121 
L 100.335139 307.455421 
L 106.960742 307.402093 
L 113.586345 307.326671 
L 120.211948 307.220026 
L 126.837551 307.069281 
L 133.463154 306.856297 
L 140.088757 306.555566 
L 146.71436 306.131326 
L 153.339963 305.53361 
L 159.965566 304.692996 
L 166.591169 303.513755 
L 173.216772 301.86532 
L 179.842375 299.572377 
L 186.467978 296.404769 
L 193.093581 292.070131 
L 199.719184 286.214808 
L 206.344787 278.442147 
L 212.97039 268.359929 
L 219.595993 255.66667 
L 226.221596 240.273635 
L 232.847199 222.432314 
L 239.472801 202.806099 
L 246.098404 182.419413 
L 252.724007 162.465848 
L 259.34961 144.04153 
L 265.975213 127.922188 
L 272.600816 114.471352 
L 279.226419 103.683535 
L 285.852022 95.30332 
L 292.477625 88.953378 
L 299.103228 84.231976 
L 305.728831 80.770585 
L 312.354434 78.259081 
L 318.980037 76.450451 
L 325.60564 75.155031 
L 332.231243 74.230794 
L 338.856846 73.57321 
L 345.482449 73.106271 
L 352.108052 72.77517 
L 358.733655 72.540623 
L 365.359258 72.374591 
L 371.984861 72.257119 
L 378.610464 72.174033 
L 385.236067 72.115282 
L 391.86167 72.073747 
L 398.487273 72.044386 
" style="fill:none;stroke:#ff7f0e;stroke-linecap:square;stroke-width:1.5;"/>
   </g>
   <g id="line2d_18">
    <path clip-path="url(#pca7a361b93)" d="M 73.832727 307.55192 
L 80.45833 307.538607 
L 87.083933 307.519771 
L 93.709536 307.493122 
L 100.335139 307.455421 
L 106.960742 307.402093 
L 113.586345 307.326671 
L 120.211948 307.220027 
L 126.837551 307.069282 
L 133.463154 306.856297 
L 140.088757 306.555568 
L 146.71436 306.131327 
L 153.339963 305.533613 
L 159.965566 304.692999 
L 166.591169 303.513759 
L 173.216772 301.865325 
L 179.842375 299.572383 
L 186.467978 296.404777 
L 193.093581 292.070141 
L 199.719184 286.21482 
L 206.344787 278.442161 
L 212.97039 268.359944 
L 219.595993 255.666686 
L 226.221596 240.273651 
L 232.847199 222.432329 
L 239.472801 202.80611 
L 246.098404 182.41942 
L 252.724007 162.465851 
L 259.34961 144.041529 
L 265.975213 127.922185 
L 272.600816 114.471347 
L 279.226419 103.683529 
L 285.852022 95.303315 
L 292.477625 88.953373 
L 299.103228 84.231972 
L 305.728831 80.770582 
L 312.354434 78.259079 
L 318.980037 76.45045 
L 325.60564 75.15503 
L 332.231243 74.230793 
L 338.856846 73.573211 
L 345.482449 73.106272 
L 352.108052 72.775171 
L 358.733655 72.540624 
L 365.359258 72.374593 
L 371.984861 72.25712 
L 378.610464 72.174034 
L 385.236067 72.115284 
L 391.86167 72.073748 
L 398.487273 72.044387 
" style="fill:none;stroke:#2ca02c;stroke-linecap:square;stroke-width:1.5;"/>
   </g>
   <g id="line2d_19">
    <path clip-path="url(#pca7a361b93)" d="M 73.832727 307.584 
L 80.45833 307.584 
L 87.083933 307.584 
L 93.709536 196.794514 
L 100.335139 196.794514 
L 106.960742 196.794514 
L 113.586345 196.794514 
L 120.211948 196.794514 
L 126.837551 196.794514 
L 133.463154 196.794514 
L 140.088757 196.794514 
L 146.71436 196.794514 
L 153.339963 196.794514 
L 159.965566 196.794514 
L 166.591169 196.794514 
L 173.216772 196.794514 
L 179.842375 196.794514 
L 186.467978 196.794514 
L 193.093581 196.794514 
L 199.719184 196.794514 
L 206.344787 196.794514 
L 212.97039 196.794514 
L 219.595993 196.794514 
L 226.221596 196.794514 
L 232.847199 196.794514 
L 239.472801 196.794514 
L 246.098404 196.794514 
L 252.724007 196.794514 
L 259.34961 196.794514 
L 265.975213 196.794514 
L 272.600816 196.794514 
L 279.226419 196.794514 
L 285.852022 196.794514 
L 292.477625 196.794514 
L 299.103228 196.794514 
L 305.728831 196.794514 
L 312.354434 196.794514 
L 318.980037 196.794514 
L 325.60564 196.794514 
L 332.231243 196.794514 
L 338.856846 196.794514 
L 345.482449 196.794514 
L 352.108052 196.794514 
L 358.733655 196.794514 
L 365.359258 196.794514 
L 371.984861 196.794514 
L 378.610464 196.794514 
L 385.236067 196.794514 
L 391.86167 196.794514 
L 398.487273 196.794514 
" style="fill:none;stroke:#d62728;stroke-linecap:square;stroke-width:1.5;"/>
   </g>
   <g id="line2d_20">
    <path clip-path="url(#pca7a361b93)" d="M 73.832727 307.584 
L 80.45833 307.584 
L 87.083933 307.584 
L 93.709536 196.794514 
L 100.335139 196.794514 
L 106.960742 196.794514 
L 113.586345 196.794514 
L 120.211948 196.794514 
L 126.837551 196.794514 
L 133.463154 196.794514 
L 140.088757 196.794514 
L 146.71436 196.794514 
L 153.339963 196.794514 
L 159.965566 196.794514 
L 166.591169 196.794514 
L 173.216772 196.794514 
L 179.842375 196.794514 
L 186.467978 196.794514 
L 193.093581 196.794514 
L 199.719184 196.794514 
L 206.344787 196.794514 
L 212.97039 196.794514 
L 219.595993 196.794514 
L 226.221596 196.794514 
L 232.847199 196.794514 
L 239.472801 196.794514 
L 246.098404 196.794514 
L 252.724007 196.794514 
L 259.34961 196.794514 
L 265.975213 196.794514 
L 272.600816 196.794514 
L 279.226419 196.794514 
L 285.852022 196.794514 
L 292.477625 196.794514 
L 299.103228 196.794514 
L 305.728831 196.794514 
L 312.354434 196.794514 
L 318.980037 196.794514 
L 325.60564 196.794514 
L 332.231243 196.794514 
L 338.856846 196.794514 
L 345.482449 196.794514 
L 352.108052 196.794514 
L 358.733655 196.794514 
L 365.359258 196.794514 
L 371.984861 196.794514 
L 378.610464 196.794514 
L 385.236067 196.794514 
L 391.86167 196.794514 
L 398.487273 196.794514 
" style="fill:none;stroke:#9467bd;stroke-linecap:square;stroke-width:1.5;"/>
   </g>
   <g id="line2d_21">
    <path clip-path="url(#pca7a361b93)" d="M 73.832727 307.55192 
L 80.45833 307.538607 
L 87.083933 307.519771 
L 93.709536 307.493122 
L 100.335139 307.455421 
L 106.960742 307.402093 
L 113.586345 307.326671 
L 120.211948 307.220027 
L 126.837551 307.069282 
L 133.463154 306.856297 
L 140.088757 306.555567 
L 146.71436 306.131327 
L 153.339963 305.533612 
L 159.965566 304.692998 
L 166.591169 303.513757 
L 173.216772 301.865323 
L 179.842375 299.572379 
L 186.467978 296.404772 
L 193.093581 292.070134 
L 199.719184 286.214811 
L 206.344787 278.442149 
L 212.97039 268.359929 
L 219.595993 255.666667 
L 226.221596 240.273629 
L 232.847199 222.432305 
L 239.472801 202.806085 
L 246.098404 182.419396 
L 252.724007 162.46583 
L 259.34961 144.041512 
L 265.975213 127.922173 
L 272.600816 114.47134 
L 279.226419 103.683527 
L 285.852022 95.303316 
L 292.477625 88.953378 
L 299.103228 84.231978 
L 305.728831 80.770591 
L 312.354434 78.259089 
L 318.980037 76.45046 
L 325.60564 75.155041 
L 332.231243 74.230805 
L 338.856846 73.573223 
L 345.482449 73.106284 
L 352.108052 72.775183 
L 358.733655 72.540637 
L 365.359258 72.374606 
L 371.984861 72.257133 
L 378.610464 72.174047 
L 385.236067 72.115297 
L 391.86167 72.073761 
L 398.487273 72.0444 
" style="fill:none;stroke:#8c564b;stroke-linecap:square;stroke-width:1.5;"/>
   </g>
   <g id="line2d_22">
    <path clip-path="url(#pca7a361b93)" d="M 73.832727 307.55192 
L 80.45833 307.538607 
L 87.083933 307.519771 
L 93.709536 307.493122 
L 100.335139 307.455421 
L 106.960742 307.402093 
L 113.586345 307.326671 
L 120.211948 307.220027 
L 126.837551 307.069282 
L 133.463154 306.856297 
L 140.088757 306.555568 
L 146.71436 306.131327 
L 153.339963 305.533613 
L 159.965566 304.692999 
L 166.591169 303.513759 
L 173.216772 301.865325 
L 179.842375 299.572383 
L 186.467978 296.404777 
L 193.093581 292.070141 
L 199.719184 286.21482 
L 206.344787 278.442161 
L 212.97039 268.359943 
L 219.595993 255.666684 
L 226.221596 240.273649 
L 232.847199 222.432326 
L 239.472801 202.806107 
L 246.098404 182.419417 
L 252.724007 162.465848 
L 259.34961 144.041527 
L 265.975213 127.922183 
L 272.600816 114.471346 
L 279.226419 103.683529 
L 285.852022 95.303315 
L 292.477625 88.953374 
L 299.103228 84.231972 
L 305.728831 80.770583 
L 312.354434 78.259081 
L 318.980037 76.450451 
L 325.60564 75.155031 
L 332.231243 74.230795 
L 338.856846 73.573212 
L 345.482449 73.106273 
L 352.108052 72.775172 
L 358.733655 72.540626 
L 365.359258 72.374594 
L 371.984861 72.257122 
L 378.610464 72.174036 
L 385.236067 72.115285 
L 391.86167 72.07375 
L 398.487273 72.044389 
" style="fill:none;stroke:#e377c2;stroke-linecap:square;stroke-width:1.5;"/>
   </g>
   <g id="line2d_23">
    <path clip-path="url(#pca7a361b93)" d="M 73.832727 307.584 
L 80.45833 307.584 
L 87.083933 307.584 
L 93.709536 307.584 
L 100.335139 307.584 
L 106.960742 307.584 
L 113.586345 307.584 
L 120.211948 307.584 
L 126.837551 307.584 
L 133.463154 307.584 
L 140.088757 307.584 
L 146.71436 307.584 
L 153.339963 307.584 
L 159.965566 307.584 
L 166.591169 307.584 
L 173.216772 307.584 
L 179.842375 307.584 
L 186.467978 307.584 
L 193.093581 307.584 
L 199.719184 307.584 
L 206.344787 307.584 
L 212.97039 307.584 
L 219.595993 307.584 
L 226.221596 307.584 
L 232.847199 307.584 
L 239.472801 307.584 
L 246.098404 307.584 
L 252.724007 307.584 
L 259.34961 307.584 
L 265.975213 307.583999 
L 272.600816 79.488 
L 279.226419 79.488 
L 285.852022 79.488 
L 292.477625 79.488 
L 299.103228 79.488 
L 305.728831 79.488 
L 312.354434 79.488 
L 318.980037 79.488 
L 325.60564 79.488 
L 332.231243 79.488 
L 338.856846 79.488 
L 345.482449 79.488 
L 352.108052 79.488 
L 358.733655 79.488 
L 365.359258 79.488 
L 371.984861 79.488 
L 378.610464 79.488 
L 385.236067 79.488 
L 391.86167 79.488 
L 398.487273 79.488 
" style="fill:none;stroke:#7f7f7f;stroke-linecap:square;stroke-width:1.5;"/>
   </g>
   <g id="line2d_24">
    <path clip-path="url(#pca7a361b93)" d="M 73.832727 307.584 
L 80.45833 307.584 
L 87.083933 307.584 
L 93.709536 307.584 
L 100.335139 307.584 
L 106.960742 307.584 
L 113.586345 307.584 
L 120.211948 307.584 
L 126.837551 307.584 
L 133.463154 307.584 
L 140.088757 307.584 
L 146.71436 307.584 
L 153.339963 307.584 
L 159.965566 307.584 
L 166.591169 307.584 
L 173.216772 307.584 
L 179.842375 307.584 
L 186.467978 307.584 
L 193.093581 307.584 
L 199.719184 307.584 
L 206.344787 307.584 
L 212.97039 307.584 
L 219.595993 307.584 
L 226.221596 307.584 
L 232.847199 307.584 
L 239.472801 307.584 
L 246.098404 307.584 
L 252.724007 307.584 
L 259.34961 307.584 
L 265.975213 307.584 
L 272.600816 92.16 
L 279.226419 92.16 
L 285.852022 92.16 
L 292.477625 92.16 
L 299.103228 92.16 
L 305.728831 92.16 
L 312.354434 92.16 
L 318.980037 92.16 
L 325.60564 92.16 
L 332.231243 92.16 
L 338.856846 92.16 
L 345.482449 92.16 
L 352.108052 92.16 
L 358.733655 92.16 
L 365.359258 92.16 
L 371.984861 92.16 
L 378.610464 92.16 
L 385.236067 92.16 
L 391.86167 92.16 
L 398.487273 92.16 
" style="fill:none;stroke:#bcbd22;stroke-linecap:square;stroke-width:1.5;"/>
   </g>
   <g id="patch_3">
    <path d="M 57.6 307.584 
L 57.6 41.472 
" style="fill:none;stroke:#000000;stroke-linecap:square;stroke-linejoin:miter;stroke-width:0.8;"/>
   </g>
   <g id="patch_4">
    <path d="M 414.72 307.584 
L 414.72 41.472 
" style="fill:none;stroke:#000000;stroke-linecap:square;stroke-linejoin:miter;stroke-width:0.8;"/>
   </g>
   <g id="patch_5">
    <path d="M 57.6 307.584 
L 414.72 307.584 
" style="fill:none;stroke:#000000;stroke-linecap:square;stroke-linejoin:miter;stroke-width:0.8;"/>
   </g>
   <g id="patch_6">
    <path d="M 57.6 41.472 
L 414.72 41.472 
" style="fill:none;stroke:#000000;stroke-linecap:square;stroke-linejoin:miter;stroke-width:0.8;"/>
   </g>
   <g id="legend_1">
    <g id="patch_7">
     <path d="M 64.6 181.575125 
L 369.082813 181.575125 
Q 371.082813 181.575125 371.082813 179.575125 
L 371.082813 48.472 
Q 371.082813 46.472 369.082813 46.472 
L 64.6 46.472 
Q 62.6 46.472 62.6 48.472 
L 62.6 179.575125 
Q 62.6 181.575125 64.6 181.575125 
z
" style="fill:#ffffff;opacity:0.8;stroke:#cccccc;stroke-linejoin:miter;"/>
    </g>
    <g id="line2d_25"/>
    <g id="line2d_26">
     <g>
      <use style="fill:#1f77b4;stroke:#1f77b4;" x="76.6" xlink:href="#mbab702580c" y="54.570438"/>
     </g>
    </g>
    <g id="text_16">
     <!-- data -->
     <defs>
      <path d="M 45.40625 46.390625 
L 45.40625 75.984375 
L 54.390625 75.984375 
L 54.390625 0 
L 45.40625 0 
L 45.40625 8.203125 
Q 42.578125 3.328125 38.25 0.953125 
Q 33.9375 -1.421875 27.875 -1.421875 
Q 17.96875 -1.421875 11.734375 6.484375 
Q 5.515625 14.40625 5.515625 27.296875 
Q 5.515625 40.1875 11.734375 48.09375 
Q 17.96875 56 27.875 56 
Q 33.9375 56 38.25 53.625 
Q 42.578125 51.265625 45.40625 46.390625 
z
M 14.796875 27.296875 
Q 14.796875 17.390625 18.875 11.75 
Q 22.953125 6.109375 30.078125 6.109375 
Q 37.203125 6.109375 41.296875 11.75 
Q 45.40625 17.390625 45.40625 27.296875 
Q 45.40625 37.203125 41.296875 42.84375 
Q 37.203125 48.484375 30.078125 48.484375 
Q 22.953125 48.484375 18.875 42.84375 
Q 14.796875 37.203125 14.796875 27.296875 
z
" id="DejaVuSans-100"/>
      <path d="M 34.28125 27.484375 
Q 23.390625 27.484375 19.1875 25 
Q 14.984375 22.515625 14.984375 16.5 
Q 14.984375 11.71875 18.140625 8.90625 
Q 21.296875 6.109375 26.703125 6.109375 
Q 34.1875 6.109375 38.703125 11.40625 
Q 43.21875 16.703125 43.21875 25.484375 
L 43.21875 27.484375 
z
M 52.203125 31.203125 
L 52.203125 0 
L 43.21875 0 
L 43.21875 8.296875 
Q 40.140625 3.328125 35.546875 0.953125 
Q 30.953125 -1.421875 24.3125 -1.421875 
Q 15.921875 -1.421875 10.953125 3.296875 
Q 6 8.015625 6 15.921875 
Q 6 25.140625 12.171875 29.828125 
Q 18.359375 34.515625 30.609375 34.515625 
L 43.21875 34.515625 
L 43.21875 35.40625 
Q 43.21875 41.609375 39.140625 45 
Q 35.0625 48.390625 27.6875 48.390625 
Q 23 48.390625 18.546875 47.265625 
Q 14.109375 46.140625 10.015625 43.890625 
L 10.015625 52.203125 
Q 14.9375 54.109375 19.578125 55.046875 
Q 24.21875 56 28.609375 56 
Q 40.484375 56 46.34375 49.84375 
Q 52.203125 43.703125 52.203125 31.203125 
z
" id="DejaVuSans-97"/>
      <path d="M 18.3125 70.21875 
L 18.3125 54.6875 
L 36.8125 54.6875 
L 36.8125 47.703125 
L 18.3125 47.703125 
L 18.3125 18.015625 
Q 18.3125 11.328125 20.140625 9.421875 
Q 21.96875 7.515625 27.59375 7.515625 
L 36.8125 7.515625 
L 36.8125 0 
L 27.59375 0 
Q 17.1875 0 13.234375 3.875 
Q 9.28125 7.765625 9.28125 18.015625 
L 9.28125 47.703125 
L 2.6875 47.703125 
L 2.6875 54.6875 
L 9.28125 54.6875 
L 9.28125 70.21875 
z
" id="DejaVuSans-116"/>
     </defs>
     <g transform="translate(94.6 58.070438)scale(0.1 -0.1)">
      <use xlink:href="#DejaVuSans-100"/>
      <use x="63.476562" xlink:href="#DejaVuSans-97"/>
      <use x="124.755859" xlink:href="#DejaVuSans-116"/>
      <use x="163.964844" xlink:href="#DejaVuSans-97"/>
     </g>
    </g>
    <g id="line2d_27">
     <path d="M 66.6 69.248563 
L 86.6 69.248563 
" style="fill:none;stroke:#ff7f0e;stroke-linecap:square;stroke-width:1.5;"/>
    </g>
    <g id="line2d_28"/>
    <g id="text_17">
     <!-- [1.04603975e+03 8.50164831e-03 9.29649550e-01] -->
     <defs>
      <path d="M 8.59375 75.984375 
L 29.296875 75.984375 
L 29.296875 69 
L 17.578125 69 
L 17.578125 -6.203125 
L 29.296875 -6.203125 
L 29.296875 -13.1875 
L 8.59375 -13.1875 
z
" id="DejaVuSans-91"/>
      <path d="M 40.578125 39.3125 
Q 47.65625 37.796875 51.625 33 
Q 55.609375 28.21875 55.609375 21.1875 
Q 55.609375 10.40625 48.1875 4.484375 
Q 40.765625 -1.421875 27.09375 -1.421875 
Q 22.515625 -1.421875 17.65625 -0.515625 
Q 12.796875 0.390625 7.625 2.203125 
L 7.625 11.71875 
Q 11.71875 9.328125 16.59375 8.109375 
Q 21.484375 6.890625 26.8125 6.890625 
Q 36.078125 6.890625 40.9375 10.546875 
Q 45.796875 14.203125 45.796875 21.1875 
Q 45.796875 27.640625 41.28125 31.265625 
Q 36.765625 34.90625 28.71875 34.90625 
L 20.21875 34.90625 
L 20.21875 43.015625 
L 29.109375 43.015625 
Q 36.375 43.015625 40.234375 45.921875 
Q 44.09375 48.828125 44.09375 54.296875 
Q 44.09375 59.90625 40.109375 62.90625 
Q 36.140625 65.921875 28.71875 65.921875 
Q 24.65625 65.921875 20.015625 65.03125 
Q 15.375 64.15625 9.8125 62.3125 
L 9.8125 71.09375 
Q 15.4375 72.65625 20.34375 73.4375 
Q 25.25 74.21875 29.59375 74.21875 
Q 40.828125 74.21875 47.359375 69.109375 
Q 53.90625 64.015625 53.90625 55.328125 
Q 53.90625 49.265625 50.4375 45.09375 
Q 46.96875 40.921875 40.578125 39.3125 
z
" id="DejaVuSans-51"/>
      <path d="M 10.984375 1.515625 
L 10.984375 10.5 
Q 14.703125 8.734375 18.5 7.8125 
Q 22.3125 6.890625 25.984375 6.890625 
Q 35.75 6.890625 40.890625 13.453125 
Q 46.046875 20.015625 46.78125 33.40625 
Q 43.953125 29.203125 39.59375 26.953125 
Q 35.25 24.703125 29.984375 24.703125 
Q 19.046875 24.703125 12.671875 31.3125 
Q 6.296875 37.9375 6.296875 49.421875 
Q 6.296875 60.640625 12.9375 67.421875 
Q 19.578125 74.21875 30.609375 74.21875 
Q 43.265625 74.21875 49.921875 64.515625 
Q 56.59375 54.828125 56.59375 36.375 
Q 56.59375 19.140625 48.40625 8.859375 
Q 40.234375 -1.421875 26.421875 -1.421875 
Q 22.703125 -1.421875 18.890625 -0.6875 
Q 15.09375 0.046875 10.984375 1.515625 
z
M 30.609375 32.421875 
Q 37.25 32.421875 41.125 36.953125 
Q 45.015625 41.5 45.015625 49.421875 
Q 45.015625 57.28125 41.125 61.84375 
Q 37.25 66.40625 30.609375 66.40625 
Q 23.96875 66.40625 20.09375 61.84375 
Q 16.21875 57.28125 16.21875 49.421875 
Q 16.21875 41.5 20.09375 36.953125 
Q 23.96875 32.421875 30.609375 32.421875 
z
" id="DejaVuSans-57"/>
      <path d="M 56.203125 29.59375 
L 56.203125 25.203125 
L 14.890625 25.203125 
Q 15.484375 15.921875 20.484375 11.0625 
Q 25.484375 6.203125 34.421875 6.203125 
Q 39.59375 6.203125 44.453125 7.46875 
Q 49.3125 8.734375 54.109375 11.28125 
L 54.109375 2.78125 
Q 49.265625 0.734375 44.1875 -0.34375 
Q 39.109375 -1.421875 33.890625 -1.421875 
Q 20.796875 -1.421875 13.15625 6.1875 
Q 5.515625 13.8125 5.515625 26.8125 
Q 5.515625 40.234375 12.765625 48.109375 
Q 20.015625 56 32.328125 56 
Q 43.359375 56 49.78125 48.890625 
Q 56.203125 41.796875 56.203125 29.59375 
z
M 47.21875 32.234375 
Q 47.125 39.59375 43.09375 43.984375 
Q 39.0625 48.390625 32.421875 48.390625 
Q 24.90625 48.390625 20.390625 44.140625 
Q 15.875 39.890625 15.1875 32.171875 
z
" id="DejaVuSans-101"/>
      <path d="M 46 62.703125 
L 46 35.5 
L 73.1875 35.5 
L 73.1875 27.203125 
L 46 27.203125 
L 46 0 
L 37.796875 0 
L 37.796875 27.203125 
L 10.59375 27.203125 
L 10.59375 35.5 
L 37.796875 35.5 
L 37.796875 62.703125 
z
" id="DejaVuSans-43"/>
      <path id="DejaVuSans-32"/>
      <path d="M 4.890625 31.390625 
L 31.203125 31.390625 
L 31.203125 23.390625 
L 4.890625 23.390625 
z
" id="DejaVuSans-45"/>
      <path d="M 30.421875 75.984375 
L 30.421875 -13.1875 
L 9.71875 -13.1875 
L 9.71875 -6.203125 
L 21.390625 -6.203125 
L 21.390625 69 
L 9.71875 69 
L 9.71875 75.984375 
z
" id="DejaVuSans-93"/>
     </defs>
     <g transform="translate(94.6 72.748563)scale(0.1 -0.1)">
      <use xlink:href="#DejaVuSans-91"/>
      <use x="39.013672" xlink:href="#DejaVuSans-49"/>
      <use x="102.636719" xlink:href="#DejaVuSans-46"/>
      <use x="134.423828" xlink:href="#DejaVuSans-48"/>
      <use x="198.046875" xlink:href="#DejaVuSans-52"/>
      <use x="261.669922" xlink:href="#DejaVuSans-54"/>
      <use x="325.292969" xlink:href="#DejaVuSans-48"/>
      <use x="388.916016" xlink:href="#DejaVuSans-51"/>
      <use x="452.539062" xlink:href="#DejaVuSans-57"/>
      <use x="516.162109" xlink:href="#DejaVuSans-55"/>
      <use x="579.785156" xlink:href="#DejaVuSans-53"/>
      <use x="643.408203" xlink:href="#DejaVuSans-101"/>
      <use x="704.931641" xlink:href="#DejaVuSans-43"/>
      <use x="788.720703" xlink:href="#DejaVuSans-48"/>
      <use x="852.34375" xlink:href="#DejaVuSans-51"/>
      <use x="915.966797" xlink:href="#DejaVuSans-32"/>
      <use x="947.753906" xlink:href="#DejaVuSans-56"/>
      <use x="1011.376953" xlink:href="#DejaVuSans-46"/>
      <use x="1043.164062" xlink:href="#DejaVuSans-53"/>
      <use x="1106.787109" xlink:href="#DejaVuSans-48"/>
      <use x="1170.410156" xlink:href="#DejaVuSans-49"/>
      <use x="1234.033203" xlink:href="#DejaVuSans-54"/>
      <use x="1297.65625" xlink:href="#DejaVuSans-52"/>
      <use x="1361.279297" xlink:href="#DejaVuSans-56"/>
      <use x="1424.902344" xlink:href="#DejaVuSans-51"/>
      <use x="1488.525391" xlink:href="#DejaVuSans-49"/>
      <use x="1552.148438" xlink:href="#DejaVuSans-101"/>
      <use x="1613.671875" xlink:href="#DejaVuSans-45"/>
      <use x="1649.755859" xlink:href="#DejaVuSans-48"/>
      <use x="1713.378906" xlink:href="#DejaVuSans-51"/>
      <use x="1777.001953" xlink:href="#DejaVuSans-32"/>
      <use x="1808.789062" xlink:href="#DejaVuSans-57"/>
      <use x="1872.412109" xlink:href="#DejaVuSans-46"/>
      <use x="1904.199219" xlink:href="#DejaVuSans-50"/>
      <use x="1967.822266" xlink:href="#DejaVuSans-57"/>
      <use x="2031.445312" xlink:href="#DejaVuSans-54"/>
      <use x="2095.068359" xlink:href="#DejaVuSans-52"/>
      <use x="2158.691406" xlink:href="#DejaVuSans-57"/>
      <use x="2222.314453" xlink:href="#DejaVuSans-53"/>
      <use x="2285.9375" xlink:href="#DejaVuSans-53"/>
      <use x="2349.560547" xlink:href="#DejaVuSans-48"/>
      <use x="2413.183594" xlink:href="#DejaVuSans-101"/>
      <use x="2474.707031" xlink:href="#DejaVuSans-45"/>
      <use x="2510.791016" xlink:href="#DejaVuSans-48"/>
      <use x="2574.414062" xlink:href="#DejaVuSans-49"/>
      <use x="2638.037109" xlink:href="#DejaVuSans-93"/>
     </g>
    </g>
    <g id="line2d_29">
     <path d="M 66.6 83.926688 
L 86.6 83.926688 
" style="fill:none;stroke:#2ca02c;stroke-linecap:square;stroke-width:1.5;"/>
    </g>
    <g id="line2d_30"/>
    <g id="text_18">
     <!-- [1.04603977e+03 8.50165007e-03 9.29649543e-01] -->
     <g transform="translate(94.6 87.426688)scale(0.1 -0.1)">
      <use xlink:href="#DejaVuSans-91"/>
      <use x="39.013672" xlink:href="#DejaVuSans-49"/>
      <use x="102.636719" xlink:href="#DejaVuSans-46"/>
      <use x="134.423828" xlink:href="#DejaVuSans-48"/>
      <use x="198.046875" xlink:href="#DejaVuSans-52"/>
      <use x="261.669922" xlink:href="#DejaVuSans-54"/>
      <use x="325.292969" xlink:href="#DejaVuSans-48"/>
      <use x="388.916016" xlink:href="#DejaVuSans-51"/>
      <use x="452.539062" xlink:href="#DejaVuSans-57"/>
      <use x="516.162109" xlink:href="#DejaVuSans-55"/>
      <use x="579.785156" xlink:href="#DejaVuSans-55"/>
      <use x="643.408203" xlink:href="#DejaVuSans-101"/>
      <use x="704.931641" xlink:href="#DejaVuSans-43"/>
      <use x="788.720703" xlink:href="#DejaVuSans-48"/>
      <use x="852.34375" xlink:href="#DejaVuSans-51"/>
      <use x="915.966797" xlink:href="#DejaVuSans-32"/>
      <use x="947.753906" xlink:href="#DejaVuSans-56"/>
      <use x="1011.376953" xlink:href="#DejaVuSans-46"/>
      <use x="1043.164062" xlink:href="#DejaVuSans-53"/>
      <use x="1106.787109" xlink:href="#DejaVuSans-48"/>
      <use x="1170.410156" xlink:href="#DejaVuSans-49"/>
      <use x="1234.033203" xlink:href="#DejaVuSans-54"/>
      <use x="1297.65625" xlink:href="#DejaVuSans-53"/>
      <use x="1361.279297" xlink:href="#DejaVuSans-48"/>
      <use x="1424.902344" xlink:href="#DejaVuSans-48"/>
      <use x="1488.525391" xlink:href="#DejaVuSans-55"/>
      <use x="1552.148438" xlink:href="#DejaVuSans-101"/>
      <use x="1613.671875" xlink:href="#DejaVuSans-45"/>
      <use x="1649.755859" xlink:href="#DejaVuSans-48"/>
      <use x="1713.378906" xlink:href="#DejaVuSans-51"/>
      <use x="1777.001953" xlink:href="#DejaVuSans-32"/>
      <use x="1808.789062" xlink:href="#DejaVuSans-57"/>
      <use x="1872.412109" xlink:href="#DejaVuSans-46"/>
      <use x="1904.199219" xlink:href="#DejaVuSans-50"/>
      <use x="1967.822266" xlink:href="#DejaVuSans-57"/>
      <use x="2031.445312" xlink:href="#DejaVuSans-54"/>
      <use x="2095.068359" xlink:href="#DejaVuSans-52"/>
      <use x="2158.691406" xlink:href="#DejaVuSans-57"/>
      <use x="2222.314453" xlink:href="#DejaVuSans-53"/>
      <use x="2285.9375" xlink:href="#DejaVuSans-52"/>
      <use x="2349.560547" xlink:href="#DejaVuSans-51"/>
      <use x="2413.183594" xlink:href="#DejaVuSans-101"/>
      <use x="2474.707031" xlink:href="#DejaVuSans-45"/>
      <use x="2510.791016" xlink:href="#DejaVuSans-48"/>
      <use x="2574.414062" xlink:href="#DejaVuSans-49"/>
      <use x="2638.037109" xlink:href="#DejaVuSans-93"/>
     </g>
    </g>
    <g id="line2d_31">
     <path d="M 66.6 98.604813 
L 86.6 98.604813 
" style="fill:none;stroke:#d62728;stroke-linecap:square;stroke-width:1.5;"/>
    </g>
    <g id="line2d_32"/>
    <g id="text_19">
     <!-- [100.           1.           0.43714286] -->
     <g transform="translate(94.6 102.104813)scale(0.1 -0.1)">
      <use xlink:href="#DejaVuSans-91"/>
      <use x="39.013672" xlink:href="#DejaVuSans-49"/>
      <use x="102.636719" xlink:href="#DejaVuSans-48"/>
      <use x="166.259766" xlink:href="#DejaVuSans-48"/>
      <use x="229.882812" xlink:href="#DejaVuSans-46"/>
      <use x="261.669922" xlink:href="#DejaVuSans-32"/>
      <use x="293.457031" xlink:href="#DejaVuSans-32"/>
      <use x="325.244141" xlink:href="#DejaVuSans-32"/>
      <use x="357.03125" xlink:href="#DejaVuSans-32"/>
      <use x="388.818359" xlink:href="#DejaVuSans-32"/>
      <use x="420.605469" xlink:href="#DejaVuSans-32"/>
      <use x="452.392578" xlink:href="#DejaVuSans-32"/>
      <use x="484.179688" xlink:href="#DejaVuSans-32"/>
      <use x="515.966797" xlink:href="#DejaVuSans-32"/>
      <use x="547.753906" xlink:href="#DejaVuSans-32"/>
      <use x="579.541016" xlink:href="#DejaVuSans-32"/>
      <use x="611.328125" xlink:href="#DejaVuSans-49"/>
      <use x="674.951172" xlink:href="#DejaVuSans-46"/>
      <use x="706.738281" xlink:href="#DejaVuSans-32"/>
      <use x="738.525391" xlink:href="#DejaVuSans-32"/>
      <use x="770.3125" xlink:href="#DejaVuSans-32"/>
      <use x="802.099609" xlink:href="#DejaVuSans-32"/>
      <use x="833.886719" xlink:href="#DejaVuSans-32"/>
      <use x="865.673828" xlink:href="#DejaVuSans-32"/>
      <use x="897.460938" xlink:href="#DejaVuSans-32"/>
      <use x="929.248047" xlink:href="#DejaVuSans-32"/>
      <use x="961.035156" xlink:href="#DejaVuSans-32"/>
      <use x="992.822266" xlink:href="#DejaVuSans-32"/>
      <use x="1024.609375" xlink:href="#DejaVuSans-32"/>
      <use x="1056.396484" xlink:href="#DejaVuSans-48"/>
      <use x="1120.019531" xlink:href="#DejaVuSans-46"/>
      <use x="1151.806641" xlink:href="#DejaVuSans-52"/>
      <use x="1215.429688" xlink:href="#DejaVuSans-51"/>
      <use x="1279.052734" xlink:href="#DejaVuSans-55"/>
      <use x="1342.675781" xlink:href="#DejaVuSans-49"/>
      <use x="1406.298828" xlink:href="#DejaVuSans-52"/>
      <use x="1469.921875" xlink:href="#DejaVuSans-50"/>
      <use x="1533.544922" xlink:href="#DejaVuSans-56"/>
      <use x="1597.167969" xlink:href="#DejaVuSans-54"/>
      <use x="1660.791016" xlink:href="#DejaVuSans-93"/>
     </g>
    </g>
    <g id="line2d_33">
     <path d="M 66.6 113.282938 
L 86.6 113.282938 
" style="fill:none;stroke:#9467bd;stroke-linecap:square;stroke-width:1.5;"/>
    </g>
    <g id="line2d_34"/>
    <g id="text_20">
     <!-- [100.           1.           0.43714286] -->
     <g transform="translate(94.6 116.782938)scale(0.1 -0.1)">
      <use xlink:href="#DejaVuSans-91"/>
      <use x="39.013672" xlink:href="#DejaVuSans-49"/>
      <use x="102.636719" xlink:href="#DejaVuSans-48"/>
      <use x="166.259766" xlink:href="#DejaVuSans-48"/>
      <use x="229.882812" xlink:href="#DejaVuSans-46"/>
      <use x="261.669922" xlink:href="#DejaVuSans-32"/>
      <use x="293.457031" xlink:href="#DejaVuSans-32"/>
      <use x="325.244141" xlink:href="#DejaVuSans-32"/>
      <use x="357.03125" xlink:href="#DejaVuSans-32"/>
      <use x="388.818359" xlink:href="#DejaVuSans-32"/>
      <use x="420.605469" xlink:href="#DejaVuSans-32"/>
      <use x="452.392578" xlink:href="#DejaVuSans-32"/>
      <use x="484.179688" xlink:href="#DejaVuSans-32"/>
      <use x="515.966797" xlink:href="#DejaVuSans-32"/>
      <use x="547.753906" xlink:href="#DejaVuSans-32"/>
      <use x="579.541016" xlink:href="#DejaVuSans-32"/>
      <use x="611.328125" xlink:href="#DejaVuSans-49"/>
      <use x="674.951172" xlink:href="#DejaVuSans-46"/>
      <use x="706.738281" xlink:href="#DejaVuSans-32"/>
      <use x="738.525391" xlink:href="#DejaVuSans-32"/>
      <use x="770.3125" xlink:href="#DejaVuSans-32"/>
      <use x="802.099609" xlink:href="#DejaVuSans-32"/>
      <use x="833.886719" xlink:href="#DejaVuSans-32"/>
      <use x="865.673828" xlink:href="#DejaVuSans-32"/>
      <use x="897.460938" xlink:href="#DejaVuSans-32"/>
      <use x="929.248047" xlink:href="#DejaVuSans-32"/>
      <use x="961.035156" xlink:href="#DejaVuSans-32"/>
      <use x="992.822266" xlink:href="#DejaVuSans-32"/>
      <use x="1024.609375" xlink:href="#DejaVuSans-32"/>
      <use x="1056.396484" xlink:href="#DejaVuSans-48"/>
      <use x="1120.019531" xlink:href="#DejaVuSans-46"/>
      <use x="1151.806641" xlink:href="#DejaVuSans-52"/>
      <use x="1215.429688" xlink:href="#DejaVuSans-51"/>
      <use x="1279.052734" xlink:href="#DejaVuSans-55"/>
      <use x="1342.675781" xlink:href="#DejaVuSans-49"/>
      <use x="1406.298828" xlink:href="#DejaVuSans-52"/>
      <use x="1469.921875" xlink:href="#DejaVuSans-50"/>
      <use x="1533.544922" xlink:href="#DejaVuSans-56"/>
      <use x="1597.167969" xlink:href="#DejaVuSans-54"/>
      <use x="1660.791016" xlink:href="#DejaVuSans-93"/>
     </g>
    </g>
    <g id="line2d_35">
     <path d="M 66.6 127.961063 
L 86.6 127.961063 
" style="fill:none;stroke:#8c564b;stroke-linecap:square;stroke-width:1.5;"/>
    </g>
    <g id="line2d_36"/>
    <g id="text_21">
     <!-- [1.04603971e+03 8.50165001e-03 9.29649491e-01] -->
     <g transform="translate(94.6 131.461063)scale(0.1 -0.1)">
      <use xlink:href="#DejaVuSans-91"/>
      <use x="39.013672" xlink:href="#DejaVuSans-49"/>
      <use x="102.636719" xlink:href="#DejaVuSans-46"/>
      <use x="134.423828" xlink:href="#DejaVuSans-48"/>
      <use x="198.046875" xlink:href="#DejaVuSans-52"/>
      <use x="261.669922" xlink:href="#DejaVuSans-54"/>
      <use x="325.292969" xlink:href="#DejaVuSans-48"/>
      <use x="388.916016" xlink:href="#DejaVuSans-51"/>
      <use x="452.539062" xlink:href="#DejaVuSans-57"/>
      <use x="516.162109" xlink:href="#DejaVuSans-55"/>
      <use x="579.785156" xlink:href="#DejaVuSans-49"/>
      <use x="643.408203" xlink:href="#DejaVuSans-101"/>
      <use x="704.931641" xlink:href="#DejaVuSans-43"/>
      <use x="788.720703" xlink:href="#DejaVuSans-48"/>
      <use x="852.34375" xlink:href="#DejaVuSans-51"/>
      <use x="915.966797" xlink:href="#DejaVuSans-32"/>
      <use x="947.753906" xlink:href="#DejaVuSans-56"/>
      <use x="1011.376953" xlink:href="#DejaVuSans-46"/>
      <use x="1043.164062" xlink:href="#DejaVuSans-53"/>
      <use x="1106.787109" xlink:href="#DejaVuSans-48"/>
      <use x="1170.410156" xlink:href="#DejaVuSans-49"/>
      <use x="1234.033203" xlink:href="#DejaVuSans-54"/>
      <use x="1297.65625" xlink:href="#DejaVuSans-53"/>
      <use x="1361.279297" xlink:href="#DejaVuSans-48"/>
      <use x="1424.902344" xlink:href="#DejaVuSans-48"/>
      <use x="1488.525391" xlink:href="#DejaVuSans-49"/>
      <use x="1552.148438" xlink:href="#DejaVuSans-101"/>
      <use x="1613.671875" xlink:href="#DejaVuSans-45"/>
      <use x="1649.755859" xlink:href="#DejaVuSans-48"/>
      <use x="1713.378906" xlink:href="#DejaVuSans-51"/>
      <use x="1777.001953" xlink:href="#DejaVuSans-32"/>
      <use x="1808.789062" xlink:href="#DejaVuSans-57"/>
      <use x="1872.412109" xlink:href="#DejaVuSans-46"/>
      <use x="1904.199219" xlink:href="#DejaVuSans-50"/>
      <use x="1967.822266" xlink:href="#DejaVuSans-57"/>
      <use x="2031.445312" xlink:href="#DejaVuSans-54"/>
      <use x="2095.068359" xlink:href="#DejaVuSans-52"/>
      <use x="2158.691406" xlink:href="#DejaVuSans-57"/>
      <use x="2222.314453" xlink:href="#DejaVuSans-52"/>
      <use x="2285.9375" xlink:href="#DejaVuSans-57"/>
      <use x="2349.560547" xlink:href="#DejaVuSans-49"/>
      <use x="2413.183594" xlink:href="#DejaVuSans-101"/>
      <use x="2474.707031" xlink:href="#DejaVuSans-45"/>
      <use x="2510.791016" xlink:href="#DejaVuSans-48"/>
      <use x="2574.414062" xlink:href="#DejaVuSans-49"/>
      <use x="2638.037109" xlink:href="#DejaVuSans-93"/>
     </g>
    </g>
    <g id="line2d_37">
     <path d="M 66.6 142.639188 
L 86.6 142.639188 
" style="fill:none;stroke:#e377c2;stroke-linecap:square;stroke-width:1.5;"/>
    </g>
    <g id="line2d_38"/>
    <g id="text_22">
     <!-- [1.04603976e+03 8.50165016e-03 9.29649536e-01] -->
     <g transform="translate(94.6 146.139188)scale(0.1 -0.1)">
      <use xlink:href="#DejaVuSans-91"/>
      <use x="39.013672" xlink:href="#DejaVuSans-49"/>
      <use x="102.636719" xlink:href="#DejaVuSans-46"/>
      <use x="134.423828" xlink:href="#DejaVuSans-48"/>
      <use x="198.046875" xlink:href="#DejaVuSans-52"/>
      <use x="261.669922" xlink:href="#DejaVuSans-54"/>
      <use x="325.292969" xlink:href="#DejaVuSans-48"/>
      <use x="388.916016" xlink:href="#DejaVuSans-51"/>
      <use x="452.539062" xlink:href="#DejaVuSans-57"/>
      <use x="516.162109" xlink:href="#DejaVuSans-55"/>
      <use x="579.785156" xlink:href="#DejaVuSans-54"/>
      <use x="643.408203" xlink:href="#DejaVuSans-101"/>
      <use x="704.931641" xlink:href="#DejaVuSans-43"/>
      <use x="788.720703" xlink:href="#DejaVuSans-48"/>
      <use x="852.34375" xlink:href="#DejaVuSans-51"/>
      <use x="915.966797" xlink:href="#DejaVuSans-32"/>
      <use x="947.753906" xlink:href="#DejaVuSans-56"/>
      <use x="1011.376953" xlink:href="#DejaVuSans-46"/>
      <use x="1043.164062" xlink:href="#DejaVuSans-53"/>
      <use x="1106.787109" xlink:href="#DejaVuSans-48"/>
      <use x="1170.410156" xlink:href="#DejaVuSans-49"/>
      <use x="1234.033203" xlink:href="#DejaVuSans-54"/>
      <use x="1297.65625" xlink:href="#DejaVuSans-53"/>
      <use x="1361.279297" xlink:href="#DejaVuSans-48"/>
      <use x="1424.902344" xlink:href="#DejaVuSans-49"/>
      <use x="1488.525391" xlink:href="#DejaVuSans-54"/>
      <use x="1552.148438" xlink:href="#DejaVuSans-101"/>
      <use x="1613.671875" xlink:href="#DejaVuSans-45"/>
      <use x="1649.755859" xlink:href="#DejaVuSans-48"/>
      <use x="1713.378906" xlink:href="#DejaVuSans-51"/>
      <use x="1777.001953" xlink:href="#DejaVuSans-32"/>
      <use x="1808.789062" xlink:href="#DejaVuSans-57"/>
      <use x="1872.412109" xlink:href="#DejaVuSans-46"/>
      <use x="1904.199219" xlink:href="#DejaVuSans-50"/>
      <use x="1967.822266" xlink:href="#DejaVuSans-57"/>
      <use x="2031.445312" xlink:href="#DejaVuSans-54"/>
      <use x="2095.068359" xlink:href="#DejaVuSans-52"/>
      <use x="2158.691406" xlink:href="#DejaVuSans-57"/>
      <use x="2222.314453" xlink:href="#DejaVuSans-53"/>
      <use x="2285.9375" xlink:href="#DejaVuSans-51"/>
      <use x="2349.560547" xlink:href="#DejaVuSans-54"/>
      <use x="2413.183594" xlink:href="#DejaVuSans-101"/>
      <use x="2474.707031" xlink:href="#DejaVuSans-45"/>
      <use x="2510.791016" xlink:href="#DejaVuSans-48"/>
      <use x="2574.414062" xlink:href="#DejaVuSans-49"/>
      <use x="2638.037109" xlink:href="#DejaVuSans-93"/>
     </g>
    </g>
    <g id="line2d_39">
     <path d="M 66.6 157.317313 
L 86.6 157.317313 
" style="fill:none;stroke:#7f7f7f;stroke-linecap:square;stroke-width:1.5;"/>
    </g>
    <g id="line2d_40"/>
    <g id="text_23">
     <!-- [1.19868490e+03 1.22381848e+00 9.00000000e-01] -->
     <g transform="translate(94.6 160.817313)scale(0.1 -0.1)">
      <use xlink:href="#DejaVuSans-91"/>
      <use x="39.013672" xlink:href="#DejaVuSans-49"/>
      <use x="102.636719" xlink:href="#DejaVuSans-46"/>
      <use x="134.423828" xlink:href="#DejaVuSans-49"/>
      <use x="198.046875" xlink:href="#DejaVuSans-57"/>
      <use x="261.669922" xlink:href="#DejaVuSans-56"/>
      <use x="325.292969" xlink:href="#DejaVuSans-54"/>
      <use x="388.916016" xlink:href="#DejaVuSans-56"/>
      <use x="452.539062" xlink:href="#DejaVuSans-52"/>
      <use x="516.162109" xlink:href="#DejaVuSans-57"/>
      <use x="579.785156" xlink:href="#DejaVuSans-48"/>
      <use x="643.408203" xlink:href="#DejaVuSans-101"/>
      <use x="704.931641" xlink:href="#DejaVuSans-43"/>
      <use x="788.720703" xlink:href="#DejaVuSans-48"/>
      <use x="852.34375" xlink:href="#DejaVuSans-51"/>
      <use x="915.966797" xlink:href="#DejaVuSans-32"/>
      <use x="947.753906" xlink:href="#DejaVuSans-49"/>
      <use x="1011.376953" xlink:href="#DejaVuSans-46"/>
      <use x="1043.164062" xlink:href="#DejaVuSans-50"/>
      <use x="1106.787109" xlink:href="#DejaVuSans-50"/>
      <use x="1170.410156" xlink:href="#DejaVuSans-51"/>
      <use x="1234.033203" xlink:href="#DejaVuSans-56"/>
      <use x="1297.65625" xlink:href="#DejaVuSans-49"/>
      <use x="1361.279297" xlink:href="#DejaVuSans-56"/>
      <use x="1424.902344" xlink:href="#DejaVuSans-52"/>
      <use x="1488.525391" xlink:href="#DejaVuSans-56"/>
      <use x="1552.148438" xlink:href="#DejaVuSans-101"/>
      <use x="1613.671875" xlink:href="#DejaVuSans-43"/>
      <use x="1697.460938" xlink:href="#DejaVuSans-48"/>
      <use x="1761.083984" xlink:href="#DejaVuSans-48"/>
      <use x="1824.707031" xlink:href="#DejaVuSans-32"/>
      <use x="1856.494141" xlink:href="#DejaVuSans-57"/>
      <use x="1920.117188" xlink:href="#DejaVuSans-46"/>
      <use x="1951.904297" xlink:href="#DejaVuSans-48"/>
      <use x="2015.527344" xlink:href="#DejaVuSans-48"/>
      <use x="2079.150391" xlink:href="#DejaVuSans-48"/>
      <use x="2142.773438" xlink:href="#DejaVuSans-48"/>
      <use x="2206.396484" xlink:href="#DejaVuSans-48"/>
      <use x="2270.019531" xlink:href="#DejaVuSans-48"/>
      <use x="2333.642578" xlink:href="#DejaVuSans-48"/>
      <use x="2397.265625" xlink:href="#DejaVuSans-48"/>
      <use x="2460.888672" xlink:href="#DejaVuSans-101"/>
      <use x="2522.412109" xlink:href="#DejaVuSans-45"/>
      <use x="2558.496094" xlink:href="#DejaVuSans-48"/>
      <use x="2622.119141" xlink:href="#DejaVuSans-49"/>
      <use x="2685.742188" xlink:href="#DejaVuSans-93"/>
     </g>
    </g>
    <g id="line2d_41">
     <path d="M 66.6 171.995438 
L 86.6 171.995438 
" style="fill:none;stroke:#bcbd22;stroke-linecap:square;stroke-width:1.5;"/>
    </g>
    <g id="line2d_42"/>
    <g id="text_24">
     <!-- [1.19910088e+03 4.44244277e+01 8.50000000e-01] -->
     <g transform="translate(94.6 175.495438)scale(0.1 -0.1)">
      <use xlink:href="#DejaVuSans-91"/>
      <use x="39.013672" xlink:href="#DejaVuSans-49"/>
      <use x="102.636719" xlink:href="#DejaVuSans-46"/>
      <use x="134.423828" xlink:href="#DejaVuSans-49"/>
      <use x="198.046875" xlink:href="#DejaVuSans-57"/>
      <use x="261.669922" xlink:href="#DejaVuSans-57"/>
      <use x="325.292969" xlink:href="#DejaVuSans-49"/>
      <use x="388.916016" xlink:href="#DejaVuSans-48"/>
      <use x="452.539062" xlink:href="#DejaVuSans-48"/>
      <use x="516.162109" xlink:href="#DejaVuSans-56"/>
      <use x="579.785156" xlink:href="#DejaVuSans-56"/>
      <use x="643.408203" xlink:href="#DejaVuSans-101"/>
      <use x="704.931641" xlink:href="#DejaVuSans-43"/>
      <use x="788.720703" xlink:href="#DejaVuSans-48"/>
      <use x="852.34375" xlink:href="#DejaVuSans-51"/>
      <use x="915.966797" xlink:href="#DejaVuSans-32"/>
      <use x="947.753906" xlink:href="#DejaVuSans-52"/>
      <use x="1011.376953" xlink:href="#DejaVuSans-46"/>
      <use x="1043.164062" xlink:href="#DejaVuSans-52"/>
      <use x="1106.787109" xlink:href="#DejaVuSans-52"/>
      <use x="1170.410156" xlink:href="#DejaVuSans-50"/>
      <use x="1234.033203" xlink:href="#DejaVuSans-52"/>
      <use x="1297.65625" xlink:href="#DejaVuSans-52"/>
      <use x="1361.279297" xlink:href="#DejaVuSans-50"/>
      <use x="1424.902344" xlink:href="#DejaVuSans-55"/>
      <use x="1488.525391" xlink:href="#DejaVuSans-55"/>
      <use x="1552.148438" xlink:href="#DejaVuSans-101"/>
      <use x="1613.671875" xlink:href="#DejaVuSans-43"/>
      <use x="1697.460938" xlink:href="#DejaVuSans-48"/>
      <use x="1761.083984" xlink:href="#DejaVuSans-49"/>
      <use x="1824.707031" xlink:href="#DejaVuSans-32"/>
      <use x="1856.494141" xlink:href="#DejaVuSans-56"/>
      <use x="1920.117188" xlink:href="#DejaVuSans-46"/>
      <use x="1951.904297" xlink:href="#DejaVuSans-53"/>
      <use x="2015.527344" xlink:href="#DejaVuSans-48"/>
      <use x="2079.150391" xlink:href="#DejaVuSans-48"/>
      <use x="2142.773438" xlink:href="#DejaVuSans-48"/>
      <use x="2206.396484" xlink:href="#DejaVuSans-48"/>
      <use x="2270.019531" xlink:href="#DejaVuSans-48"/>
      <use x="2333.642578" xlink:href="#DejaVuSans-48"/>
      <use x="2397.265625" xlink:href="#DejaVuSans-48"/>
      <use x="2460.888672" xlink:href="#DejaVuSans-101"/>
      <use x="2522.412109" xlink:href="#DejaVuSans-45"/>
      <use x="2558.496094" xlink:href="#DejaVuSans-48"/>
      <use x="2622.119141" xlink:href="#DejaVuSans-49"/>
      <use x="2685.742188" xlink:href="#DejaVuSans-93"/>
     </g>
    </g>
   </g>
  </g>
 </g>
 <defs>
  <clipPath id="pca7a361b93">
   <rect height="266.112" width="357.12" x="57.6" y="41.472"/>
  </clipPath>
 </defs>
</svg>
