<?xml version="1.0" encoding="utf-8" standalone="no"?>
<!DOCTYPE svg PUBLIC "-//W3C//DTD SVG 1.1//EN"
  "http://www.w3.org/Graphics/SVG/1.1/DTD/svg11.dtd">
<!-- Created with matplotlib (https://matplotlib.org/) -->
<svg height="345.6pt" version="1.1" viewBox="0 0 460.8 345.6" width="460.8pt" xmlns="http://www.w3.org/2000/svg" xmlns:xlink="http://www.w3.org/1999/xlink">
 <defs>
  <style type="text/css">
*{stroke-linecap:butt;stroke-linejoin:round;}
  </style>
 </defs>
 <g id="figure_1">
  <g id="patch_1">
   <path d="M 0 345.6 
L 460.8 345.6 
L 460.8 0 
L 0 0 
z
" style="fill:#ffffff;"/>
  </g>
  <g id="axes_1">
   <g id="patch_2">
    <path d="M 50.87 294.53875 
L 450 294.53875 
L 450 10.8 
L 50.87 10.8 
z
" style="fill:#ffffff;"/>
   </g>
   <g id="patch_3">
    <path clip-path="url(#p048f45e903)" d="M 69.012273 294.53875 
L 71.248608 294.53875 
L 71.248608 157.797843 
L 69.012273 157.797843 
z
" style="fill:#1f77b4;"/>
   </g>
   <g id="patch_4">
    <path clip-path="url(#p048f45e903)" d="M 71.807692 294.53875 
L 74.044028 294.53875 
L 74.044028 267.190569 
L 71.807692 267.190569 
z
" style="fill:#1f77b4;"/>
   </g>
   <g id="patch_5">
    <path clip-path="url(#p048f45e903)" d="M 74.603112 294.53875 
L 76.839447 294.53875 
L 76.839447 267.190569 
L 74.603112 267.190569 
z
" style="fill:#1f77b4;"/>
   </g>
   <g id="patch_6">
    <path clip-path="url(#p048f45e903)" d="M 77.398531 294.53875 
L 79.634867 294.53875 
L 79.634867 112.216629 
L 77.398531 112.216629 
z
" style="fill:#1f77b4;"/>
   </g>
   <g id="patch_7">
    <path clip-path="url(#p048f45e903)" d="M 80.193951 294.53875 
L 82.430286 294.53875 
L 82.430286 226.168296 
L 80.193951 226.168296 
z
" style="fill:#1f77b4;"/>
   </g>
   <g id="patch_8">
    <path clip-path="url(#p048f45e903)" d="M 82.98937 294.53875 
L 85.225706 294.53875 
L 85.225706 130.449661 
L 82.98937 130.449661 
z
" style="fill:#1f77b4;"/>
   </g>
   <g id="patch_9">
    <path clip-path="url(#p048f45e903)" d="M 85.78479 294.53875 
L 88.021126 294.53875 
L 88.021126 216.402261 
L 85.78479 216.402261 
z
" style="fill:#1f77b4;"/>
   </g>
   <g id="patch_10">
    <path clip-path="url(#p048f45e903)" d="M 88.580209 294.53875 
L 90.816545 294.53875 
L 90.816545 157.797843 
L 88.580209 157.797843 
z
" style="fill:#1f77b4;"/>
   </g>
   <g id="patch_11">
    <path clip-path="url(#p048f45e903)" d="M 91.375629 294.53875 
L 93.611965 294.53875 
L 93.611965 226.168296 
L 91.375629 226.168296 
z
" style="fill:#1f77b4;"/>
   </g>
   <g id="patch_12">
    <path clip-path="url(#p048f45e903)" d="M 94.171048 294.53875 
L 96.407384 294.53875 
L 96.407384 195.089823 
L 94.171048 195.089823 
z
" style="fill:#1f77b4;"/>
   </g>
   <g id="patch_13">
    <path clip-path="url(#p048f45e903)" d="M 96.966468 294.53875 
L 99.202804 294.53875 
L 99.202804 226.168296 
L 96.966468 226.168296 
z
" style="fill:#1f77b4;"/>
   </g>
   <g id="patch_14">
    <path clip-path="url(#p048f45e903)" d="M 99.761888 294.53875 
L 101.998223 294.53875 
L 101.998223 208.175928 
L 99.761888 208.175928 
z
" style="fill:#1f77b4;"/>
   </g>
   <g id="patch_15">
    <path clip-path="url(#p048f45e903)" d="M 102.557307 294.53875 
L 104.793643 294.53875 
L 104.793643 239.842387 
L 102.557307 239.842387 
z
" style="fill:#1f77b4;"/>
   </g>
   <g id="patch_16">
    <path clip-path="url(#p048f45e903)" d="M 105.352727 294.53875 
L 107.589062 294.53875 
L 107.589062 242.445934 
L 105.352727 242.445934 
z
" style="fill:#1f77b4;"/>
   </g>
   <g id="patch_17">
    <path clip-path="url(#p048f45e903)" d="M 108.148146 294.53875 
L 110.384482 294.53875 
L 110.384482 246.977528 
L 108.148146 246.977528 
z
" style="fill:#1f77b4;"/>
   </g>
   <g id="patch_18">
    <path clip-path="url(#p048f45e903)" d="M 110.943566 294.53875 
L 113.179901 294.53875 
L 113.179901 239.842387 
L 110.943566 239.842387 
z
" style="fill:#1f77b4;"/>
   </g>
   <g id="patch_19">
    <path clip-path="url(#p048f45e903)" d="M 113.738985 294.53875 
L 115.975321 294.53875 
L 115.975321 235.934332 
L 113.738985 235.934332 
z
" style="fill:#1f77b4;"/>
   </g>
   <g id="patch_20">
    <path clip-path="url(#p048f45e903)" d="M 116.534405 294.53875 
L 118.77074 294.53875 
L 118.77074 247.38775 
L 116.534405 247.38775 
z
" style="fill:#1f77b4;"/>
   </g>
   <g id="patch_21">
    <path clip-path="url(#p048f45e903)" d="M 119.329824 294.53875 
L 121.56616 294.53875 
L 121.56616 179.389232 
L 119.329824 179.389232 
z
" style="fill:#1f77b4;"/>
   </g>
   <g id="patch_22">
    <path clip-path="url(#p048f45e903)" d="M 122.125244 294.53875 
L 124.361579 294.53875 
L 124.361579 203.379057 
L 122.125244 203.379057 
z
" style="fill:#1f77b4;"/>
   </g>
   <g id="patch_23">
    <path clip-path="url(#p048f45e903)" d="M 124.920663 294.53875 
L 127.156999 294.53875 
L 127.156999 229.141044 
L 124.920663 229.141044 
z
" style="fill:#1f77b4;"/>
   </g>
   <g id="patch_24">
    <path clip-path="url(#p048f45e903)" d="M 127.716083 294.53875 
L 129.952418 294.53875 
L 129.952418 199.87302 
L 127.716083 199.87302 
z
" style="fill:#1f77b4;"/>
   </g>
   <g id="patch_25">
    <path clip-path="url(#p048f45e903)" d="M 130.511502 294.53875 
L 132.747838 294.53875 
L 132.747838 233.240536 
L 130.511502 233.240536 
z
" style="fill:#1f77b4;"/>
   </g>
   <g id="patch_26">
    <path clip-path="url(#p048f45e903)" d="M 133.306922 294.53875 
L 135.543257 294.53875 
L 135.543257 209.075683 
L 133.306922 209.075683 
z
" style="fill:#1f77b4;"/>
   </g>
   <g id="patch_27">
    <path clip-path="url(#p048f45e903)" d="M 136.102341 294.53875 
L 138.338677 294.53875 
L 138.338677 216.930081 
L 136.102341 216.930081 
z
" style="fill:#1f77b4;"/>
   </g>
   <g id="patch_28">
    <path clip-path="url(#p048f45e903)" d="M 138.897761 294.53875 
L 141.134097 294.53875 
L 141.134097 166.912992 
L 138.897761 166.912992 
z
" style="fill:#1f77b4;"/>
   </g>
   <g id="patch_29">
    <path clip-path="url(#p048f45e903)" d="M 141.69318 294.53875 
L 143.929516 294.53875 
L 143.929516 205.744674 
L 141.69318 205.744674 
z
" style="fill:#1f77b4;"/>
   </g>
   <g id="patch_30">
    <path clip-path="url(#p048f45e903)" d="M 144.4886 294.53875 
L 146.724936 294.53875 
L 146.724936 215.912728 
L 144.4886 215.912728 
z
" style="fill:#1f77b4;"/>
   </g>
   <g id="patch_31">
    <path clip-path="url(#p048f45e903)" d="M 147.284019 294.53875 
L 149.520355 294.53875 
L 149.520355 202.238638 
L 147.284019 202.238638 
z
" style="fill:#1f77b4;"/>
   </g>
   <g id="patch_32">
    <path clip-path="url(#p048f45e903)" d="M 150.079439 294.53875 
L 152.315775 294.53875 
L 152.315775 207.825871 
L 150.079439 207.825871 
z
" style="fill:#1f77b4;"/>
   </g>
   <g id="patch_33">
    <path clip-path="url(#p048f45e903)" d="M 152.874859 294.53875 
L 155.111194 294.53875 
L 155.111194 50.710569 
L 152.874859 50.710569 
z
" style="fill:#1f77b4;"/>
   </g>
   <g id="patch_34">
    <path clip-path="url(#p048f45e903)" d="M 155.670278 294.53875 
L 157.906614 294.53875 
L 157.906614 267.190569 
L 155.670278 267.190569 
z
" style="fill:#1f77b4;"/>
   </g>
   <g id="patch_35">
    <path clip-path="url(#p048f45e903)" d="M 158.465698 294.53875 
L 160.702033 294.53875 
L 160.702033 267.190569 
L 158.465698 267.190569 
z
" style="fill:#1f77b4;"/>
   </g>
   <g id="patch_36">
    <path clip-path="url(#p048f45e903)" d="M 161.261117 294.53875 
L 163.497453 294.53875 
L 163.497453 205.575116 
L 161.261117 205.575116 
z
" style="fill:#1f77b4;"/>
   </g>
   <g id="patch_37">
    <path clip-path="url(#p048f45e903)" d="M 164.056537 294.53875 
L 166.292872 294.53875 
L 166.292872 77.755185 
L 164.056537 77.755185 
z
" style="fill:#1f77b4;"/>
   </g>
   <g id="patch_38">
    <path clip-path="url(#p048f45e903)" d="M 166.851956 294.53875 
L 169.088292 294.53875 
L 169.088292 145.682598 
L 166.851956 145.682598 
z
" style="fill:#1f77b4;"/>
   </g>
   <g id="patch_39">
    <path clip-path="url(#p048f45e903)" d="M 169.647376 294.53875 
L 171.883711 294.53875 
L 171.883711 108.710592 
L 169.647376 108.710592 
z
" style="fill:#1f77b4;"/>
   </g>
   <g id="patch_40">
    <path clip-path="url(#p048f45e903)" d="M 172.442795 294.53875 
L 174.679131 294.53875 
L 174.679131 232.225919 
L 172.442795 232.225919 
z
" style="fill:#1f77b4;"/>
   </g>
   <g id="patch_41">
    <path clip-path="url(#p048f45e903)" d="M 175.238215 294.53875 
L 177.47455 294.53875 
L 177.47455 189.352174 
L 175.238215 189.352174 
z
" style="fill:#1f77b4;"/>
   </g>
   <g id="patch_42">
    <path clip-path="url(#p048f45e903)" d="M 178.033634 294.53875 
L 180.26997 294.53875 
L 180.26997 138.263037 
L 178.033634 138.263037 
z
" style="fill:#1f77b4;"/>
   </g>
   <g id="patch_43">
    <path clip-path="url(#p048f45e903)" d="M 180.829054 294.53875 
L 183.065389 294.53875 
L 183.065389 191.14895 
L 180.829054 191.14895 
z
" style="fill:#1f77b4;"/>
   </g>
   <g id="patch_44">
    <path clip-path="url(#p048f45e903)" d="M 183.624473 294.53875 
L 185.860809 294.53875 
L 185.860809 213.232607 
L 183.624473 213.232607 
z
" style="fill:#1f77b4;"/>
   </g>
   <g id="patch_45">
    <path clip-path="url(#p048f45e903)" d="M 186.419893 294.53875 
L 188.656228 294.53875 
L 188.656228 202.145654 
L 186.419893 202.145654 
z
" style="fill:#1f77b4;"/>
   </g>
   <g id="patch_46">
    <path clip-path="url(#p048f45e903)" d="M 189.215312 294.53875 
L 191.451648 294.53875 
L 191.451648 225.345116 
L 189.215312 225.345116 
z
" style="fill:#1f77b4;"/>
   </g>
   <g id="patch_47">
    <path clip-path="url(#p048f45e903)" d="M 192.010732 294.53875 
L 194.247068 294.53875 
L 194.247068 167.563878 
L 192.010732 167.563878 
z
" style="fill:#1f77b4;"/>
   </g>
   <g id="patch_48">
    <path clip-path="url(#p048f45e903)" d="M 194.806151 294.53875 
L 197.042487 294.53875 
L 197.042487 131.751435 
L 194.806151 131.751435 
z
" style="fill:#1f77b4;"/>
   </g>
   <g id="patch_49">
    <path clip-path="url(#p048f45e903)" d="M 197.601571 294.53875 
L 199.837907 294.53875 
L 199.837907 200.121888 
L 197.601571 200.121888 
z
" style="fill:#1f77b4;"/>
   </g>
   <g id="patch_50">
    <path clip-path="url(#p048f45e903)" d="M 200.39699 294.53875 
L 202.633326 294.53875 
L 202.633326 115.473797 
L 200.39699 115.473797 
z
" style="fill:#1f77b4;"/>
   </g>
   <g id="patch_51">
    <path clip-path="url(#p048f45e903)" d="M 203.19241 294.53875 
L 205.428746 294.53875 
L 205.428746 157.797843 
L 203.19241 157.797843 
z
" style="fill:#1f77b4;"/>
   </g>
   <g id="patch_52">
    <path clip-path="url(#p048f45e903)" d="M 205.98783 294.53875 
L 208.224165 294.53875 
L 208.224165 267.190569 
L 205.98783 267.190569 
z
" style="fill:#1f77b4;"/>
   </g>
   <g id="patch_53">
    <path clip-path="url(#p048f45e903)" d="M 208.783249 294.53875 
L 211.019585 294.53875 
L 211.019585 157.797843 
L 208.783249 157.797843 
z
" style="fill:#1f77b4;"/>
   </g>
   <g id="patch_54">
    <path clip-path="url(#p048f45e903)" d="M 211.578669 294.53875 
L 213.815004 294.53875 
L 213.815004 170.821047 
L 211.578669 170.821047 
z
" style="fill:#1f77b4;"/>
   </g>
   <g id="patch_55">
    <path clip-path="url(#p048f45e903)" d="M 214.374088 294.53875 
L 216.610424 294.53875 
L 216.610424 174.07548 
L 214.374088 174.07548 
z
" style="fill:#1f77b4;"/>
   </g>
   <g id="patch_56">
    <path clip-path="url(#p048f45e903)" d="M 217.169508 294.53875 
L 219.405843 294.53875 
L 219.405843 125.239833 
L 217.169508 125.239833 
z
" style="fill:#1f77b4;"/>
   </g>
   <g id="patch_57">
    <path clip-path="url(#p048f45e903)" d="M 219.964927 294.53875 
L 222.201263 294.53875 
L 222.201263 128.497001 
L 219.964927 128.497001 
z
" style="fill:#1f77b4;"/>
   </g>
   <g id="patch_58">
    <path clip-path="url(#p048f45e903)" d="M 222.760347 294.53875 
L 224.996682 294.53875 
L 224.996682 24.311369 
L 222.760347 24.311369 
z
" style="fill:#1f77b4;"/>
   </g>
   <g id="patch_59">
    <path clip-path="url(#p048f45e903)" d="M 225.555766 294.53875 
L 227.792102 294.53875 
L 227.792102 86.172955 
L 225.555766 86.172955 
z
" style="fill:#1f77b4;"/>
   </g>
   <g id="patch_60">
    <path clip-path="url(#p048f45e903)" d="M 228.351186 294.53875 
L 230.587521 294.53875 
L 230.587521 154.543409 
L 228.351186 154.543409 
z
" style="fill:#1f77b4;"/>
   </g>
   <g id="patch_61">
    <path clip-path="url(#p048f45e903)" d="M 231.146605 294.53875 
L 233.382941 294.53875 
L 233.382941 170.821047 
L 231.146605 170.821047 
z
" style="fill:#1f77b4;"/>
   </g>
   <g id="patch_62">
    <path clip-path="url(#p048f45e903)" d="M 233.942025 294.53875 
L 236.17836 294.53875 
L 236.17836 183.844251 
L 233.942025 183.844251 
z
" style="fill:#1f77b4;"/>
   </g>
   <g id="patch_63">
    <path clip-path="url(#p048f45e903)" d="M 236.737444 294.53875 
L 238.97378 294.53875 
L 238.97378 222.913863 
L 236.737444 222.913863 
z
" style="fill:#1f77b4;"/>
   </g>
   <g id="patch_64">
    <path clip-path="url(#p048f45e903)" d="M 239.532864 294.53875 
L 241.769199 294.53875 
L 241.769199 214.496093 
L 239.532864 214.496093 
z
" style="fill:#1f77b4;"/>
   </g>
   <g id="patch_65">
    <path clip-path="url(#p048f45e903)" d="M 242.328283 294.53875 
L 244.564619 294.53875 
L 244.564619 211.159614 
L 242.328283 211.159614 
z
" style="fill:#1f77b4;"/>
   </g>
   <g id="patch_66">
    <path clip-path="url(#p048f45e903)" d="M 245.123703 294.53875 
L 247.360039 294.53875 
L 247.360039 200.121888 
L 245.123703 200.121888 
z
" style="fill:#1f77b4;"/>
   </g>
   <g id="patch_67">
    <path clip-path="url(#p048f45e903)" d="M 247.919122 294.53875 
L 250.155458 294.53875 
L 250.155458 219.656694 
L 247.919122 219.656694 
z
" style="fill:#1f77b4;"/>
   </g>
   <g id="patch_68">
    <path clip-path="url(#p048f45e903)" d="M 250.714542 294.53875 
L 252.950878 294.53875 
L 252.950878 63.380981 
L 250.714542 63.380981 
z
" style="fill:#1f77b4;"/>
   </g>
   <g id="patch_69">
    <path clip-path="url(#p048f45e903)" d="M 253.509961 294.53875 
L 255.746297 294.53875 
L 255.746297 128.497001 
L 253.509961 128.497001 
z
" style="fill:#1f77b4;"/>
   </g>
   <g id="patch_70">
    <path clip-path="url(#p048f45e903)" d="M 256.305381 294.53875 
L 258.541717 294.53875 
L 258.541717 118.728231 
L 256.305381 118.728231 
z
" style="fill:#1f77b4;"/>
   </g>
   <g id="patch_71">
    <path clip-path="url(#p048f45e903)" d="M 259.100801 294.53875 
L 261.337136 294.53875 
L 261.337136 89.427389 
L 259.100801 89.427389 
z
" style="fill:#1f77b4;"/>
   </g>
   <g id="patch_72">
    <path clip-path="url(#p048f45e903)" d="M 261.89622 294.53875 
L 264.132556 294.53875 
L 264.132556 50.357777 
L 261.89622 50.357777 
z
" style="fill:#1f77b4;"/>
   </g>
   <g id="patch_73">
    <path clip-path="url(#p048f45e903)" d="M 264.69164 294.53875 
L 266.927975 294.53875 
L 266.927975 148.031807 
L 264.69164 148.031807 
z
" style="fill:#1f77b4;"/>
   </g>
   <g id="patch_74">
    <path clip-path="url(#p048f45e903)" d="M 267.487059 294.53875 
L 269.723395 294.53875 
L 269.723395 205.575116 
L 267.487059 205.575116 
z
" style="fill:#1f77b4;"/>
   </g>
   <g id="patch_75">
    <path clip-path="url(#p048f45e903)" d="M 270.282479 294.53875 
L 272.518814 294.53875 
L 272.518814 206.63349 
L 270.282479 206.63349 
z
" style="fill:#1f77b4;"/>
   </g>
   <g id="patch_76">
    <path clip-path="url(#p048f45e903)" d="M 273.077898 294.53875 
L 275.314234 294.53875 
L 275.314234 219.656694 
L 273.077898 219.656694 
z
" style="fill:#1f77b4;"/>
   </g>
   <g id="patch_77">
    <path clip-path="url(#p048f45e903)" d="M 275.873318 294.53875 
L 278.109653 294.53875 
L 278.109653 60.126547 
L 275.873318 60.126547 
z
" style="fill:#1f77b4;"/>
   </g>
   <g id="patch_78">
    <path clip-path="url(#p048f45e903)" d="M 278.668737 294.53875 
L 280.905073 294.53875 
L 280.905073 164.309445 
L 278.668737 164.309445 
z
" style="fill:#1f77b4;"/>
   </g>
   <g id="patch_79">
    <path clip-path="url(#p048f45e903)" d="M 281.464157 294.53875 
L 283.700492 294.53875 
L 283.700492 69.892583 
L 281.464157 69.892583 
z
" style="fill:#1f77b4;"/>
   </g>
   <g id="patch_80">
    <path clip-path="url(#p048f45e903)" d="M 284.259576 294.53875 
L 286.495912 294.53875 
L 286.495912 135.008603 
L 284.259576 135.008603 
z
" style="fill:#1f77b4;"/>
   </g>
   <g id="patch_81">
    <path clip-path="url(#p048f45e903)" d="M 287.054996 294.53875 
L 289.291331 294.53875 
L 289.291331 213.145092 
L 287.054996 213.145092 
z
" style="fill:#1f77b4;"/>
   </g>
   <g id="patch_82">
    <path clip-path="url(#p048f45e903)" d="M 289.850415 294.53875 
L 292.086751 294.53875 
L 292.086751 40.591741 
L 289.850415 40.591741 
z
" style="fill:#1f77b4;"/>
   </g>
   <g id="patch_83">
    <path clip-path="url(#p048f45e903)" d="M 292.645835 294.53875 
L 294.88217 294.53875 
L 294.88217 235.934332 
L 292.645835 235.934332 
z
" style="fill:#1f77b4;"/>
   </g>
   <g id="patch_84">
    <path clip-path="url(#p048f45e903)" d="M 295.441254 294.53875 
L 297.67759 294.53875 
L 297.67759 177.332649 
L 295.441254 177.332649 
z
" style="fill:#1f77b4;"/>
   </g>
   <g id="patch_85">
    <path clip-path="url(#p048f45e903)" d="M 298.236674 294.53875 
L 300.47301 294.53875 
L 300.47301 43.846175 
L 298.236674 43.846175 
z
" style="fill:#1f77b4;"/>
   </g>
   <g id="patch_86">
    <path clip-path="url(#p048f45e903)" d="M 301.032093 294.53875 
L 303.268429 294.53875 
L 303.268429 50.357777 
L 301.032093 50.357777 
z
" style="fill:#1f77b4;"/>
   </g>
   <g id="patch_87">
    <path clip-path="url(#p048f45e903)" d="M 303.827513 294.53875 
L 306.063849 294.53875 
L 306.063849 209.890659 
L 303.827513 209.890659 
z
" style="fill:#1f77b4;"/>
   </g>
   <g id="patch_88">
    <path clip-path="url(#p048f45e903)" d="M 306.622932 294.53875 
L 308.859268 294.53875 
L 308.859268 170.821047 
L 306.622932 170.821047 
z
" style="fill:#1f77b4;"/>
   </g>
   <g id="patch_89">
    <path clip-path="url(#p048f45e903)" d="M 309.418352 294.53875 
L 311.654688 294.53875 
L 311.654688 80.366937 
L 309.418352 80.366937 
z
" style="fill:#1f77b4;"/>
   </g>
   <g id="patch_90">
    <path clip-path="url(#p048f45e903)" d="M 312.213772 294.53875 
L 314.450107 294.53875 
L 314.450107 56.869379 
L 312.213772 56.869379 
z
" style="fill:#1f77b4;"/>
   </g>
   <g id="patch_91">
    <path clip-path="url(#p048f45e903)" d="M 315.009191 294.53875 
L 317.245527 294.53875 
L 317.245527 69.892583 
L 315.009191 69.892583 
z
" style="fill:#1f77b4;"/>
   </g>
   <g id="patch_92">
    <path clip-path="url(#p048f45e903)" d="M 317.804611 294.53875 
L 320.040946 294.53875 
L 320.040946 82.915787 
L 317.804611 82.915787 
z
" style="fill:#1f77b4;"/>
   </g>
   <g id="patch_93">
    <path clip-path="url(#p048f45e903)" d="M 320.60003 294.53875 
L 322.836366 294.53875 
L 322.836366 190.355853 
L 320.60003 190.355853 
z
" style="fill:#1f77b4;"/>
   </g>
   <g id="patch_94">
    <path clip-path="url(#p048f45e903)" d="M 323.39545 294.53875 
L 325.631785 294.53875 
L 325.631785 105.705027 
L 323.39545 105.705027 
z
" style="fill:#1f77b4;"/>
   </g>
   <g id="patch_95">
    <path clip-path="url(#p048f45e903)" d="M 326.190869 294.53875 
L 328.427205 294.53875 
L 328.427205 102.450593 
L 326.190869 102.450593 
z
" style="fill:#1f77b4;"/>
   </g>
   <g id="patch_96">
    <path clip-path="url(#p048f45e903)" d="M 328.986289 294.53875 
L 331.222624 294.53875 
L 331.222624 144.774639 
L 328.986289 144.774639 
z
" style="fill:#1f77b4;"/>
   </g>
   <g id="patch_97">
    <path clip-path="url(#p048f45e903)" d="M 331.781708 294.53875 
L 334.018044 294.53875 
L 334.018044 47.103343 
L 331.781708 47.103343 
z
" style="fill:#1f77b4;"/>
   </g>
   <g id="patch_98">
    <path clip-path="url(#p048f45e903)" d="M 334.577128 294.53875 
L 336.813463 294.53875 
L 336.813463 235.934332 
L 334.577128 235.934332 
z
" style="fill:#1f77b4;"/>
   </g>
   <g id="patch_99">
    <path clip-path="url(#p048f45e903)" d="M 337.372547 294.53875 
L 339.608883 294.53875 
L 339.608883 193.610286 
L 337.372547 193.610286 
z
" style="fill:#1f77b4;"/>
   </g>
   <g id="patch_100">
    <path clip-path="url(#p048f45e903)" d="M 340.167967 294.53875 
L 342.404302 294.53875 
L 342.404302 193.610286 
L 340.167967 193.610286 
z
" style="fill:#1f77b4;"/>
   </g>
   <g id="patch_101">
    <path clip-path="url(#p048f45e903)" d="M 342.963386 294.53875 
L 345.199722 294.53875 
L 345.199722 151.286241 
L 342.963386 151.286241 
z
" style="fill:#1f77b4;"/>
   </g>
   <g id="patch_102">
    <path clip-path="url(#p048f45e903)" d="M 345.758806 294.53875 
L 347.995141 294.53875 
L 347.995141 102.450593 
L 345.758806 102.450593 
z
" style="fill:#1f77b4;"/>
   </g>
   <g id="patch_103">
    <path clip-path="url(#p048f45e903)" d="M 348.554225 294.53875 
L 350.790561 294.53875 
L 350.790561 180.587082 
L 348.554225 180.587082 
z
" style="fill:#1f77b4;"/>
   </g>
   <g id="patch_104">
    <path clip-path="url(#p048f45e903)" d="M 351.349645 294.53875 
L 353.585981 294.53875 
L 353.585981 131.751435 
L 351.349645 131.751435 
z
" style="fill:#1f77b4;"/>
   </g>
   <g id="patch_105">
    <path clip-path="url(#p048f45e903)" d="M 354.145064 294.53875 
L 356.3814 294.53875 
L 356.3814 213.145092 
L 354.145064 213.145092 
z
" style="fill:#1f77b4;"/>
   </g>
   <g id="patch_106">
    <path clip-path="url(#p048f45e903)" d="M 356.940484 294.53875 
L 359.17682 294.53875 
L 359.17682 135.008603 
L 356.940484 135.008603 
z
" style="fill:#1f77b4;"/>
   </g>
   <g id="patch_107">
    <path clip-path="url(#p048f45e903)" d="M 359.735903 294.53875 
L 361.972239 294.53875 
L 361.972239 141.520205 
L 359.735903 141.520205 
z
" style="fill:#1f77b4;"/>
   </g>
   <g id="patch_108">
    <path clip-path="url(#p048f45e903)" d="M 362.531323 294.53875 
L 364.767659 294.53875 
L 364.767659 40.591741 
L 362.531323 40.591741 
z
" style="fill:#1f77b4;"/>
   </g>
   <g id="patch_109">
    <path clip-path="url(#p048f45e903)" d="M 365.326743 294.53875 
L 367.563078 294.53875 
L 367.563078 235.934332 
L 365.326743 235.934332 
z
" style="fill:#1f77b4;"/>
   </g>
   <g id="patch_110">
    <path clip-path="url(#p048f45e903)" d="M 368.122162 294.53875 
L 370.358498 294.53875 
L 370.358498 56.869379 
L 368.122162 56.869379 
z
" style="fill:#1f77b4;"/>
   </g>
   <g id="patch_111">
    <path clip-path="url(#p048f45e903)" d="M 370.917582 294.53875 
L 373.153917 294.53875 
L 373.153917 267.190569 
L 370.917582 267.190569 
z
" style="fill:#1f77b4;"/>
   </g>
   <g id="patch_112">
    <path clip-path="url(#p048f45e903)" d="M 373.713001 294.53875 
L 375.949337 294.53875 
L 375.949337 112.216629 
L 373.713001 112.216629 
z
" style="fill:#1f77b4;"/>
   </g>
   <g id="patch_113">
    <path clip-path="url(#p048f45e903)" d="M 376.508421 294.53875 
L 378.744756 294.53875 
L 378.744756 43.846175 
L 376.508421 43.846175 
z
" style="fill:#1f77b4;"/>
   </g>
   <g id="patch_114">
    <path clip-path="url(#p048f45e903)" d="M 379.30384 294.53875 
L 381.540176 294.53875 
L 381.540176 128.497001 
L 379.30384 128.497001 
z
" style="fill:#1f77b4;"/>
   </g>
   <g id="patch_115">
    <path clip-path="url(#p048f45e903)" d="M 382.09926 294.53875 
L 384.335595 294.53875 
L 384.335595 43.846175 
L 382.09926 43.846175 
z
" style="fill:#1f77b4;"/>
   </g>
   <g id="patch_116">
    <path clip-path="url(#p048f45e903)" d="M 384.894679 294.53875 
L 387.131015 294.53875 
L 387.131015 73.149751 
L 384.894679 73.149751 
z
" style="fill:#1f77b4;"/>
   </g>
   <g id="patch_117">
    <path clip-path="url(#p048f45e903)" d="M 387.690099 294.53875 
L 389.926434 294.53875 
L 389.926434 63.380981 
L 387.690099 63.380981 
z
" style="fill:#1f77b4;"/>
   </g>
   <g id="patch_118">
    <path clip-path="url(#p048f45e903)" d="M 390.485518 294.53875 
L 392.721854 294.53875 
L 392.721854 142.969659 
L 390.485518 142.969659 
z
" style="fill:#1f77b4;"/>
   </g>
   <g id="patch_119">
    <path clip-path="url(#p048f45e903)" d="M 393.280938 294.53875 
L 395.517273 294.53875 
L 395.517273 148.682694 
L 393.280938 148.682694 
z
" style="fill:#1f77b4;"/>
   </g>
   <g id="patch_120">
    <path clip-path="url(#p048f45e903)" d="M 396.076357 294.53875 
L 398.312693 294.53875 
L 398.312693 50.508192 
L 396.076357 50.508192 
z
" style="fill:#1f77b4;"/>
   </g>
   <g id="patch_121">
    <path clip-path="url(#p048f45e903)" d="M 398.871777 294.53875 
L 401.108112 294.53875 
L 401.108112 186.012962 
L 398.871777 186.012962 
z
" style="fill:#1f77b4;"/>
   </g>
   <g id="patch_122">
    <path clip-path="url(#p048f45e903)" d="M 401.667196 294.53875 
L 403.903532 294.53875 
L 403.903532 39.599002 
L 401.667196 39.599002 
z
" style="fill:#1f77b4;"/>
   </g>
   <g id="patch_123">
    <path clip-path="url(#p048f45e903)" d="M 404.462616 294.53875 
L 406.698952 294.53875 
L 406.698952 107.419758 
L 404.462616 107.419758 
z
" style="fill:#1f77b4;"/>
   </g>
   <g id="patch_124">
    <path clip-path="url(#p048f45e903)" d="M 407.258035 294.53875 
L 409.494371 294.53875 
L 409.494371 136.206453 
L 407.258035 136.206453 
z
" style="fill:#1f77b4;"/>
   </g>
   <g id="patch_125">
    <path clip-path="url(#p048f45e903)" d="M 410.053455 294.53875 
L 412.289791 294.53875 
L 412.289791 162.682228 
L 410.053455 162.682228 
z
" style="fill:#1f77b4;"/>
   </g>
   <g id="patch_126">
    <path clip-path="url(#p048f45e903)" d="M 412.848874 294.53875 
L 415.08521 294.53875 
L 415.08521 65.008198 
L 412.848874 65.008198 
z
" style="fill:#1f77b4;"/>
   </g>
   <g id="patch_127">
    <path clip-path="url(#p048f45e903)" d="M 415.644294 294.53875 
L 417.88063 294.53875 
L 417.88063 60.834865 
L 415.644294 60.834865 
z
" style="fill:#1f77b4;"/>
   </g>
   <g id="patch_128">
    <path clip-path="url(#p048f45e903)" d="M 418.439714 294.53875 
L 420.676049 294.53875 
L 420.676049 26.028835 
L 418.439714 26.028835 
z
" style="fill:#1f77b4;"/>
   </g>
   <g id="patch_129">
    <path clip-path="url(#p048f45e903)" d="M 421.235133 294.53875 
L 423.471469 294.53875 
L 423.471469 31.000734 
L 421.235133 31.000734 
z
" style="fill:#1f77b4;"/>
   </g>
   <g id="patch_130">
    <path clip-path="url(#p048f45e903)" d="M 424.030553 294.53875 
L 426.266888 294.53875 
L 426.266888 218.89368 
L 424.030553 218.89368 
z
" style="fill:#1f77b4;"/>
   </g>
   <g id="patch_131">
    <path clip-path="url(#p048f45e903)" d="M 426.825972 294.53875 
L 429.062308 294.53875 
L 429.062308 129.011147 
L 426.825972 129.011147 
z
" style="fill:#1f77b4;"/>
   </g>
   <g id="patch_132">
    <path clip-path="url(#p048f45e903)" d="M 429.621392 294.53875 
L 431.857727 294.53875 
L 431.857727 42.935481 
L 429.621392 42.935481 
z
" style="fill:#1f77b4;"/>
   </g>
   <g id="matplotlib.axis_1">
    <g id="xtick_1">
     <g id="line2d_1">
      <defs>
       <path d="M 0 0 
L 0 3.5 
" id="mdeceec59ad" style="stroke:#000000;stroke-width:0.8;"/>
      </defs>
      <g>
       <use style="stroke:#000000;stroke-width:0.8;" x="70.130441" xlink:href="#mdeceec59ad" y="294.53875"/>
      </g>
     </g>
     <g id="text_1">
      <!-- 40 -->
      <defs>
       <path d="M 37.796875 64.3125 
L 12.890625 25.390625 
L 37.796875 25.390625 
z
M 35.203125 72.90625 
L 47.609375 72.90625 
L 47.609375 25.390625 
L 58.015625 25.390625 
L 58.015625 17.1875 
L 47.609375 17.1875 
L 47.609375 0 
L 37.796875 0 
L 37.796875 17.1875 
L 4.890625 17.1875 
L 4.890625 26.703125 
z
" id="DejaVuSans-52"/>
       <path d="M 31.78125 66.40625 
Q 24.171875 66.40625 20.328125 58.90625 
Q 16.5 51.421875 16.5 36.375 
Q 16.5 21.390625 20.328125 13.890625 
Q 24.171875 6.390625 31.78125 6.390625 
Q 39.453125 6.390625 43.28125 13.890625 
Q 47.125 21.390625 47.125 36.375 
Q 47.125 51.421875 43.28125 58.90625 
Q 39.453125 66.40625 31.78125 66.40625 
z
M 31.78125 74.21875 
Q 44.046875 74.21875 50.515625 64.515625 
Q 56.984375 54.828125 56.984375 36.375 
Q 56.984375 17.96875 50.515625 8.265625 
Q 44.046875 -1.421875 31.78125 -1.421875 
Q 19.53125 -1.421875 13.0625 8.265625 
Q 6.59375 17.96875 6.59375 36.375 
Q 6.59375 54.828125 13.0625 64.515625 
Q 19.53125 74.21875 31.78125 74.21875 
z
" id="DejaVuSans-48"/>
      </defs>
      <g transform="translate(72.889816 314.26375)rotate(-90)scale(0.1 -0.1)">
       <use xlink:href="#DejaVuSans-52"/>
       <use x="63.623047" xlink:href="#DejaVuSans-48"/>
      </g>
     </g>
    </g>
    <g id="xtick_2">
     <g id="line2d_2">
      <g>
       <use style="stroke:#000000;stroke-width:0.8;" x="126.038831" xlink:href="#mdeceec59ad" y="294.53875"/>
      </g>
     </g>
     <g id="text_2">
      <!-- 60 -->
      <defs>
       <path d="M 33.015625 40.375 
Q 26.375 40.375 22.484375 35.828125 
Q 18.609375 31.296875 18.609375 23.390625 
Q 18.609375 15.53125 22.484375 10.953125 
Q 26.375 6.390625 33.015625 6.390625 
Q 39.65625 6.390625 43.53125 10.953125 
Q 47.40625 15.53125 47.40625 23.390625 
Q 47.40625 31.296875 43.53125 35.828125 
Q 39.65625 40.375 33.015625 40.375 
z
M 52.59375 71.296875 
L 52.59375 62.3125 
Q 48.875 64.0625 45.09375 64.984375 
Q 41.3125 65.921875 37.59375 65.921875 
Q 27.828125 65.921875 22.671875 59.328125 
Q 17.53125 52.734375 16.796875 39.40625 
Q 19.671875 43.65625 24.015625 45.921875 
Q 28.375 48.1875 33.59375 48.1875 
Q 44.578125 48.1875 50.953125 41.515625 
Q 57.328125 34.859375 57.328125 23.390625 
Q 57.328125 12.15625 50.6875 5.359375 
Q 44.046875 -1.421875 33.015625 -1.421875 
Q 20.359375 -1.421875 13.671875 8.265625 
Q 6.984375 17.96875 6.984375 36.375 
Q 6.984375 53.65625 15.1875 63.9375 
Q 23.390625 74.21875 37.203125 74.21875 
Q 40.921875 74.21875 44.703125 73.484375 
Q 48.484375 72.75 52.59375 71.296875 
z
" id="DejaVuSans-54"/>
      </defs>
      <g transform="translate(128.798206 314.26375)rotate(-90)scale(0.1 -0.1)">
       <use xlink:href="#DejaVuSans-54"/>
       <use x="63.623047" xlink:href="#DejaVuSans-48"/>
      </g>
     </g>
    </g>
    <g id="xtick_3">
     <g id="line2d_3">
      <g>
       <use style="stroke:#000000;stroke-width:0.8;" x="181.947222" xlink:href="#mdeceec59ad" y="294.53875"/>
      </g>
     </g>
     <g id="text_3">
      <!-- 80 -->
      <defs>
       <path d="M 31.78125 34.625 
Q 24.75 34.625 20.71875 30.859375 
Q 16.703125 27.09375 16.703125 20.515625 
Q 16.703125 13.921875 20.71875 10.15625 
Q 24.75 6.390625 31.78125 6.390625 
Q 38.8125 6.390625 42.859375 10.171875 
Q 46.921875 13.96875 46.921875 20.515625 
Q 46.921875 27.09375 42.890625 30.859375 
Q 38.875 34.625 31.78125 34.625 
z
M 21.921875 38.8125 
Q 15.578125 40.375 12.03125 44.71875 
Q 8.5 49.078125 8.5 55.328125 
Q 8.5 64.0625 14.71875 69.140625 
Q 20.953125 74.21875 31.78125 74.21875 
Q 42.671875 74.21875 48.875 69.140625 
Q 55.078125 64.0625 55.078125 55.328125 
Q 55.078125 49.078125 51.53125 44.71875 
Q 48 40.375 41.703125 38.8125 
Q 48.828125 37.15625 52.796875 32.3125 
Q 56.78125 27.484375 56.78125 20.515625 
Q 56.78125 9.90625 50.3125 4.234375 
Q 43.84375 -1.421875 31.78125 -1.421875 
Q 19.734375 -1.421875 13.25 4.234375 
Q 6.78125 9.90625 6.78125 20.515625 
Q 6.78125 27.484375 10.78125 32.3125 
Q 14.796875 37.15625 21.921875 38.8125 
z
M 18.3125 54.390625 
Q 18.3125 48.734375 21.84375 45.5625 
Q 25.390625 42.390625 31.78125 42.390625 
Q 38.140625 42.390625 41.71875 45.5625 
Q 45.3125 48.734375 45.3125 54.390625 
Q 45.3125 60.0625 41.71875 63.234375 
Q 38.140625 66.40625 31.78125 66.40625 
Q 25.390625 66.40625 21.84375 63.234375 
Q 18.3125 60.0625 18.3125 54.390625 
z
" id="DejaVuSans-56"/>
      </defs>
      <g transform="translate(184.706597 314.26375)rotate(-90)scale(0.1 -0.1)">
       <use xlink:href="#DejaVuSans-56"/>
       <use x="63.623047" xlink:href="#DejaVuSans-48"/>
      </g>
     </g>
    </g>
    <g id="xtick_4">
     <g id="line2d_4">
      <g>
       <use style="stroke:#000000;stroke-width:0.8;" x="237.855612" xlink:href="#mdeceec59ad" y="294.53875"/>
      </g>
     </g>
     <g id="text_4">
      <!-- 100 -->
      <defs>
       <path d="M 12.40625 8.296875 
L 28.515625 8.296875 
L 28.515625 63.921875 
L 10.984375 60.40625 
L 10.984375 69.390625 
L 28.421875 72.90625 
L 38.28125 72.90625 
L 38.28125 8.296875 
L 54.390625 8.296875 
L 54.390625 0 
L 12.40625 0 
z
" id="DejaVuSans-49"/>
      </defs>
      <g transform="translate(240.614987 320.62625)rotate(-90)scale(0.1 -0.1)">
       <use xlink:href="#DejaVuSans-49"/>
       <use x="63.623047" xlink:href="#DejaVuSans-48"/>
       <use x="127.246094" xlink:href="#DejaVuSans-48"/>
      </g>
     </g>
    </g>
    <g id="xtick_5">
     <g id="line2d_5">
      <g>
       <use style="stroke:#000000;stroke-width:0.8;" x="293.764003" xlink:href="#mdeceec59ad" y="294.53875"/>
      </g>
     </g>
     <g id="text_5">
      <!-- 120 -->
      <defs>
       <path d="M 19.1875 8.296875 
L 53.609375 8.296875 
L 53.609375 0 
L 7.328125 0 
L 7.328125 8.296875 
Q 12.9375 14.109375 22.625 23.890625 
Q 32.328125 33.6875 34.8125 36.53125 
Q 39.546875 41.84375 41.421875 45.53125 
Q 43.3125 49.21875 43.3125 52.78125 
Q 43.3125 58.59375 39.234375 62.25 
Q 35.15625 65.921875 28.609375 65.921875 
Q 23.96875 65.921875 18.8125 64.3125 
Q 13.671875 62.703125 7.8125 59.421875 
L 7.8125 69.390625 
Q 13.765625 71.78125 18.9375 73 
Q 24.125 74.21875 28.421875 74.21875 
Q 39.75 74.21875 46.484375 68.546875 
Q 53.21875 62.890625 53.21875 53.421875 
Q 53.21875 48.921875 51.53125 44.890625 
Q 49.859375 40.875 45.40625 35.40625 
Q 44.1875 33.984375 37.640625 27.21875 
Q 31.109375 20.453125 19.1875 8.296875 
z
" id="DejaVuSans-50"/>
      </defs>
      <g transform="translate(296.523378 320.62625)rotate(-90)scale(0.1 -0.1)">
       <use xlink:href="#DejaVuSans-49"/>
       <use x="63.623047" xlink:href="#DejaVuSans-50"/>
       <use x="127.246094" xlink:href="#DejaVuSans-48"/>
      </g>
     </g>
    </g>
    <g id="xtick_6">
     <g id="line2d_6">
      <g>
       <use style="stroke:#000000;stroke-width:0.8;" x="349.672393" xlink:href="#mdeceec59ad" y="294.53875"/>
      </g>
     </g>
     <g id="text_6">
      <!-- 140 -->
      <g transform="translate(352.431768 320.62625)rotate(-90)scale(0.1 -0.1)">
       <use xlink:href="#DejaVuSans-49"/>
       <use x="63.623047" xlink:href="#DejaVuSans-52"/>
       <use x="127.246094" xlink:href="#DejaVuSans-48"/>
      </g>
     </g>
    </g>
    <g id="xtick_7">
     <g id="line2d_7">
      <g>
       <use style="stroke:#000000;stroke-width:0.8;" x="405.580784" xlink:href="#mdeceec59ad" y="294.53875"/>
      </g>
     </g>
     <g id="text_7">
      <!-- 160 -->
      <g transform="translate(408.340159 320.62625)rotate(-90)scale(0.1 -0.1)">
       <use xlink:href="#DejaVuSans-49"/>
       <use x="63.623047" xlink:href="#DejaVuSans-54"/>
       <use x="127.246094" xlink:href="#DejaVuSans-48"/>
      </g>
     </g>
    </g>
    <g id="text_8">
     <!-- Residue_Number -->
     <defs>
      <path d="M 44.390625 34.1875 
Q 47.5625 33.109375 50.5625 29.59375 
Q 53.5625 26.078125 56.59375 19.921875 
L 66.609375 0 
L 56 0 
L 46.6875 18.703125 
Q 43.0625 26.03125 39.671875 28.421875 
Q 36.28125 30.8125 30.421875 30.8125 
L 19.671875 30.8125 
L 19.671875 0 
L 9.8125 0 
L 9.8125 72.90625 
L 32.078125 72.90625 
Q 44.578125 72.90625 50.734375 67.671875 
Q 56.890625 62.453125 56.890625 51.90625 
Q 56.890625 45.015625 53.6875 40.46875 
Q 50.484375 35.9375 44.390625 34.1875 
z
M 19.671875 64.796875 
L 19.671875 38.921875 
L 32.078125 38.921875 
Q 39.203125 38.921875 42.84375 42.21875 
Q 46.484375 45.515625 46.484375 51.90625 
Q 46.484375 58.296875 42.84375 61.546875 
Q 39.203125 64.796875 32.078125 64.796875 
z
" id="DejaVuSans-82"/>
      <path d="M 56.203125 29.59375 
L 56.203125 25.203125 
L 14.890625 25.203125 
Q 15.484375 15.921875 20.484375 11.0625 
Q 25.484375 6.203125 34.421875 6.203125 
Q 39.59375 6.203125 44.453125 7.46875 
Q 49.3125 8.734375 54.109375 11.28125 
L 54.109375 2.78125 
Q 49.265625 0.734375 44.1875 -0.34375 
Q 39.109375 -1.421875 33.890625 -1.421875 
Q 20.796875 -1.421875 13.15625 6.1875 
Q 5.515625 13.8125 5.515625 26.8125 
Q 5.515625 40.234375 12.765625 48.109375 
Q 20.015625 56 32.328125 56 
Q 43.359375 56 49.78125 48.890625 
Q 56.203125 41.796875 56.203125 29.59375 
z
M 47.21875 32.234375 
Q 47.125 39.59375 43.09375 43.984375 
Q 39.0625 48.390625 32.421875 48.390625 
Q 24.90625 48.390625 20.390625 44.140625 
Q 15.875 39.890625 15.1875 32.171875 
z
" id="DejaVuSans-101"/>
      <path d="M 44.28125 53.078125 
L 44.28125 44.578125 
Q 40.484375 46.53125 36.375 47.5 
Q 32.28125 48.484375 27.875 48.484375 
Q 21.1875 48.484375 17.84375 46.4375 
Q 14.5 44.390625 14.5 40.28125 
Q 14.5 37.15625 16.890625 35.375 
Q 19.28125 33.59375 26.515625 31.984375 
L 29.59375 31.296875 
Q 39.15625 29.25 43.1875 25.515625 
Q 47.21875 21.78125 47.21875 15.09375 
Q 47.21875 7.46875 41.1875 3.015625 
Q 35.15625 -1.421875 24.609375 -1.421875 
Q 20.21875 -1.421875 15.453125 -0.5625 
Q 10.6875 0.296875 5.421875 2 
L 5.421875 11.28125 
Q 10.40625 8.6875 15.234375 7.390625 
Q 20.0625 6.109375 24.8125 6.109375 
Q 31.15625 6.109375 34.5625 8.28125 
Q 37.984375 10.453125 37.984375 14.40625 
Q 37.984375 18.0625 35.515625 20.015625 
Q 33.0625 21.96875 24.703125 23.78125 
L 21.578125 24.515625 
Q 13.234375 26.265625 9.515625 29.90625 
Q 5.8125 33.546875 5.8125 39.890625 
Q 5.8125 47.609375 11.28125 51.796875 
Q 16.75 56 26.8125 56 
Q 31.78125 56 36.171875 55.265625 
Q 40.578125 54.546875 44.28125 53.078125 
z
" id="DejaVuSans-115"/>
      <path d="M 9.421875 54.6875 
L 18.40625 54.6875 
L 18.40625 0 
L 9.421875 0 
z
M 9.421875 75.984375 
L 18.40625 75.984375 
L 18.40625 64.59375 
L 9.421875 64.59375 
z
" id="DejaVuSans-105"/>
      <path d="M 45.40625 46.390625 
L 45.40625 75.984375 
L 54.390625 75.984375 
L 54.390625 0 
L 45.40625 0 
L 45.40625 8.203125 
Q 42.578125 3.328125 38.25 0.953125 
Q 33.9375 -1.421875 27.875 -1.421875 
Q 17.96875 -1.421875 11.734375 6.484375 
Q 5.515625 14.40625 5.515625 27.296875 
Q 5.515625 40.1875 11.734375 48.09375 
Q 17.96875 56 27.875 56 
Q 33.9375 56 38.25 53.625 
Q 42.578125 51.265625 45.40625 46.390625 
z
M 14.796875 27.296875 
Q 14.796875 17.390625 18.875 11.75 
Q 22.953125 6.109375 30.078125 6.109375 
Q 37.203125 6.109375 41.296875 11.75 
Q 45.40625 17.390625 45.40625 27.296875 
Q 45.40625 37.203125 41.296875 42.84375 
Q 37.203125 48.484375 30.078125 48.484375 
Q 22.953125 48.484375 18.875 42.84375 
Q 14.796875 37.203125 14.796875 27.296875 
z
" id="DejaVuSans-100"/>
      <path d="M 8.5 21.578125 
L 8.5 54.6875 
L 17.484375 54.6875 
L 17.484375 21.921875 
Q 17.484375 14.15625 20.5 10.265625 
Q 23.53125 6.390625 29.59375 6.390625 
Q 36.859375 6.390625 41.078125 11.03125 
Q 45.3125 15.671875 45.3125 23.6875 
L 45.3125 54.6875 
L 54.296875 54.6875 
L 54.296875 0 
L 45.3125 0 
L 45.3125 8.40625 
Q 42.046875 3.421875 37.71875 1 
Q 33.40625 -1.421875 27.6875 -1.421875 
Q 18.265625 -1.421875 13.375 4.4375 
Q 8.5 10.296875 8.5 21.578125 
z
M 31.109375 56 
z
" id="DejaVuSans-117"/>
      <path d="M 50.984375 -16.609375 
L 50.984375 -23.578125 
L -0.984375 -23.578125 
L -0.984375 -16.609375 
z
" id="DejaVuSans-95"/>
      <path d="M 9.8125 72.90625 
L 23.09375 72.90625 
L 55.421875 11.921875 
L 55.421875 72.90625 
L 64.984375 72.90625 
L 64.984375 0 
L 51.703125 0 
L 19.390625 60.984375 
L 19.390625 0 
L 9.8125 0 
z
" id="DejaVuSans-78"/>
      <path d="M 52 44.1875 
Q 55.375 50.25 60.0625 53.125 
Q 64.75 56 71.09375 56 
Q 79.640625 56 84.28125 50.015625 
Q 88.921875 44.046875 88.921875 33.015625 
L 88.921875 0 
L 79.890625 0 
L 79.890625 32.71875 
Q 79.890625 40.578125 77.09375 44.375 
Q 74.3125 48.1875 68.609375 48.1875 
Q 61.625 48.1875 57.5625 43.546875 
Q 53.515625 38.921875 53.515625 30.90625 
L 53.515625 0 
L 44.484375 0 
L 44.484375 32.71875 
Q 44.484375 40.625 41.703125 44.40625 
Q 38.921875 48.1875 33.109375 48.1875 
Q 26.21875 48.1875 22.15625 43.53125 
Q 18.109375 38.875 18.109375 30.90625 
L 18.109375 0 
L 9.078125 0 
L 9.078125 54.6875 
L 18.109375 54.6875 
L 18.109375 46.1875 
Q 21.1875 51.21875 25.484375 53.609375 
Q 29.78125 56 35.6875 56 
Q 41.65625 56 45.828125 52.96875 
Q 50 49.953125 52 44.1875 
z
" id="DejaVuSans-109"/>
      <path d="M 48.6875 27.296875 
Q 48.6875 37.203125 44.609375 42.84375 
Q 40.53125 48.484375 33.40625 48.484375 
Q 26.265625 48.484375 22.1875 42.84375 
Q 18.109375 37.203125 18.109375 27.296875 
Q 18.109375 17.390625 22.1875 11.75 
Q 26.265625 6.109375 33.40625 6.109375 
Q 40.53125 6.109375 44.609375 11.75 
Q 48.6875 17.390625 48.6875 27.296875 
z
M 18.109375 46.390625 
Q 20.953125 51.265625 25.265625 53.625 
Q 29.59375 56 35.59375 56 
Q 45.5625 56 51.78125 48.09375 
Q 58.015625 40.1875 58.015625 27.296875 
Q 58.015625 14.40625 51.78125 6.484375 
Q 45.5625 -1.421875 35.59375 -1.421875 
Q 29.59375 -1.421875 25.265625 0.953125 
Q 20.953125 3.328125 18.109375 8.203125 
L 18.109375 0 
L 9.078125 0 
L 9.078125 75.984375 
L 18.109375 75.984375 
z
" id="DejaVuSans-98"/>
      <path d="M 41.109375 46.296875 
Q 39.59375 47.171875 37.8125 47.578125 
Q 36.03125 48 33.890625 48 
Q 26.265625 48 22.1875 43.046875 
Q 18.109375 38.09375 18.109375 28.8125 
L 18.109375 0 
L 9.078125 0 
L 9.078125 54.6875 
L 18.109375 54.6875 
L 18.109375 46.1875 
Q 20.953125 51.171875 25.484375 53.578125 
Q 30.03125 56 36.53125 56 
Q 37.453125 56 38.578125 55.875 
Q 39.703125 55.765625 41.0625 55.515625 
z
" id="DejaVuSans-114"/>
     </defs>
     <g transform="translate(207.888125 332.224687)scale(0.1 -0.1)">
      <use xlink:href="#DejaVuSans-82"/>
      <use x="69.419922" xlink:href="#DejaVuSans-101"/>
      <use x="130.943359" xlink:href="#DejaVuSans-115"/>
      <use x="183.042969" xlink:href="#DejaVuSans-105"/>
      <use x="210.826172" xlink:href="#DejaVuSans-100"/>
      <use x="274.302734" xlink:href="#DejaVuSans-117"/>
      <use x="337.681641" xlink:href="#DejaVuSans-101"/>
      <use x="399.205078" xlink:href="#DejaVuSans-95"/>
      <use x="449.205078" xlink:href="#DejaVuSans-78"/>
      <use x="524.009766" xlink:href="#DejaVuSans-117"/>
      <use x="587.388672" xlink:href="#DejaVuSans-109"/>
      <use x="684.800781" xlink:href="#DejaVuSans-98"/>
      <use x="748.277344" xlink:href="#DejaVuSans-101"/>
      <use x="809.800781" xlink:href="#DejaVuSans-114"/>
     </g>
    </g>
   </g>
   <g id="matplotlib.axis_2">
    <g id="ytick_1">
     <g id="line2d_8">
      <defs>
       <path d="M 0 0 
L -3.5 0 
" id="mc8b7e8ba14" style="stroke:#000000;stroke-width:0.8;"/>
      </defs>
      <g>
       <use style="stroke:#000000;stroke-width:0.8;" x="50.87" xlink:href="#mc8b7e8ba14" y="294.53875"/>
      </g>
     </g>
     <g id="text_9">
      <!-- 0 -->
      <g transform="translate(37.5075 298.337969)scale(0.1 -0.1)">
       <use xlink:href="#DejaVuSans-48"/>
      </g>
     </g>
    </g>
    <g id="ytick_2">
     <g id="line2d_9">
      <g>
       <use style="stroke:#000000;stroke-width:0.8;" x="50.87" xlink:href="#mc8b7e8ba14" y="239.842387"/>
      </g>
     </g>
     <g id="text_10">
      <!-- 20 -->
      <g transform="translate(31.145 243.641606)scale(0.1 -0.1)">
       <use xlink:href="#DejaVuSans-50"/>
       <use x="63.623047" xlink:href="#DejaVuSans-48"/>
      </g>
     </g>
    </g>
    <g id="ytick_3">
     <g id="line2d_10">
      <g>
       <use style="stroke:#000000;stroke-width:0.8;" x="50.87" xlink:href="#mc8b7e8ba14" y="185.146024"/>
      </g>
     </g>
     <g id="text_11">
      <!-- 40 -->
      <g transform="translate(31.145 188.945243)scale(0.1 -0.1)">
       <use xlink:href="#DejaVuSans-52"/>
       <use x="63.623047" xlink:href="#DejaVuSans-48"/>
      </g>
     </g>
    </g>
    <g id="ytick_4">
     <g id="line2d_11">
      <g>
       <use style="stroke:#000000;stroke-width:0.8;" x="50.87" xlink:href="#mc8b7e8ba14" y="130.449661"/>
      </g>
     </g>
     <g id="text_12">
      <!-- 60 -->
      <g transform="translate(31.145 134.24888)scale(0.1 -0.1)">
       <use xlink:href="#DejaVuSans-54"/>
       <use x="63.623047" xlink:href="#DejaVuSans-48"/>
      </g>
     </g>
    </g>
    <g id="ytick_5">
     <g id="line2d_12">
      <g>
       <use style="stroke:#000000;stroke-width:0.8;" x="50.87" xlink:href="#mc8b7e8ba14" y="75.753298"/>
      </g>
     </g>
     <g id="text_13">
      <!-- 80 -->
      <g transform="translate(31.145 79.552517)scale(0.1 -0.1)">
       <use xlink:href="#DejaVuSans-56"/>
       <use x="63.623047" xlink:href="#DejaVuSans-48"/>
      </g>
     </g>
    </g>
    <g id="ytick_6">
     <g id="line2d_13">
      <g>
       <use style="stroke:#000000;stroke-width:0.8;" x="50.87" xlink:href="#mc8b7e8ba14" y="21.056935"/>
      </g>
     </g>
     <g id="text_14">
      <!-- 100 -->
      <g transform="translate(24.7825 24.856154)scale(0.1 -0.1)">
       <use xlink:href="#DejaVuSans-49"/>
       <use x="63.623047" xlink:href="#DejaVuSans-48"/>
       <use x="127.246094" xlink:href="#DejaVuSans-48"/>
      </g>
     </g>
    </g>
    <g id="text_15">
     <!-- Conservation -->
     <defs>
      <path d="M 64.40625 67.28125 
L 64.40625 56.890625 
Q 59.421875 61.53125 53.78125 63.8125 
Q 48.140625 66.109375 41.796875 66.109375 
Q 29.296875 66.109375 22.65625 58.46875 
Q 16.015625 50.828125 16.015625 36.375 
Q 16.015625 21.96875 22.65625 14.328125 
Q 29.296875 6.6875 41.796875 6.6875 
Q 48.140625 6.6875 53.78125 8.984375 
Q 59.421875 11.28125 64.40625 15.921875 
L 64.40625 5.609375 
Q 59.234375 2.09375 53.4375 0.328125 
Q 47.65625 -1.421875 41.21875 -1.421875 
Q 24.65625 -1.421875 15.125 8.703125 
Q 5.609375 18.84375 5.609375 36.375 
Q 5.609375 53.953125 15.125 64.078125 
Q 24.65625 74.21875 41.21875 74.21875 
Q 47.75 74.21875 53.53125 72.484375 
Q 59.328125 70.75 64.40625 67.28125 
z
" id="DejaVuSans-67"/>
      <path d="M 30.609375 48.390625 
Q 23.390625 48.390625 19.1875 42.75 
Q 14.984375 37.109375 14.984375 27.296875 
Q 14.984375 17.484375 19.15625 11.84375 
Q 23.34375 6.203125 30.609375 6.203125 
Q 37.796875 6.203125 41.984375 11.859375 
Q 46.1875 17.53125 46.1875 27.296875 
Q 46.1875 37.015625 41.984375 42.703125 
Q 37.796875 48.390625 30.609375 48.390625 
z
M 30.609375 56 
Q 42.328125 56 49.015625 48.375 
Q 55.71875 40.765625 55.71875 27.296875 
Q 55.71875 13.875 49.015625 6.21875 
Q 42.328125 -1.421875 30.609375 -1.421875 
Q 18.84375 -1.421875 12.171875 6.21875 
Q 5.515625 13.875 5.515625 27.296875 
Q 5.515625 40.765625 12.171875 48.375 
Q 18.84375 56 30.609375 56 
z
" id="DejaVuSans-111"/>
      <path d="M 54.890625 33.015625 
L 54.890625 0 
L 45.90625 0 
L 45.90625 32.71875 
Q 45.90625 40.484375 42.875 44.328125 
Q 39.84375 48.1875 33.796875 48.1875 
Q 26.515625 48.1875 22.3125 43.546875 
Q 18.109375 38.921875 18.109375 30.90625 
L 18.109375 0 
L 9.078125 0 
L 9.078125 54.6875 
L 18.109375 54.6875 
L 18.109375 46.1875 
Q 21.34375 51.125 25.703125 53.5625 
Q 30.078125 56 35.796875 56 
Q 45.21875 56 50.046875 50.171875 
Q 54.890625 44.34375 54.890625 33.015625 
z
" id="DejaVuSans-110"/>
      <path d="M 2.984375 54.6875 
L 12.5 54.6875 
L 29.59375 8.796875 
L 46.6875 54.6875 
L 56.203125 54.6875 
L 35.6875 0 
L 23.484375 0 
z
" id="DejaVuSans-118"/>
      <path d="M 34.28125 27.484375 
Q 23.390625 27.484375 19.1875 25 
Q 14.984375 22.515625 14.984375 16.5 
Q 14.984375 11.71875 18.140625 8.90625 
Q 21.296875 6.109375 26.703125 6.109375 
Q 34.1875 6.109375 38.703125 11.40625 
Q 43.21875 16.703125 43.21875 25.484375 
L 43.21875 27.484375 
z
M 52.203125 31.203125 
L 52.203125 0 
L 43.21875 0 
L 43.21875 8.296875 
Q 40.140625 3.328125 35.546875 0.953125 
Q 30.953125 -1.421875 24.3125 -1.421875 
Q 15.921875 -1.421875 10.953125 3.296875 
Q 6 8.015625 6 15.921875 
Q 6 25.140625 12.171875 29.828125 
Q 18.359375 34.515625 30.609375 34.515625 
L 43.21875 34.515625 
L 43.21875 35.40625 
Q 43.21875 41.609375 39.140625 45 
Q 35.0625 48.390625 27.6875 48.390625 
Q 23 48.390625 18.546875 47.265625 
Q 14.109375 46.140625 10.015625 43.890625 
L 10.015625 52.203125 
Q 14.9375 54.109375 19.578125 55.046875 
Q 24.21875 56 28.609375 56 
Q 40.484375 56 46.34375 49.84375 
Q 52.203125 43.703125 52.203125 31.203125 
z
" id="DejaVuSans-97"/>
      <path d="M 18.3125 70.21875 
L 18.3125 54.6875 
L 36.8125 54.6875 
L 36.8125 47.703125 
L 18.3125 47.703125 
L 18.3125 18.015625 
Q 18.3125 11.328125 20.140625 9.421875 
Q 21.96875 7.515625 27.59375 7.515625 
L 36.8125 7.515625 
L 36.8125 0 
L 27.59375 0 
Q 17.1875 0 13.234375 3.875 
Q 9.28125 7.765625 9.28125 18.015625 
L 9.28125 47.703125 
L 2.6875 47.703125 
L 2.6875 54.6875 
L 9.28125 54.6875 
L 9.28125 70.21875 
z
" id="DejaVuSans-116"/>
     </defs>
     <g transform="translate(18.702813 185.726406)rotate(-90)scale(0.1 -0.1)">
      <use xlink:href="#DejaVuSans-67"/>
      <use x="69.824219" xlink:href="#DejaVuSans-111"/>
      <use x="131.005859" xlink:href="#DejaVuSans-110"/>
      <use x="194.384766" xlink:href="#DejaVuSans-115"/>
      <use x="246.484375" xlink:href="#DejaVuSans-101"/>
      <use x="308.007812" xlink:href="#DejaVuSans-114"/>
      <use x="349.121094" xlink:href="#DejaVuSans-118"/>
      <use x="408.300781" xlink:href="#DejaVuSans-97"/>
      <use x="469.580078" xlink:href="#DejaVuSans-116"/>
      <use x="508.789062" xlink:href="#DejaVuSans-105"/>
      <use x="536.572266" xlink:href="#DejaVuSans-111"/>
      <use x="597.753906" xlink:href="#DejaVuSans-110"/>
     </g>
    </g>
   </g>
   <g id="patch_133">
    <path d="M 50.87 294.53875 
L 50.87 10.8 
" style="fill:none;stroke:#000000;stroke-linecap:square;stroke-linejoin:miter;stroke-width:0.8;"/>
   </g>
   <g id="patch_134">
    <path d="M 450 294.53875 
L 450 10.8 
" style="fill:none;stroke:#000000;stroke-linecap:square;stroke-linejoin:miter;stroke-width:0.8;"/>
   </g>
   <g id="patch_135">
    <path d="M 50.87 294.53875 
L 450 294.53875 
" style="fill:none;stroke:#000000;stroke-linecap:square;stroke-linejoin:miter;stroke-width:0.8;"/>
   </g>
   <g id="patch_136">
    <path d="M 50.87 10.8 
L 450 10.8 
" style="fill:none;stroke:#000000;stroke-linecap:square;stroke-linejoin:miter;stroke-width:0.8;"/>
   </g>
  </g>
 </g>
 <defs>
  <clipPath id="p048f45e903">
   <rect height="283.73875" width="399.13" x="50.87" y="10.8"/>
  </clipPath>
 </defs>
</svg>
