<?xml version="1.0" encoding="utf-8" standalone="no"?>
<!DOCTYPE svg PUBLIC "-//W3C//DTD SVG 1.1//EN"
  "http://www.w3.org/Graphics/SVG/1.1/DTD/svg11.dtd">
<!-- Created with matplotlib (https://matplotlib.org/) -->
<svg height="345.6pt" version="1.1" viewBox="0 0 460.8 345.6" width="460.8pt" xmlns="http://www.w3.org/2000/svg" xmlns:xlink="http://www.w3.org/1999/xlink">
 <defs>
  <style type="text/css">
*{stroke-linecap:butt;stroke-linejoin:round;}
  </style>
 </defs>
 <g id="figure_1">
  <g id="patch_1">
   <path d="M 0 345.6 
L 460.8 345.6 
L 460.8 0 
L 0 0 
z
" style="fill:#ffffff;"/>
  </g>
  <g id="axes_1">
   <g id="patch_2">
    <path d="M 50.87 294.62875 
L 450 294.62875 
L 450 10.8 
L 50.87 10.8 
z
" style="fill:#ffffff;"/>
   </g>
   <g id="patch_3">
    <path clip-path="url(#p27cd7dc67e)" d="M 69.012273 294.62875 
L 71.891999 294.62875 
L 71.891999 181.989283 
L 69.012273 181.989283 
z
" style="fill:#1f77b4;"/>
   </g>
   <g id="patch_4">
    <path clip-path="url(#p27cd7dc67e)" d="M 72.61193 294.62875 
L 75.491656 294.62875 
L 75.491656 210.155908 
L 72.61193 210.155908 
z
" style="fill:#1f77b4;"/>
   </g>
   <g id="patch_5">
    <path clip-path="url(#p27cd7dc67e)" d="M 76.211587 294.62875 
L 79.091313 294.62875 
L 79.091313 141.847789 
L 76.211587 141.847789 
z
" style="fill:#1f77b4;"/>
   </g>
   <g id="patch_6">
    <path clip-path="url(#p27cd7dc67e)" d="M 79.811245 294.62875 
L 82.69097 294.62875 
L 82.69097 223.076874 
L 79.811245 223.076874 
z
" style="fill:#1f77b4;"/>
   </g>
   <g id="patch_7">
    <path clip-path="url(#p27cd7dc67e)" d="M 83.410902 294.62875 
L 86.290628 294.62875 
L 86.290628 166.581437 
L 83.410902 166.581437 
z
" style="fill:#1f77b4;"/>
   </g>
   <g id="patch_8">
    <path clip-path="url(#p27cd7dc67e)" d="M 87.010559 294.62875 
L 89.890285 294.62875 
L 89.890285 198.505413 
L 87.010559 198.505413 
z
" style="fill:#1f77b4;"/>
   </g>
   <g id="patch_9">
    <path clip-path="url(#p27cd7dc67e)" d="M 90.610216 294.62875 
L 93.489942 294.62875 
L 93.489942 252.216625 
L 90.610216 252.216625 
z
" style="fill:#1f77b4;"/>
   </g>
   <g id="patch_10">
    <path clip-path="url(#p27cd7dc67e)" d="M 94.209874 294.62875 
L 97.0896 294.62875 
L 97.0896 149.470618 
L 94.209874 149.470618 
z
" style="fill:#1f77b4;"/>
   </g>
   <g id="patch_11">
    <path clip-path="url(#p27cd7dc67e)" d="M 97.809531 294.62875 
L 100.689257 294.62875 
L 100.689257 159.472202 
L 97.809531 159.472202 
z
" style="fill:#1f77b4;"/>
   </g>
   <g id="patch_12">
    <path clip-path="url(#p27cd7dc67e)" d="M 101.409188 294.62875 
L 104.288914 294.62875 
L 104.288914 183.611162 
L 101.409188 183.611162 
z
" style="fill:#1f77b4;"/>
   </g>
   <g id="patch_13">
    <path clip-path="url(#p27cd7dc67e)" d="M 105.008846 294.62875 
L 107.888571 294.62875 
L 107.888571 29.154259 
L 105.008846 29.154259 
z
" style="fill:#1f77b4;"/>
   </g>
   <g id="patch_14">
    <path clip-path="url(#p27cd7dc67e)" d="M 108.608503 294.62875 
L 111.488229 294.62875 
L 111.488229 53.266187 
L 108.608503 53.266187 
z
" style="fill:#1f77b4;"/>
   </g>
   <g id="patch_15">
    <path clip-path="url(#p27cd7dc67e)" d="M 112.20816 294.62875 
L 115.087886 294.62875 
L 115.087886 227.050476 
L 112.20816 227.050476 
z
" style="fill:#1f77b4;"/>
   </g>
   <g id="patch_16">
    <path clip-path="url(#p27cd7dc67e)" d="M 115.807817 294.62875 
L 118.687543 294.62875 
L 118.687543 24.315655 
L 115.807817 24.315655 
z
" style="fill:#1f77b4;"/>
   </g>
   <g id="patch_17">
    <path clip-path="url(#p27cd7dc67e)" d="M 119.407475 294.62875 
L 122.287201 294.62875 
L 122.287201 72.593574 
L 119.407475 72.593574 
z
" style="fill:#1f77b4;"/>
   </g>
   <g id="patch_18">
    <path clip-path="url(#p27cd7dc67e)" d="M 123.007132 294.62875 
L 125.886858 294.62875 
L 125.886858 212.561694 
L 123.007132 212.561694 
z
" style="fill:#1f77b4;"/>
   </g>
   <g id="patch_19">
    <path clip-path="url(#p27cd7dc67e)" d="M 126.606789 294.62875 
L 129.486515 294.62875 
L 129.486515 193.261339 
L 126.606789 193.261339 
z
" style="fill:#1f77b4;"/>
   </g>
   <g id="patch_20">
    <path clip-path="url(#p27cd7dc67e)" d="M 130.206447 294.62875 
L 133.086172 294.62875 
L 133.086172 202.911517 
L 130.206447 202.911517 
z
" style="fill:#1f77b4;"/>
   </g>
   <g id="patch_21">
    <path clip-path="url(#p27cd7dc67e)" d="M 133.806104 294.62875 
L 136.68583 294.62875 
L 136.68583 164.310807 
L 133.806104 164.310807 
z
" style="fill:#1f77b4;"/>
   </g>
   <g id="patch_22">
    <path clip-path="url(#p27cd7dc67e)" d="M 137.405761 294.62875 
L 140.285487 294.62875 
L 140.285487 178.772557 
L 137.405761 178.772557 
z
" style="fill:#1f77b4;"/>
   </g>
   <g id="patch_23">
    <path clip-path="url(#p27cd7dc67e)" d="M 141.005418 294.62875 
L 143.885144 294.62875 
L 143.885144 154.633598 
L 141.005418 154.633598 
z
" style="fill:#1f77b4;"/>
   </g>
   <g id="patch_24">
    <path clip-path="url(#p27cd7dc67e)" d="M 144.605076 294.62875 
L 147.484802 294.62875 
L 147.484802 178.772557 
L 144.605076 178.772557 
z
" style="fill:#1f77b4;"/>
   </g>
   <g id="patch_25">
    <path clip-path="url(#p27cd7dc67e)" d="M 148.204733 294.62875 
L 151.084459 294.62875 
L 151.084459 29.154259 
L 148.204733 29.154259 
z
" style="fill:#1f77b4;"/>
   </g>
   <g id="patch_26">
    <path clip-path="url(#p27cd7dc67e)" d="M 151.80439 294.62875 
L 154.684116 294.62875 
L 154.684116 202.911517 
L 151.80439 202.911517 
z
" style="fill:#1f77b4;"/>
   </g>
   <g id="patch_27">
    <path clip-path="url(#p27cd7dc67e)" d="M 155.404048 294.62875 
L 158.283773 294.62875 
L 158.283773 173.960984 
L 155.404048 173.960984 
z
" style="fill:#1f77b4;"/>
   </g>
   <g id="patch_28">
    <path clip-path="url(#p27cd7dc67e)" d="M 159.003705 294.62875 
L 161.883431 294.62875 
L 161.883431 48.454614 
L 159.003705 48.454614 
z
" style="fill:#1f77b4;"/>
   </g>
   <g id="patch_29">
    <path clip-path="url(#p27cd7dc67e)" d="M 162.603362 294.62875 
L 165.483088 294.62875 
L 165.483088 24.315655 
L 162.603362 24.315655 
z
" style="fill:#1f77b4;"/>
   </g>
   <g id="patch_30">
    <path clip-path="url(#p27cd7dc67e)" d="M 166.203019 294.62875 
L 169.082745 294.62875 
L 169.082745 91.893929 
L 166.203019 91.893929 
z
" style="fill:#1f77b4;"/>
   </g>
   <g id="patch_31">
    <path clip-path="url(#p27cd7dc67e)" d="M 169.802677 294.62875 
L 172.682403 294.62875 
L 172.682403 67.754969 
L 169.802677 67.754969 
z
" style="fill:#1f77b4;"/>
   </g>
   <g id="patch_32">
    <path clip-path="url(#p27cd7dc67e)" d="M 173.402334 294.62875 
L 176.28206 294.62875 
L 176.28206 38.804437 
L 173.402334 38.804437 
z
" style="fill:#1f77b4;"/>
   </g>
   <g id="patch_33">
    <path clip-path="url(#p27cd7dc67e)" d="M 177.001991 294.62875 
L 179.881717 294.62875 
L 179.881717 236.700654 
L 177.001991 236.700654 
z
" style="fill:#1f77b4;"/>
   </g>
   <g id="patch_34">
    <path clip-path="url(#p27cd7dc67e)" d="M 180.601649 294.62875 
L 183.481374 294.62875 
L 183.481374 202.911517 
L 180.601649 202.911517 
z
" style="fill:#1f77b4;"/>
   </g>
   <g id="patch_35">
    <path clip-path="url(#p27cd7dc67e)" d="M 184.201306 294.62875 
L 187.081032 294.62875 
L 187.081032 48.454614 
L 184.201306 48.454614 
z
" style="fill:#1f77b4;"/>
   </g>
   <g id="patch_36">
    <path clip-path="url(#p27cd7dc67e)" d="M 187.800963 294.62875 
L 190.680689 294.62875 
L 190.680689 198.099944 
L 187.800963 198.099944 
z
" style="fill:#1f77b4;"/>
   </g>
   <g id="patch_37">
    <path clip-path="url(#p27cd7dc67e)" d="M 191.40062 294.62875 
L 194.280346 294.62875 
L 194.280346 202.911517 
L 191.40062 202.911517 
z
" style="fill:#1f77b4;"/>
   </g>
   <g id="patch_38">
    <path clip-path="url(#p27cd7dc67e)" d="M 195.000278 294.62875 
L 197.880004 294.62875 
L 197.880004 91.893929 
L 195.000278 91.893929 
z
" style="fill:#1f77b4;"/>
   </g>
   <g id="patch_39">
    <path clip-path="url(#p27cd7dc67e)" d="M 198.599935 294.62875 
L 201.479661 294.62875 
L 201.479661 116.032888 
L 198.599935 116.032888 
z
" style="fill:#1f77b4;"/>
   </g>
   <g id="patch_40">
    <path clip-path="url(#p27cd7dc67e)" d="M 202.199592 294.62875 
L 205.079318 294.62875 
L 205.079318 96.732533 
L 202.199592 96.732533 
z
" style="fill:#1f77b4;"/>
   </g>
   <g id="patch_41">
    <path clip-path="url(#p27cd7dc67e)" d="M 205.79925 294.62875 
L 208.678975 294.62875 
L 208.678975 91.893929 
L 205.79925 91.893929 
z
" style="fill:#1f77b4;"/>
   </g>
   <g id="patch_42">
    <path clip-path="url(#p27cd7dc67e)" d="M 209.398907 294.62875 
L 212.278633 294.62875 
L 212.278633 120.844461 
L 209.398907 120.844461 
z
" style="fill:#1f77b4;"/>
   </g>
   <g id="patch_43">
    <path clip-path="url(#p27cd7dc67e)" d="M 212.998564 294.62875 
L 215.87829 294.62875 
L 215.87829 173.960984 
L 212.998564 173.960984 
z
" style="fill:#1f77b4;"/>
   </g>
   <g id="patch_44">
    <path clip-path="url(#p27cd7dc67e)" d="M 216.598222 294.62875 
L 219.477947 294.62875 
L 219.477947 173.960984 
L 216.598222 173.960984 
z
" style="fill:#1f77b4;"/>
   </g>
   <g id="patch_45">
    <path clip-path="url(#p27cd7dc67e)" d="M 220.197879 294.62875 
L 223.077605 294.62875 
L 223.077605 188.422735 
L 220.197879 188.422735 
z
" style="fill:#1f77b4;"/>
   </g>
   <g id="patch_46">
    <path clip-path="url(#p27cd7dc67e)" d="M 223.797536 294.62875 
L 226.677262 294.62875 
L 226.677262 120.844461 
L 223.797536 120.844461 
z
" style="fill:#1f77b4;"/>
   </g>
   <g id="patch_47">
    <path clip-path="url(#p27cd7dc67e)" d="M 227.397193 294.62875 
L 230.276919 294.62875 
L 230.276919 140.171847 
L 227.397193 140.171847 
z
" style="fill:#1f77b4;"/>
   </g>
   <g id="patch_48">
    <path clip-path="url(#p27cd7dc67e)" d="M 230.996851 294.62875 
L 233.876576 294.62875 
L 233.876576 202.911517 
L 230.996851 202.911517 
z
" style="fill:#1f77b4;"/>
   </g>
   <g id="patch_49">
    <path clip-path="url(#p27cd7dc67e)" d="M 234.596508 294.62875 
L 237.476234 294.62875 
L 237.476234 120.844461 
L 234.596508 120.844461 
z
" style="fill:#1f77b4;"/>
   </g>
   <g id="patch_50">
    <path clip-path="url(#p27cd7dc67e)" d="M 238.196165 294.62875 
L 241.075891 294.62875 
L 241.075891 198.099944 
L 238.196165 198.099944 
z
" style="fill:#1f77b4;"/>
   </g>
   <g id="patch_51">
    <path clip-path="url(#p27cd7dc67e)" d="M 241.795823 294.62875 
L 244.675548 294.62875 
L 244.675548 140.171847 
L 241.795823 140.171847 
z
" style="fill:#1f77b4;"/>
   </g>
   <g id="patch_52">
    <path clip-path="url(#p27cd7dc67e)" d="M 245.39548 294.62875 
L 248.275206 294.62875 
L 248.275206 24.315655 
L 245.39548 24.315655 
z
" style="fill:#1f77b4;"/>
   </g>
   <g id="patch_53">
    <path clip-path="url(#p27cd7dc67e)" d="M 248.995137 294.62875 
L 251.874863 294.62875 
L 251.874863 135.333243 
L 248.995137 135.333243 
z
" style="fill:#1f77b4;"/>
   </g>
   <g id="patch_54">
    <path clip-path="url(#p27cd7dc67e)" d="M 252.594794 294.62875 
L 255.47452 294.62875 
L 255.47452 198.099944 
L 252.594794 198.099944 
z
" style="fill:#1f77b4;"/>
   </g>
   <g id="patch_55">
    <path clip-path="url(#p27cd7dc67e)" d="M 256.194452 294.62875 
L 259.074177 294.62875 
L 259.074177 125.683065 
L 256.194452 125.683065 
z
" style="fill:#1f77b4;"/>
   </g>
   <g id="patch_56">
    <path clip-path="url(#p27cd7dc67e)" d="M 259.794109 294.62875 
L 262.673835 294.62875 
L 262.673835 33.965832 
L 259.794109 33.965832 
z
" style="fill:#1f77b4;"/>
   </g>
   <g id="patch_57">
    <path clip-path="url(#p27cd7dc67e)" d="M 263.393766 294.62875 
L 266.273492 294.62875 
L 266.273492 48.454614 
L 263.393766 48.454614 
z
" style="fill:#1f77b4;"/>
   </g>
   <g id="patch_58">
    <path clip-path="url(#p27cd7dc67e)" d="M 266.993424 294.62875 
L 269.873149 294.62875 
L 269.873149 212.561694 
L 266.993424 212.561694 
z
" style="fill:#1f77b4;"/>
   </g>
   <g id="patch_59">
    <path clip-path="url(#p27cd7dc67e)" d="M 270.593081 294.62875 
L 273.472807 294.62875 
L 273.472807 62.943396 
L 270.593081 62.943396 
z
" style="fill:#1f77b4;"/>
   </g>
   <g id="patch_60">
    <path clip-path="url(#p27cd7dc67e)" d="M 274.192738 294.62875 
L 277.072464 294.62875 
L 277.072464 183.611162 
L 274.192738 183.611162 
z
" style="fill:#1f77b4;"/>
   </g>
   <g id="patch_61">
    <path clip-path="url(#p27cd7dc67e)" d="M 277.792395 294.62875 
L 280.672121 294.62875 
L 280.672121 183.611162 
L 277.792395 183.611162 
z
" style="fill:#1f77b4;"/>
   </g>
   <g id="patch_62">
    <path clip-path="url(#p27cd7dc67e)" d="M 281.392053 294.62875 
L 284.271778 294.62875 
L 284.271778 38.804437 
L 281.392053 38.804437 
z
" style="fill:#1f77b4;"/>
   </g>
   <g id="patch_63">
    <path clip-path="url(#p27cd7dc67e)" d="M 284.99171 294.62875 
L 287.871436 294.62875 
L 287.871436 24.315655 
L 284.99171 24.315655 
z
" style="fill:#1f77b4;"/>
   </g>
   <g id="patch_64">
    <path clip-path="url(#p27cd7dc67e)" d="M 288.591367 294.62875 
L 291.471093 294.62875 
L 291.471093 96.732533 
L 288.591367 96.732533 
z
" style="fill:#1f77b4;"/>
   </g>
   <g id="patch_65">
    <path clip-path="url(#p27cd7dc67e)" d="M 292.191025 294.62875 
L 295.07075 294.62875 
L 295.07075 236.700654 
L 292.191025 236.700654 
z
" style="fill:#1f77b4;"/>
   </g>
   <g id="patch_66">
    <path clip-path="url(#p27cd7dc67e)" d="M 295.790682 294.62875 
L 298.670408 294.62875 
L 298.670408 207.750121 
L 295.790682 207.750121 
z
" style="fill:#1f77b4;"/>
   </g>
   <g id="patch_67">
    <path clip-path="url(#p27cd7dc67e)" d="M 299.390339 294.62875 
L 302.270065 294.62875 
L 302.270065 183.611162 
L 299.390339 183.611162 
z
" style="fill:#1f77b4;"/>
   </g>
   <g id="patch_68">
    <path clip-path="url(#p27cd7dc67e)" d="M 302.989996 294.62875 
L 305.869722 294.62875 
L 305.869722 48.454614 
L 302.989996 48.454614 
z
" style="fill:#1f77b4;"/>
   </g>
   <g id="patch_69">
    <path clip-path="url(#p27cd7dc67e)" d="M 306.589654 294.62875 
L 309.46938 294.62875 
L 309.46938 188.422735 
L 306.589654 188.422735 
z
" style="fill:#1f77b4;"/>
   </g>
   <g id="patch_70">
    <path clip-path="url(#p27cd7dc67e)" d="M 310.189311 294.62875 
L 313.069037 294.62875 
L 313.069037 183.611162 
L 310.189311 183.611162 
z
" style="fill:#1f77b4;"/>
   </g>
   <g id="patch_71">
    <path clip-path="url(#p27cd7dc67e)" d="M 313.788968 294.62875 
L 316.668694 294.62875 
L 316.668694 164.310807 
L 313.788968 164.310807 
z
" style="fill:#1f77b4;"/>
   </g>
   <g id="patch_72">
    <path clip-path="url(#p27cd7dc67e)" d="M 317.388626 294.62875 
L 320.268351 294.62875 
L 320.268351 24.315655 
L 317.388626 24.315655 
z
" style="fill:#1f77b4;"/>
   </g>
   <g id="patch_73">
    <path clip-path="url(#p27cd7dc67e)" d="M 320.988283 294.62875 
L 323.868009 294.62875 
L 323.868009 183.611162 
L 320.988283 183.611162 
z
" style="fill:#1f77b4;"/>
   </g>
   <g id="patch_74">
    <path clip-path="url(#p27cd7dc67e)" d="M 324.58794 294.62875 
L 327.467666 294.62875 
L 327.467666 188.422735 
L 324.58794 188.422735 
z
" style="fill:#1f77b4;"/>
   </g>
   <g id="patch_75">
    <path clip-path="url(#p27cd7dc67e)" d="M 328.187597 294.62875 
L 331.067323 294.62875 
L 331.067323 91.893929 
L 328.187597 91.893929 
z
" style="fill:#1f77b4;"/>
   </g>
   <g id="patch_76">
    <path clip-path="url(#p27cd7dc67e)" d="M 331.787255 294.62875 
L 334.666981 294.62875 
L 334.666981 140.171847 
L 331.787255 140.171847 
z
" style="fill:#1f77b4;"/>
   </g>
   <g id="patch_77">
    <path clip-path="url(#p27cd7dc67e)" d="M 335.386912 294.62875 
L 338.266638 294.62875 
L 338.266638 231.889081 
L 335.386912 231.889081 
z
" style="fill:#1f77b4;"/>
   </g>
   <g id="patch_78">
    <path clip-path="url(#p27cd7dc67e)" d="M 338.986569 294.62875 
L 341.866295 294.62875 
L 341.866295 164.310807 
L 338.986569 164.310807 
z
" style="fill:#1f77b4;"/>
   </g>
   <g id="patch_79">
    <path clip-path="url(#p27cd7dc67e)" d="M 342.586227 294.62875 
L 345.465952 294.62875 
L 345.465952 173.960984 
L 342.586227 173.960984 
z
" style="fill:#1f77b4;"/>
   </g>
   <g id="patch_80">
    <path clip-path="url(#p27cd7dc67e)" d="M 346.185884 294.62875 
L 349.06561 294.62875 
L 349.06561 29.154259 
L 346.185884 29.154259 
z
" style="fill:#1f77b4;"/>
   </g>
   <g id="patch_81">
    <path clip-path="url(#p27cd7dc67e)" d="M 349.785541 294.62875 
L 352.665267 294.62875 
L 352.665267 202.911517 
L 349.785541 202.911517 
z
" style="fill:#1f77b4;"/>
   </g>
   <g id="patch_82">
    <path clip-path="url(#p27cd7dc67e)" d="M 353.385198 294.62875 
L 356.264924 294.62875 
L 356.264924 188.422735 
L 353.385198 188.422735 
z
" style="fill:#1f77b4;"/>
   </g>
   <g id="patch_83">
    <path clip-path="url(#p27cd7dc67e)" d="M 356.984856 294.62875 
L 359.864582 294.62875 
L 359.864582 24.315655 
L 356.984856 24.315655 
z
" style="fill:#1f77b4;"/>
   </g>
   <g id="patch_84">
    <path clip-path="url(#p27cd7dc67e)" d="M 360.584513 294.62875 
L 363.464239 294.62875 
L 363.464239 24.315655 
L 360.584513 24.315655 
z
" style="fill:#1f77b4;"/>
   </g>
   <g id="patch_85">
    <path clip-path="url(#p27cd7dc67e)" d="M 364.18417 294.62875 
L 367.063896 294.62875 
L 367.063896 198.099944 
L 364.18417 198.099944 
z
" style="fill:#1f77b4;"/>
   </g>
   <g id="patch_86">
    <path clip-path="url(#p27cd7dc67e)" d="M 367.783828 294.62875 
L 370.663553 294.62875 
L 370.663553 227.050476 
L 367.783828 227.050476 
z
" style="fill:#1f77b4;"/>
   </g>
   <g id="patch_87">
    <path clip-path="url(#p27cd7dc67e)" d="M 371.383485 294.62875 
L 374.263211 294.62875 
L 374.263211 140.171847 
L 371.383485 140.171847 
z
" style="fill:#1f77b4;"/>
   </g>
   <g id="patch_88">
    <path clip-path="url(#p27cd7dc67e)" d="M 374.983142 294.62875 
L 377.862868 294.62875 
L 377.862868 24.315655 
L 374.983142 24.315655 
z
" style="fill:#1f77b4;"/>
   </g>
   <g id="patch_89">
    <path clip-path="url(#p27cd7dc67e)" d="M 378.582799 294.62875 
L 381.462525 294.62875 
L 381.462525 62.943396 
L 378.582799 62.943396 
z
" style="fill:#1f77b4;"/>
   </g>
   <g id="patch_90">
    <path clip-path="url(#p27cd7dc67e)" d="M 382.182457 294.62875 
L 385.062183 294.62875 
L 385.062183 24.315655 
L 382.182457 24.315655 
z
" style="fill:#1f77b4;"/>
   </g>
   <g id="patch_91">
    <path clip-path="url(#p27cd7dc67e)" d="M 385.782114 294.62875 
L 388.66184 294.62875 
L 388.66184 29.154259 
L 385.782114 29.154259 
z
" style="fill:#1f77b4;"/>
   </g>
   <g id="patch_92">
    <path clip-path="url(#p27cd7dc67e)" d="M 389.381771 294.62875 
L 392.261497 294.62875 
L 392.261497 24.315655 
L 389.381771 24.315655 
z
" style="fill:#1f77b4;"/>
   </g>
   <g id="patch_93">
    <path clip-path="url(#p27cd7dc67e)" d="M 392.981429 294.62875 
L 395.861154 294.62875 
L 395.861154 178.772557 
L 392.981429 178.772557 
z
" style="fill:#1f77b4;"/>
   </g>
   <g id="patch_94">
    <path clip-path="url(#p27cd7dc67e)" d="M 396.581086 294.62875 
L 399.460812 294.62875 
L 399.460812 53.266187 
L 396.581086 53.266187 
z
" style="fill:#1f77b4;"/>
   </g>
   <g id="patch_95">
    <path clip-path="url(#p27cd7dc67e)" d="M 400.180743 294.62875 
L 403.060469 294.62875 
L 403.060469 24.315655 
L 400.180743 24.315655 
z
" style="fill:#1f77b4;"/>
   </g>
   <g id="patch_96">
    <path clip-path="url(#p27cd7dc67e)" d="M 403.7804 294.62875 
L 406.660126 294.62875 
L 406.660126 67.754969 
L 403.7804 67.754969 
z
" style="fill:#1f77b4;"/>
   </g>
   <g id="patch_97">
    <path clip-path="url(#p27cd7dc67e)" d="M 407.380058 294.62875 
L 410.259784 294.62875 
L 410.259784 235.646433 
L 407.380058 235.646433 
z
" style="fill:#1f77b4;"/>
   </g>
   <g id="patch_98">
    <path clip-path="url(#p27cd7dc67e)" d="M 410.979715 294.62875 
L 413.859441 294.62875 
L 413.859441 102.949734 
L 410.979715 102.949734 
z
" style="fill:#1f77b4;"/>
   </g>
   <g id="patch_99">
    <path clip-path="url(#p27cd7dc67e)" d="M 414.579372 294.62875 
L 417.459098 294.62875 
L 417.459098 88.21767 
L 414.579372 88.21767 
z
" style="fill:#1f77b4;"/>
   </g>
   <g id="patch_100">
    <path clip-path="url(#p27cd7dc67e)" d="M 418.17903 294.62875 
L 421.058755 294.62875 
L 421.058755 24.315655 
L 418.17903 24.315655 
z
" style="fill:#1f77b4;"/>
   </g>
   <g id="patch_101">
    <path clip-path="url(#p27cd7dc67e)" d="M 421.778687 294.62875 
L 424.658413 294.62875 
L 424.658413 177.096616 
L 421.778687 177.096616 
z
" style="fill:#1f77b4;"/>
   </g>
   <g id="patch_102">
    <path clip-path="url(#p27cd7dc67e)" d="M 425.378344 294.62875 
L 428.25807 294.62875 
L 428.25807 33.641457 
L 425.378344 33.641457 
z
" style="fill:#1f77b4;"/>
   </g>
   <g id="patch_103">
    <path clip-path="url(#p27cd7dc67e)" d="M 428.978001 294.62875 
L 431.857727 294.62875 
L 431.857727 36.074274 
L 428.978001 36.074274 
z
" style="fill:#1f77b4;"/>
   </g>
   <g id="matplotlib.axis_1">
    <g id="xtick_1">
     <g id="line2d_1">
      <defs>
       <path d="M 0 0 
L 0 3.5 
" id="m18decbb23e" style="stroke:#000000;stroke-width:0.8;"/>
      </defs>
      <g>
       <use style="stroke:#000000;stroke-width:0.8;" x="66.852478" xlink:href="#m18decbb23e" y="294.62875"/>
      </g>
     </g>
     <g id="text_1">
      <!-- 0 -->
      <defs>
       <path d="M 31.78125 66.40625 
Q 24.171875 66.40625 20.328125 58.90625 
Q 16.5 51.421875 16.5 36.375 
Q 16.5 21.390625 20.328125 13.890625 
Q 24.171875 6.390625 31.78125 6.390625 
Q 39.453125 6.390625 43.28125 13.890625 
Q 47.125 21.390625 47.125 36.375 
Q 47.125 51.421875 43.28125 58.90625 
Q 39.453125 66.40625 31.78125 66.40625 
z
M 31.78125 74.21875 
Q 44.046875 74.21875 50.515625 64.515625 
Q 56.984375 54.828125 56.984375 36.375 
Q 56.984375 17.96875 50.515625 8.265625 
Q 44.046875 -1.421875 31.78125 -1.421875 
Q 19.53125 -1.421875 13.0625 8.265625 
Q 6.59375 17.96875 6.59375 36.375 
Q 6.59375 54.828125 13.0625 64.515625 
Q 19.53125 74.21875 31.78125 74.21875 
z
" id="DejaVuSans-48"/>
      </defs>
      <g transform="translate(69.611853 307.99125)rotate(-90)scale(0.1 -0.1)">
       <use xlink:href="#DejaVuSans-48"/>
      </g>
     </g>
    </g>
    <g id="xtick_2">
     <g id="line2d_2">
      <g>
       <use style="stroke:#000000;stroke-width:0.8;" x="138.845624" xlink:href="#m18decbb23e" y="294.62875"/>
      </g>
     </g>
     <g id="text_2">
      <!-- 20 -->
      <defs>
       <path d="M 19.1875 8.296875 
L 53.609375 8.296875 
L 53.609375 0 
L 7.328125 0 
L 7.328125 8.296875 
Q 12.9375 14.109375 22.625 23.890625 
Q 32.328125 33.6875 34.8125 36.53125 
Q 39.546875 41.84375 41.421875 45.53125 
Q 43.3125 49.21875 43.3125 52.78125 
Q 43.3125 58.59375 39.234375 62.25 
Q 35.15625 65.921875 28.609375 65.921875 
Q 23.96875 65.921875 18.8125 64.3125 
Q 13.671875 62.703125 7.8125 59.421875 
L 7.8125 69.390625 
Q 13.765625 71.78125 18.9375 73 
Q 24.125 74.21875 28.421875 74.21875 
Q 39.75 74.21875 46.484375 68.546875 
Q 53.21875 62.890625 53.21875 53.421875 
Q 53.21875 48.921875 51.53125 44.890625 
Q 49.859375 40.875 45.40625 35.40625 
Q 44.1875 33.984375 37.640625 27.21875 
Q 31.109375 20.453125 19.1875 8.296875 
z
" id="DejaVuSans-50"/>
      </defs>
      <g transform="translate(141.604999 314.35375)rotate(-90)scale(0.1 -0.1)">
       <use xlink:href="#DejaVuSans-50"/>
       <use x="63.623047" xlink:href="#DejaVuSans-48"/>
      </g>
     </g>
    </g>
    <g id="xtick_3">
     <g id="line2d_3">
      <g>
       <use style="stroke:#000000;stroke-width:0.8;" x="210.83877" xlink:href="#m18decbb23e" y="294.62875"/>
      </g>
     </g>
     <g id="text_3">
      <!-- 40 -->
      <defs>
       <path d="M 37.796875 64.3125 
L 12.890625 25.390625 
L 37.796875 25.390625 
z
M 35.203125 72.90625 
L 47.609375 72.90625 
L 47.609375 25.390625 
L 58.015625 25.390625 
L 58.015625 17.1875 
L 47.609375 17.1875 
L 47.609375 0 
L 37.796875 0 
L 37.796875 17.1875 
L 4.890625 17.1875 
L 4.890625 26.703125 
z
" id="DejaVuSans-52"/>
      </defs>
      <g transform="translate(213.598145 314.35375)rotate(-90)scale(0.1 -0.1)">
       <use xlink:href="#DejaVuSans-52"/>
       <use x="63.623047" xlink:href="#DejaVuSans-48"/>
      </g>
     </g>
    </g>
    <g id="xtick_4">
     <g id="line2d_4">
      <g>
       <use style="stroke:#000000;stroke-width:0.8;" x="282.831916" xlink:href="#m18decbb23e" y="294.62875"/>
      </g>
     </g>
     <g id="text_4">
      <!-- 60 -->
      <defs>
       <path d="M 33.015625 40.375 
Q 26.375 40.375 22.484375 35.828125 
Q 18.609375 31.296875 18.609375 23.390625 
Q 18.609375 15.53125 22.484375 10.953125 
Q 26.375 6.390625 33.015625 6.390625 
Q 39.65625 6.390625 43.53125 10.953125 
Q 47.40625 15.53125 47.40625 23.390625 
Q 47.40625 31.296875 43.53125 35.828125 
Q 39.65625 40.375 33.015625 40.375 
z
M 52.59375 71.296875 
L 52.59375 62.3125 
Q 48.875 64.0625 45.09375 64.984375 
Q 41.3125 65.921875 37.59375 65.921875 
Q 27.828125 65.921875 22.671875 59.328125 
Q 17.53125 52.734375 16.796875 39.40625 
Q 19.671875 43.65625 24.015625 45.921875 
Q 28.375 48.1875 33.59375 48.1875 
Q 44.578125 48.1875 50.953125 41.515625 
Q 57.328125 34.859375 57.328125 23.390625 
Q 57.328125 12.15625 50.6875 5.359375 
Q 44.046875 -1.421875 33.015625 -1.421875 
Q 20.359375 -1.421875 13.671875 8.265625 
Q 6.984375 17.96875 6.984375 36.375 
Q 6.984375 53.65625 15.1875 63.9375 
Q 23.390625 74.21875 37.203125 74.21875 
Q 40.921875 74.21875 44.703125 73.484375 
Q 48.484375 72.75 52.59375 71.296875 
z
" id="DejaVuSans-54"/>
      </defs>
      <g transform="translate(285.591291 314.35375)rotate(-90)scale(0.1 -0.1)">
       <use xlink:href="#DejaVuSans-54"/>
       <use x="63.623047" xlink:href="#DejaVuSans-48"/>
      </g>
     </g>
    </g>
    <g id="xtick_5">
     <g id="line2d_5">
      <g>
       <use style="stroke:#000000;stroke-width:0.8;" x="354.825061" xlink:href="#m18decbb23e" y="294.62875"/>
      </g>
     </g>
     <g id="text_5">
      <!-- 80 -->
      <defs>
       <path d="M 31.78125 34.625 
Q 24.75 34.625 20.71875 30.859375 
Q 16.703125 27.09375 16.703125 20.515625 
Q 16.703125 13.921875 20.71875 10.15625 
Q 24.75 6.390625 31.78125 6.390625 
Q 38.8125 6.390625 42.859375 10.171875 
Q 46.921875 13.96875 46.921875 20.515625 
Q 46.921875 27.09375 42.890625 30.859375 
Q 38.875 34.625 31.78125 34.625 
z
M 21.921875 38.8125 
Q 15.578125 40.375 12.03125 44.71875 
Q 8.5 49.078125 8.5 55.328125 
Q 8.5 64.0625 14.71875 69.140625 
Q 20.953125 74.21875 31.78125 74.21875 
Q 42.671875 74.21875 48.875 69.140625 
Q 55.078125 64.0625 55.078125 55.328125 
Q 55.078125 49.078125 51.53125 44.71875 
Q 48 40.375 41.703125 38.8125 
Q 48.828125 37.15625 52.796875 32.3125 
Q 56.78125 27.484375 56.78125 20.515625 
Q 56.78125 9.90625 50.3125 4.234375 
Q 43.84375 -1.421875 31.78125 -1.421875 
Q 19.734375 -1.421875 13.25 4.234375 
Q 6.78125 9.90625 6.78125 20.515625 
Q 6.78125 27.484375 10.78125 32.3125 
Q 14.796875 37.15625 21.921875 38.8125 
z
M 18.3125 54.390625 
Q 18.3125 48.734375 21.84375 45.5625 
Q 25.390625 42.390625 31.78125 42.390625 
Q 38.140625 42.390625 41.71875 45.5625 
Q 45.3125 48.734375 45.3125 54.390625 
Q 45.3125 60.0625 41.71875 63.234375 
Q 38.140625 66.40625 31.78125 66.40625 
Q 25.390625 66.40625 21.84375 63.234375 
Q 18.3125 60.0625 18.3125 54.390625 
z
" id="DejaVuSans-56"/>
      </defs>
      <g transform="translate(357.584436 314.35375)rotate(-90)scale(0.1 -0.1)">
       <use xlink:href="#DejaVuSans-56"/>
       <use x="63.623047" xlink:href="#DejaVuSans-48"/>
      </g>
     </g>
    </g>
    <g id="xtick_6">
     <g id="line2d_6">
      <g>
       <use style="stroke:#000000;stroke-width:0.8;" x="426.818207" xlink:href="#m18decbb23e" y="294.62875"/>
      </g>
     </g>
     <g id="text_6">
      <!-- 100 -->
      <defs>
       <path d="M 12.40625 8.296875 
L 28.515625 8.296875 
L 28.515625 63.921875 
L 10.984375 60.40625 
L 10.984375 69.390625 
L 28.421875 72.90625 
L 38.28125 72.90625 
L 38.28125 8.296875 
L 54.390625 8.296875 
L 54.390625 0 
L 12.40625 0 
z
" id="DejaVuSans-49"/>
      </defs>
      <g transform="translate(429.577582 320.71625)rotate(-90)scale(0.1 -0.1)">
       <use xlink:href="#DejaVuSans-49"/>
       <use x="63.623047" xlink:href="#DejaVuSans-48"/>
       <use x="127.246094" xlink:href="#DejaVuSans-48"/>
      </g>
     </g>
    </g>
    <g id="text_7">
     <!-- Residue_Number -->
     <defs>
      <path d="M 44.390625 34.1875 
Q 47.5625 33.109375 50.5625 29.59375 
Q 53.5625 26.078125 56.59375 19.921875 
L 66.609375 0 
L 56 0 
L 46.6875 18.703125 
Q 43.0625 26.03125 39.671875 28.421875 
Q 36.28125 30.8125 30.421875 30.8125 
L 19.671875 30.8125 
L 19.671875 0 
L 9.8125 0 
L 9.8125 72.90625 
L 32.078125 72.90625 
Q 44.578125 72.90625 50.734375 67.671875 
Q 56.890625 62.453125 56.890625 51.90625 
Q 56.890625 45.015625 53.6875 40.46875 
Q 50.484375 35.9375 44.390625 34.1875 
z
M 19.671875 64.796875 
L 19.671875 38.921875 
L 32.078125 38.921875 
Q 39.203125 38.921875 42.84375 42.21875 
Q 46.484375 45.515625 46.484375 51.90625 
Q 46.484375 58.296875 42.84375 61.546875 
Q 39.203125 64.796875 32.078125 64.796875 
z
" id="DejaVuSans-82"/>
      <path d="M 56.203125 29.59375 
L 56.203125 25.203125 
L 14.890625 25.203125 
Q 15.484375 15.921875 20.484375 11.0625 
Q 25.484375 6.203125 34.421875 6.203125 
Q 39.59375 6.203125 44.453125 7.46875 
Q 49.3125 8.734375 54.109375 11.28125 
L 54.109375 2.78125 
Q 49.265625 0.734375 44.1875 -0.34375 
Q 39.109375 -1.421875 33.890625 -1.421875 
Q 20.796875 -1.421875 13.15625 6.1875 
Q 5.515625 13.8125 5.515625 26.8125 
Q 5.515625 40.234375 12.765625 48.109375 
Q 20.015625 56 32.328125 56 
Q 43.359375 56 49.78125 48.890625 
Q 56.203125 41.796875 56.203125 29.59375 
z
M 47.21875 32.234375 
Q 47.125 39.59375 43.09375 43.984375 
Q 39.0625 48.390625 32.421875 48.390625 
Q 24.90625 48.390625 20.390625 44.140625 
Q 15.875 39.890625 15.1875 32.171875 
z
" id="DejaVuSans-101"/>
      <path d="M 44.28125 53.078125 
L 44.28125 44.578125 
Q 40.484375 46.53125 36.375 47.5 
Q 32.28125 48.484375 27.875 48.484375 
Q 21.1875 48.484375 17.84375 46.4375 
Q 14.5 44.390625 14.5 40.28125 
Q 14.5 37.15625 16.890625 35.375 
Q 19.28125 33.59375 26.515625 31.984375 
L 29.59375 31.296875 
Q 39.15625 29.25 43.1875 25.515625 
Q 47.21875 21.78125 47.21875 15.09375 
Q 47.21875 7.46875 41.1875 3.015625 
Q 35.15625 -1.421875 24.609375 -1.421875 
Q 20.21875 -1.421875 15.453125 -0.5625 
Q 10.6875 0.296875 5.421875 2 
L 5.421875 11.28125 
Q 10.40625 8.6875 15.234375 7.390625 
Q 20.0625 6.109375 24.8125 6.109375 
Q 31.15625 6.109375 34.5625 8.28125 
Q 37.984375 10.453125 37.984375 14.40625 
Q 37.984375 18.0625 35.515625 20.015625 
Q 33.0625 21.96875 24.703125 23.78125 
L 21.578125 24.515625 
Q 13.234375 26.265625 9.515625 29.90625 
Q 5.8125 33.546875 5.8125 39.890625 
Q 5.8125 47.609375 11.28125 51.796875 
Q 16.75 56 26.8125 56 
Q 31.78125 56 36.171875 55.265625 
Q 40.578125 54.546875 44.28125 53.078125 
z
" id="DejaVuSans-115"/>
      <path d="M 9.421875 54.6875 
L 18.40625 54.6875 
L 18.40625 0 
L 9.421875 0 
z
M 9.421875 75.984375 
L 18.40625 75.984375 
L 18.40625 64.59375 
L 9.421875 64.59375 
z
" id="DejaVuSans-105"/>
      <path d="M 45.40625 46.390625 
L 45.40625 75.984375 
L 54.390625 75.984375 
L 54.390625 0 
L 45.40625 0 
L 45.40625 8.203125 
Q 42.578125 3.328125 38.25 0.953125 
Q 33.9375 -1.421875 27.875 -1.421875 
Q 17.96875 -1.421875 11.734375 6.484375 
Q 5.515625 14.40625 5.515625 27.296875 
Q 5.515625 40.1875 11.734375 48.09375 
Q 17.96875 56 27.875 56 
Q 33.9375 56 38.25 53.625 
Q 42.578125 51.265625 45.40625 46.390625 
z
M 14.796875 27.296875 
Q 14.796875 17.390625 18.875 11.75 
Q 22.953125 6.109375 30.078125 6.109375 
Q 37.203125 6.109375 41.296875 11.75 
Q 45.40625 17.390625 45.40625 27.296875 
Q 45.40625 37.203125 41.296875 42.84375 
Q 37.203125 48.484375 30.078125 48.484375 
Q 22.953125 48.484375 18.875 42.84375 
Q 14.796875 37.203125 14.796875 27.296875 
z
" id="DejaVuSans-100"/>
      <path d="M 8.5 21.578125 
L 8.5 54.6875 
L 17.484375 54.6875 
L 17.484375 21.921875 
Q 17.484375 14.15625 20.5 10.265625 
Q 23.53125 6.390625 29.59375 6.390625 
Q 36.859375 6.390625 41.078125 11.03125 
Q 45.3125 15.671875 45.3125 23.6875 
L 45.3125 54.6875 
L 54.296875 54.6875 
L 54.296875 0 
L 45.3125 0 
L 45.3125 8.40625 
Q 42.046875 3.421875 37.71875 1 
Q 33.40625 -1.421875 27.6875 -1.421875 
Q 18.265625 -1.421875 13.375 4.4375 
Q 8.5 10.296875 8.5 21.578125 
z
M 31.109375 56 
z
" id="DejaVuSans-117"/>
      <path d="M 50.984375 -16.609375 
L 50.984375 -23.578125 
L -0.984375 -23.578125 
L -0.984375 -16.609375 
z
" id="DejaVuSans-95"/>
      <path d="M 9.8125 72.90625 
L 23.09375 72.90625 
L 55.421875 11.921875 
L 55.421875 72.90625 
L 64.984375 72.90625 
L 64.984375 0 
L 51.703125 0 
L 19.390625 60.984375 
L 19.390625 0 
L 9.8125 0 
z
" id="DejaVuSans-78"/>
      <path d="M 52 44.1875 
Q 55.375 50.25 60.0625 53.125 
Q 64.75 56 71.09375 56 
Q 79.640625 56 84.28125 50.015625 
Q 88.921875 44.046875 88.921875 33.015625 
L 88.921875 0 
L 79.890625 0 
L 79.890625 32.71875 
Q 79.890625 40.578125 77.09375 44.375 
Q 74.3125 48.1875 68.609375 48.1875 
Q 61.625 48.1875 57.5625 43.546875 
Q 53.515625 38.921875 53.515625 30.90625 
L 53.515625 0 
L 44.484375 0 
L 44.484375 32.71875 
Q 44.484375 40.625 41.703125 44.40625 
Q 38.921875 48.1875 33.109375 48.1875 
Q 26.21875 48.1875 22.15625 43.53125 
Q 18.109375 38.875 18.109375 30.90625 
L 18.109375 0 
L 9.078125 0 
L 9.078125 54.6875 
L 18.109375 54.6875 
L 18.109375 46.1875 
Q 21.1875 51.21875 25.484375 53.609375 
Q 29.78125 56 35.6875 56 
Q 41.65625 56 45.828125 52.96875 
Q 50 49.953125 52 44.1875 
z
" id="DejaVuSans-109"/>
      <path d="M 48.6875 27.296875 
Q 48.6875 37.203125 44.609375 42.84375 
Q 40.53125 48.484375 33.40625 48.484375 
Q 26.265625 48.484375 22.1875 42.84375 
Q 18.109375 37.203125 18.109375 27.296875 
Q 18.109375 17.390625 22.1875 11.75 
Q 26.265625 6.109375 33.40625 6.109375 
Q 40.53125 6.109375 44.609375 11.75 
Q 48.6875 17.390625 48.6875 27.296875 
z
M 18.109375 46.390625 
Q 20.953125 51.265625 25.265625 53.625 
Q 29.59375 56 35.59375 56 
Q 45.5625 56 51.78125 48.09375 
Q 58.015625 40.1875 58.015625 27.296875 
Q 58.015625 14.40625 51.78125 6.484375 
Q 45.5625 -1.421875 35.59375 -1.421875 
Q 29.59375 -1.421875 25.265625 0.953125 
Q 20.953125 3.328125 18.109375 8.203125 
L 18.109375 0 
L 9.078125 0 
L 9.078125 75.984375 
L 18.109375 75.984375 
z
" id="DejaVuSans-98"/>
      <path d="M 41.109375 46.296875 
Q 39.59375 47.171875 37.8125 47.578125 
Q 36.03125 48 33.890625 48 
Q 26.265625 48 22.1875 43.046875 
Q 18.109375 38.09375 18.109375 28.8125 
L 18.109375 0 
L 9.078125 0 
L 9.078125 54.6875 
L 18.109375 54.6875 
L 18.109375 46.1875 
Q 20.953125 51.171875 25.484375 53.578125 
Q 30.03125 56 36.53125 56 
Q 37.453125 56 38.578125 55.875 
Q 39.703125 55.765625 41.0625 55.515625 
z
" id="DejaVuSans-114"/>
     </defs>
     <g transform="translate(207.888125 332.314687)scale(0.1 -0.1)">
      <use xlink:href="#DejaVuSans-82"/>
      <use x="69.419922" xlink:href="#DejaVuSans-101"/>
      <use x="130.943359" xlink:href="#DejaVuSans-115"/>
      <use x="183.042969" xlink:href="#DejaVuSans-105"/>
      <use x="210.826172" xlink:href="#DejaVuSans-100"/>
      <use x="274.302734" xlink:href="#DejaVuSans-117"/>
      <use x="337.681641" xlink:href="#DejaVuSans-101"/>
      <use x="399.205078" xlink:href="#DejaVuSans-95"/>
      <use x="449.205078" xlink:href="#DejaVuSans-78"/>
      <use x="524.009766" xlink:href="#DejaVuSans-117"/>
      <use x="587.388672" xlink:href="#DejaVuSans-109"/>
      <use x="684.800781" xlink:href="#DejaVuSans-98"/>
      <use x="748.277344" xlink:href="#DejaVuSans-101"/>
      <use x="809.800781" xlink:href="#DejaVuSans-114"/>
     </g>
    </g>
   </g>
   <g id="matplotlib.axis_2">
    <g id="ytick_1">
     <g id="line2d_7">
      <defs>
       <path d="M 0 0 
L -3.5 0 
" id="mf49ba117a6" style="stroke:#000000;stroke-width:0.8;"/>
      </defs>
      <g>
       <use style="stroke:#000000;stroke-width:0.8;" x="50.87" xlink:href="#mf49ba117a6" y="294.62875"/>
      </g>
     </g>
     <g id="text_8">
      <!-- 0 -->
      <g transform="translate(37.5075 298.427969)scale(0.1 -0.1)">
       <use xlink:href="#DejaVuSans-48"/>
      </g>
     </g>
    </g>
    <g id="ytick_2">
     <g id="line2d_8">
      <g>
       <use style="stroke:#000000;stroke-width:0.8;" x="50.87" xlink:href="#mf49ba117a6" y="240.566131"/>
      </g>
     </g>
     <g id="text_9">
      <!-- 20 -->
      <g transform="translate(31.145 244.36535)scale(0.1 -0.1)">
       <use xlink:href="#DejaVuSans-50"/>
       <use x="63.623047" xlink:href="#DejaVuSans-48"/>
      </g>
     </g>
    </g>
    <g id="ytick_3">
     <g id="line2d_9">
      <g>
       <use style="stroke:#000000;stroke-width:0.8;" x="50.87" xlink:href="#mf49ba117a6" y="186.503512"/>
      </g>
     </g>
     <g id="text_10">
      <!-- 40 -->
      <g transform="translate(31.145 190.302731)scale(0.1 -0.1)">
       <use xlink:href="#DejaVuSans-52"/>
       <use x="63.623047" xlink:href="#DejaVuSans-48"/>
      </g>
     </g>
    </g>
    <g id="ytick_4">
     <g id="line2d_10">
      <g>
       <use style="stroke:#000000;stroke-width:0.8;" x="50.87" xlink:href="#mf49ba117a6" y="132.440893"/>
      </g>
     </g>
     <g id="text_11">
      <!-- 60 -->
      <g transform="translate(31.145 136.240112)scale(0.1 -0.1)">
       <use xlink:href="#DejaVuSans-54"/>
       <use x="63.623047" xlink:href="#DejaVuSans-48"/>
      </g>
     </g>
    </g>
    <g id="ytick_5">
     <g id="line2d_11">
      <g>
       <use style="stroke:#000000;stroke-width:0.8;" x="50.87" xlink:href="#mf49ba117a6" y="78.378274"/>
      </g>
     </g>
     <g id="text_12">
      <!-- 80 -->
      <g transform="translate(31.145 82.177493)scale(0.1 -0.1)">
       <use xlink:href="#DejaVuSans-56"/>
       <use x="63.623047" xlink:href="#DejaVuSans-48"/>
      </g>
     </g>
    </g>
    <g id="ytick_6">
     <g id="line2d_12">
      <g>
       <use style="stroke:#000000;stroke-width:0.8;" x="50.87" xlink:href="#mf49ba117a6" y="24.315655"/>
      </g>
     </g>
     <g id="text_13">
      <!-- 100 -->
      <g transform="translate(24.7825 28.114874)scale(0.1 -0.1)">
       <use xlink:href="#DejaVuSans-49"/>
       <use x="63.623047" xlink:href="#DejaVuSans-48"/>
       <use x="127.246094" xlink:href="#DejaVuSans-48"/>
      </g>
     </g>
    </g>
    <g id="text_14">
     <!-- Conservation -->
     <defs>
      <path d="M 64.40625 67.28125 
L 64.40625 56.890625 
Q 59.421875 61.53125 53.78125 63.8125 
Q 48.140625 66.109375 41.796875 66.109375 
Q 29.296875 66.109375 22.65625 58.46875 
Q 16.015625 50.828125 16.015625 36.375 
Q 16.015625 21.96875 22.65625 14.328125 
Q 29.296875 6.6875 41.796875 6.6875 
Q 48.140625 6.6875 53.78125 8.984375 
Q 59.421875 11.28125 64.40625 15.921875 
L 64.40625 5.609375 
Q 59.234375 2.09375 53.4375 0.328125 
Q 47.65625 -1.421875 41.21875 -1.421875 
Q 24.65625 -1.421875 15.125 8.703125 
Q 5.609375 18.84375 5.609375 36.375 
Q 5.609375 53.953125 15.125 64.078125 
Q 24.65625 74.21875 41.21875 74.21875 
Q 47.75 74.21875 53.53125 72.484375 
Q 59.328125 70.75 64.40625 67.28125 
z
" id="DejaVuSans-67"/>
      <path d="M 30.609375 48.390625 
Q 23.390625 48.390625 19.1875 42.75 
Q 14.984375 37.109375 14.984375 27.296875 
Q 14.984375 17.484375 19.15625 11.84375 
Q 23.34375 6.203125 30.609375 6.203125 
Q 37.796875 6.203125 41.984375 11.859375 
Q 46.1875 17.53125 46.1875 27.296875 
Q 46.1875 37.015625 41.984375 42.703125 
Q 37.796875 48.390625 30.609375 48.390625 
z
M 30.609375 56 
Q 42.328125 56 49.015625 48.375 
Q 55.71875 40.765625 55.71875 27.296875 
Q 55.71875 13.875 49.015625 6.21875 
Q 42.328125 -1.421875 30.609375 -1.421875 
Q 18.84375 -1.421875 12.171875 6.21875 
Q 5.515625 13.875 5.515625 27.296875 
Q 5.515625 40.765625 12.171875 48.375 
Q 18.84375 56 30.609375 56 
z
" id="DejaVuSans-111"/>
      <path d="M 54.890625 33.015625 
L 54.890625 0 
L 45.90625 0 
L 45.90625 32.71875 
Q 45.90625 40.484375 42.875 44.328125 
Q 39.84375 48.1875 33.796875 48.1875 
Q 26.515625 48.1875 22.3125 43.546875 
Q 18.109375 38.921875 18.109375 30.90625 
L 18.109375 0 
L 9.078125 0 
L 9.078125 54.6875 
L 18.109375 54.6875 
L 18.109375 46.1875 
Q 21.34375 51.125 25.703125 53.5625 
Q 30.078125 56 35.796875 56 
Q 45.21875 56 50.046875 50.171875 
Q 54.890625 44.34375 54.890625 33.015625 
z
" id="DejaVuSans-110"/>
      <path d="M 2.984375 54.6875 
L 12.5 54.6875 
L 29.59375 8.796875 
L 46.6875 54.6875 
L 56.203125 54.6875 
L 35.6875 0 
L 23.484375 0 
z
" id="DejaVuSans-118"/>
      <path d="M 34.28125 27.484375 
Q 23.390625 27.484375 19.1875 25 
Q 14.984375 22.515625 14.984375 16.5 
Q 14.984375 11.71875 18.140625 8.90625 
Q 21.296875 6.109375 26.703125 6.109375 
Q 34.1875 6.109375 38.703125 11.40625 
Q 43.21875 16.703125 43.21875 25.484375 
L 43.21875 27.484375 
z
M 52.203125 31.203125 
L 52.203125 0 
L 43.21875 0 
L 43.21875 8.296875 
Q 40.140625 3.328125 35.546875 0.953125 
Q 30.953125 -1.421875 24.3125 -1.421875 
Q 15.921875 -1.421875 10.953125 3.296875 
Q 6 8.015625 6 15.921875 
Q 6 25.140625 12.171875 29.828125 
Q 18.359375 34.515625 30.609375 34.515625 
L 43.21875 34.515625 
L 43.21875 35.40625 
Q 43.21875 41.609375 39.140625 45 
Q 35.0625 48.390625 27.6875 48.390625 
Q 23 48.390625 18.546875 47.265625 
Q 14.109375 46.140625 10.015625 43.890625 
L 10.015625 52.203125 
Q 14.9375 54.109375 19.578125 55.046875 
Q 24.21875 56 28.609375 56 
Q 40.484375 56 46.34375 49.84375 
Q 52.203125 43.703125 52.203125 31.203125 
z
" id="DejaVuSans-97"/>
      <path d="M 18.3125 70.21875 
L 18.3125 54.6875 
L 36.8125 54.6875 
L 36.8125 47.703125 
L 18.3125 47.703125 
L 18.3125 18.015625 
Q 18.3125 11.328125 20.140625 9.421875 
Q 21.96875 7.515625 27.59375 7.515625 
L 36.8125 7.515625 
L 36.8125 0 
L 27.59375 0 
Q 17.1875 0 13.234375 3.875 
Q 9.28125 7.765625 9.28125 18.015625 
L 9.28125 47.703125 
L 2.6875 47.703125 
L 2.6875 54.6875 
L 9.28125 54.6875 
L 9.28125 70.21875 
z
" id="DejaVuSans-116"/>
     </defs>
     <g transform="translate(18.702813 185.771406)rotate(-90)scale(0.1 -0.1)">
      <use xlink:href="#DejaVuSans-67"/>
      <use x="69.824219" xlink:href="#DejaVuSans-111"/>
      <use x="131.005859" xlink:href="#DejaVuSans-110"/>
      <use x="194.384766" xlink:href="#DejaVuSans-115"/>
      <use x="246.484375" xlink:href="#DejaVuSans-101"/>
      <use x="308.007812" xlink:href="#DejaVuSans-114"/>
      <use x="349.121094" xlink:href="#DejaVuSans-118"/>
      <use x="408.300781" xlink:href="#DejaVuSans-97"/>
      <use x="469.580078" xlink:href="#DejaVuSans-116"/>
      <use x="508.789062" xlink:href="#DejaVuSans-105"/>
      <use x="536.572266" xlink:href="#DejaVuSans-111"/>
      <use x="597.753906" xlink:href="#DejaVuSans-110"/>
     </g>
    </g>
   </g>
   <g id="patch_104">
    <path d="M 50.87 294.62875 
L 50.87 10.8 
" style="fill:none;stroke:#000000;stroke-linecap:square;stroke-linejoin:miter;stroke-width:0.8;"/>
   </g>
   <g id="patch_105">
    <path d="M 450 294.62875 
L 450 10.8 
" style="fill:none;stroke:#000000;stroke-linecap:square;stroke-linejoin:miter;stroke-width:0.8;"/>
   </g>
   <g id="patch_106">
    <path d="M 50.87 294.62875 
L 450 294.62875 
" style="fill:none;stroke:#000000;stroke-linecap:square;stroke-linejoin:miter;stroke-width:0.8;"/>
   </g>
   <g id="patch_107">
    <path d="M 50.87 10.8 
L 450 10.8 
" style="fill:none;stroke:#000000;stroke-linecap:square;stroke-linejoin:miter;stroke-width:0.8;"/>
   </g>
  </g>
 </g>
 <defs>
  <clipPath id="p27cd7dc67e">
   <rect height="283.82875" width="399.13" x="50.87" y="10.8"/>
  </clipPath>
 </defs>
</svg>
