<?xml version="1.0" encoding="utf-8" standalone="no"?>
<!DOCTYPE svg PUBLIC "-//W3C//DTD SVG 1.1//EN"
  "http://www.w3.org/Graphics/SVG/1.1/DTD/svg11.dtd">
<!-- Created with matplotlib (https://matplotlib.org/) -->
<svg height="345.6pt" version="1.1" viewBox="0 0 460.8 345.6" width="460.8pt" xmlns="http://www.w3.org/2000/svg" xmlns:xlink="http://www.w3.org/1999/xlink">
 <defs>
  <style type="text/css">
*{stroke-linecap:butt;stroke-linejoin:round;}
  </style>
 </defs>
 <g id="figure_1">
  <g id="patch_1">
   <path d="M 0 345.6 
L 460.8 345.6 
L 460.8 0 
L 0 0 
z
" style="fill:#ffffff;"/>
  </g>
  <g id="axes_1">
   <g id="patch_2">
    <path d="M 44.57 294.73 
L 450 294.73 
L 450 10.8 
L 44.57 10.8 
z
" style="fill:#ffffff;"/>
   </g>
   <g id="matplotlib.axis_1">
    <g id="xtick_1">
     <g id="line2d_1">
      <defs>
       <path d="M 0 0 
L 0 3.5 
" id="m54cc2aa3a0" style="stroke:#000000;stroke-width:0.8;"/>
      </defs>
      <g>
       <use style="stroke:#000000;stroke-width:0.8;" x="62.998636" xlink:href="#m54cc2aa3a0" y="294.73"/>
      </g>
     </g>
     <g id="text_1">
      <!-- 0 -->
      <defs>
       <path d="M 31.78125 66.40625 
Q 24.171875 66.40625 20.328125 58.90625 
Q 16.5 51.421875 16.5 36.375 
Q 16.5 21.390625 20.328125 13.890625 
Q 24.171875 6.390625 31.78125 6.390625 
Q 39.453125 6.390625 43.28125 13.890625 
Q 47.125 21.390625 47.125 36.375 
Q 47.125 51.421875 43.28125 58.90625 
Q 39.453125 66.40625 31.78125 66.40625 
z
M 31.78125 74.21875 
Q 44.046875 74.21875 50.515625 64.515625 
Q 56.984375 54.828125 56.984375 36.375 
Q 56.984375 17.96875 50.515625 8.265625 
Q 44.046875 -1.421875 31.78125 -1.421875 
Q 19.53125 -1.421875 13.0625 8.265625 
Q 6.59375 17.96875 6.59375 36.375 
Q 6.59375 54.828125 13.0625 64.515625 
Q 19.53125 74.21875 31.78125 74.21875 
z
" id="DejaVuSans-48"/>
      </defs>
      <g transform="translate(65.758011 308.0925)rotate(-90)scale(0.1 -0.1)">
       <use xlink:href="#DejaVuSans-48"/>
      </g>
     </g>
    </g>
    <g id="xtick_2">
     <g id="line2d_2">
      <g>
       <use style="stroke:#000000;stroke-width:0.8;" x="124.422305" xlink:href="#m54cc2aa3a0" y="294.73"/>
      </g>
     </g>
     <g id="text_2">
      <!-- 20 -->
      <defs>
       <path d="M 19.1875 8.296875 
L 53.609375 8.296875 
L 53.609375 0 
L 7.328125 0 
L 7.328125 8.296875 
Q 12.9375 14.109375 22.625 23.890625 
Q 32.328125 33.6875 34.8125 36.53125 
Q 39.546875 41.84375 41.421875 45.53125 
Q 43.3125 49.21875 43.3125 52.78125 
Q 43.3125 58.59375 39.234375 62.25 
Q 35.15625 65.921875 28.609375 65.921875 
Q 23.96875 65.921875 18.8125 64.3125 
Q 13.671875 62.703125 7.8125 59.421875 
L 7.8125 69.390625 
Q 13.765625 71.78125 18.9375 73 
Q 24.125 74.21875 28.421875 74.21875 
Q 39.75 74.21875 46.484375 68.546875 
Q 53.21875 62.890625 53.21875 53.421875 
Q 53.21875 48.921875 51.53125 44.890625 
Q 49.859375 40.875 45.40625 35.40625 
Q 44.1875 33.984375 37.640625 27.21875 
Q 31.109375 20.453125 19.1875 8.296875 
z
" id="DejaVuSans-50"/>
      </defs>
      <g transform="translate(127.18168 314.455)rotate(-90)scale(0.1 -0.1)">
       <use xlink:href="#DejaVuSans-50"/>
       <use x="63.623047" xlink:href="#DejaVuSans-48"/>
      </g>
     </g>
    </g>
    <g id="xtick_3">
     <g id="line2d_3">
      <g>
       <use style="stroke:#000000;stroke-width:0.8;" x="185.845973" xlink:href="#m54cc2aa3a0" y="294.73"/>
      </g>
     </g>
     <g id="text_3">
      <!-- 40 -->
      <defs>
       <path d="M 37.796875 64.3125 
L 12.890625 25.390625 
L 37.796875 25.390625 
z
M 35.203125 72.90625 
L 47.609375 72.90625 
L 47.609375 25.390625 
L 58.015625 25.390625 
L 58.015625 17.1875 
L 47.609375 17.1875 
L 47.609375 0 
L 37.796875 0 
L 37.796875 17.1875 
L 4.890625 17.1875 
L 4.890625 26.703125 
z
" id="DejaVuSans-52"/>
      </defs>
      <g transform="translate(188.605348 314.455)rotate(-90)scale(0.1 -0.1)">
       <use xlink:href="#DejaVuSans-52"/>
       <use x="63.623047" xlink:href="#DejaVuSans-48"/>
      </g>
     </g>
    </g>
    <g id="xtick_4">
     <g id="line2d_4">
      <g>
       <use style="stroke:#000000;stroke-width:0.8;" x="247.269641" xlink:href="#m54cc2aa3a0" y="294.73"/>
      </g>
     </g>
     <g id="text_4">
      <!-- 60 -->
      <defs>
       <path d="M 33.015625 40.375 
Q 26.375 40.375 22.484375 35.828125 
Q 18.609375 31.296875 18.609375 23.390625 
Q 18.609375 15.53125 22.484375 10.953125 
Q 26.375 6.390625 33.015625 6.390625 
Q 39.65625 6.390625 43.53125 10.953125 
Q 47.40625 15.53125 47.40625 23.390625 
Q 47.40625 31.296875 43.53125 35.828125 
Q 39.65625 40.375 33.015625 40.375 
z
M 52.59375 71.296875 
L 52.59375 62.3125 
Q 48.875 64.0625 45.09375 64.984375 
Q 41.3125 65.921875 37.59375 65.921875 
Q 27.828125 65.921875 22.671875 59.328125 
Q 17.53125 52.734375 16.796875 39.40625 
Q 19.671875 43.65625 24.015625 45.921875 
Q 28.375 48.1875 33.59375 48.1875 
Q 44.578125 48.1875 50.953125 41.515625 
Q 57.328125 34.859375 57.328125 23.390625 
Q 57.328125 12.15625 50.6875 5.359375 
Q 44.046875 -1.421875 33.015625 -1.421875 
Q 20.359375 -1.421875 13.671875 8.265625 
Q 6.984375 17.96875 6.984375 36.375 
Q 6.984375 53.65625 15.1875 63.9375 
Q 23.390625 74.21875 37.203125 74.21875 
Q 40.921875 74.21875 44.703125 73.484375 
Q 48.484375 72.75 52.59375 71.296875 
z
" id="DejaVuSans-54"/>
      </defs>
      <g transform="translate(250.029016 314.455)rotate(-90)scale(0.1 -0.1)">
       <use xlink:href="#DejaVuSans-54"/>
       <use x="63.623047" xlink:href="#DejaVuSans-48"/>
      </g>
     </g>
    </g>
    <g id="xtick_5">
     <g id="line2d_5">
      <g>
       <use style="stroke:#000000;stroke-width:0.8;" x="308.693309" xlink:href="#m54cc2aa3a0" y="294.73"/>
      </g>
     </g>
     <g id="text_5">
      <!-- 80 -->
      <defs>
       <path d="M 31.78125 34.625 
Q 24.75 34.625 20.71875 30.859375 
Q 16.703125 27.09375 16.703125 20.515625 
Q 16.703125 13.921875 20.71875 10.15625 
Q 24.75 6.390625 31.78125 6.390625 
Q 38.8125 6.390625 42.859375 10.171875 
Q 46.921875 13.96875 46.921875 20.515625 
Q 46.921875 27.09375 42.890625 30.859375 
Q 38.875 34.625 31.78125 34.625 
z
M 21.921875 38.8125 
Q 15.578125 40.375 12.03125 44.71875 
Q 8.5 49.078125 8.5 55.328125 
Q 8.5 64.0625 14.71875 69.140625 
Q 20.953125 74.21875 31.78125 74.21875 
Q 42.671875 74.21875 48.875 69.140625 
Q 55.078125 64.0625 55.078125 55.328125 
Q 55.078125 49.078125 51.53125 44.71875 
Q 48 40.375 41.703125 38.8125 
Q 48.828125 37.15625 52.796875 32.3125 
Q 56.78125 27.484375 56.78125 20.515625 
Q 56.78125 9.90625 50.3125 4.234375 
Q 43.84375 -1.421875 31.78125 -1.421875 
Q 19.734375 -1.421875 13.25 4.234375 
Q 6.78125 9.90625 6.78125 20.515625 
Q 6.78125 27.484375 10.78125 32.3125 
Q 14.796875 37.15625 21.921875 38.8125 
z
M 18.3125 54.390625 
Q 18.3125 48.734375 21.84375 45.5625 
Q 25.390625 42.390625 31.78125 42.390625 
Q 38.140625 42.390625 41.71875 45.5625 
Q 45.3125 48.734375 45.3125 54.390625 
Q 45.3125 60.0625 41.71875 63.234375 
Q 38.140625 66.40625 31.78125 66.40625 
Q 25.390625 66.40625 21.84375 63.234375 
Q 18.3125 60.0625 18.3125 54.390625 
z
" id="DejaVuSans-56"/>
      </defs>
      <g transform="translate(311.452684 314.455)rotate(-90)scale(0.1 -0.1)">
       <use xlink:href="#DejaVuSans-56"/>
       <use x="63.623047" xlink:href="#DejaVuSans-48"/>
      </g>
     </g>
    </g>
    <g id="xtick_6">
     <g id="line2d_6">
      <g>
       <use style="stroke:#000000;stroke-width:0.8;" x="370.116977" xlink:href="#m54cc2aa3a0" y="294.73"/>
      </g>
     </g>
     <g id="text_6">
      <!-- 100 -->
      <defs>
       <path d="M 12.40625 8.296875 
L 28.515625 8.296875 
L 28.515625 63.921875 
L 10.984375 60.40625 
L 10.984375 69.390625 
L 28.421875 72.90625 
L 38.28125 72.90625 
L 38.28125 8.296875 
L 54.390625 8.296875 
L 54.390625 0 
L 12.40625 0 
z
" id="DejaVuSans-49"/>
      </defs>
      <g transform="translate(372.876352 320.8175)rotate(-90)scale(0.1 -0.1)">
       <use xlink:href="#DejaVuSans-49"/>
       <use x="63.623047" xlink:href="#DejaVuSans-48"/>
       <use x="127.246094" xlink:href="#DejaVuSans-48"/>
      </g>
     </g>
    </g>
    <g id="xtick_7">
     <g id="line2d_7">
      <g>
       <use style="stroke:#000000;stroke-width:0.8;" x="431.540646" xlink:href="#m54cc2aa3a0" y="294.73"/>
      </g>
     </g>
     <g id="text_7">
      <!-- 120 -->
      <g transform="translate(434.300021 320.8175)rotate(-90)scale(0.1 -0.1)">
       <use xlink:href="#DejaVuSans-49"/>
       <use x="63.623047" xlink:href="#DejaVuSans-50"/>
       <use x="127.246094" xlink:href="#DejaVuSans-48"/>
      </g>
     </g>
    </g>
    <g id="text_8">
     <!-- ('UV', 'ml') -->
     <defs>
      <path d="M 31 75.875 
Q 24.46875 64.65625 21.28125 53.65625 
Q 18.109375 42.671875 18.109375 31.390625 
Q 18.109375 20.125 21.3125 9.0625 
Q 24.515625 -2 31 -13.1875 
L 23.1875 -13.1875 
Q 15.875 -1.703125 12.234375 9.375 
Q 8.59375 20.453125 8.59375 31.390625 
Q 8.59375 42.28125 12.203125 53.3125 
Q 15.828125 64.359375 23.1875 75.875 
z
" id="DejaVuSans-40"/>
      <path d="M 17.921875 72.90625 
L 17.921875 45.796875 
L 9.625 45.796875 
L 9.625 72.90625 
z
" id="DejaVuSans-39"/>
      <path d="M 8.6875 72.90625 
L 18.609375 72.90625 
L 18.609375 28.609375 
Q 18.609375 16.890625 22.84375 11.734375 
Q 27.09375 6.59375 36.625 6.59375 
Q 46.09375 6.59375 50.34375 11.734375 
Q 54.59375 16.890625 54.59375 28.609375 
L 54.59375 72.90625 
L 64.5 72.90625 
L 64.5 27.390625 
Q 64.5 13.140625 57.4375 5.859375 
Q 50.390625 -1.421875 36.625 -1.421875 
Q 22.796875 -1.421875 15.734375 5.859375 
Q 8.6875 13.140625 8.6875 27.390625 
z
" id="DejaVuSans-85"/>
      <path d="M 28.609375 0 
L 0.78125 72.90625 
L 11.078125 72.90625 
L 34.1875 11.53125 
L 57.328125 72.90625 
L 67.578125 72.90625 
L 39.796875 0 
z
" id="DejaVuSans-86"/>
      <path d="M 11.71875 12.40625 
L 22.015625 12.40625 
L 22.015625 4 
L 14.015625 -11.625 
L 7.71875 -11.625 
L 11.71875 4 
z
" id="DejaVuSans-44"/>
      <path id="DejaVuSans-32"/>
      <path d="M 52 44.1875 
Q 55.375 50.25 60.0625 53.125 
Q 64.75 56 71.09375 56 
Q 79.640625 56 84.28125 50.015625 
Q 88.921875 44.046875 88.921875 33.015625 
L 88.921875 0 
L 79.890625 0 
L 79.890625 32.71875 
Q 79.890625 40.578125 77.09375 44.375 
Q 74.3125 48.1875 68.609375 48.1875 
Q 61.625 48.1875 57.5625 43.546875 
Q 53.515625 38.921875 53.515625 30.90625 
L 53.515625 0 
L 44.484375 0 
L 44.484375 32.71875 
Q 44.484375 40.625 41.703125 44.40625 
Q 38.921875 48.1875 33.109375 48.1875 
Q 26.21875 48.1875 22.15625 43.53125 
Q 18.109375 38.875 18.109375 30.90625 
L 18.109375 0 
L 9.078125 0 
L 9.078125 54.6875 
L 18.109375 54.6875 
L 18.109375 46.1875 
Q 21.1875 51.21875 25.484375 53.609375 
Q 29.78125 56 35.6875 56 
Q 41.65625 56 45.828125 52.96875 
Q 50 49.953125 52 44.1875 
z
" id="DejaVuSans-109"/>
      <path d="M 9.421875 75.984375 
L 18.40625 75.984375 
L 18.40625 0 
L 9.421875 0 
z
" id="DejaVuSans-108"/>
      <path d="M 8.015625 75.875 
L 15.828125 75.875 
Q 23.140625 64.359375 26.78125 53.3125 
Q 30.421875 42.28125 30.421875 31.390625 
Q 30.421875 20.453125 26.78125 9.375 
Q 23.140625 -1.703125 15.828125 -13.1875 
L 8.015625 -13.1875 
Q 14.5 -2 17.703125 9.0625 
Q 20.90625 20.125 20.90625 31.390625 
Q 20.90625 42.671875 17.703125 53.65625 
Q 14.5 64.65625 8.015625 75.875 
z
" id="DejaVuSans-41"/>
     </defs>
     <g transform="translate(221.369375 332.415937)scale(0.1 -0.1)">
      <use xlink:href="#DejaVuSans-40"/>
      <use x="39.013672" xlink:href="#DejaVuSans-39"/>
      <use x="66.503906" xlink:href="#DejaVuSans-85"/>
      <use x="139.697266" xlink:href="#DejaVuSans-86"/>
      <use x="208.105469" xlink:href="#DejaVuSans-39"/>
      <use x="235.595703" xlink:href="#DejaVuSans-44"/>
      <use x="267.382812" xlink:href="#DejaVuSans-32"/>
      <use x="299.169922" xlink:href="#DejaVuSans-39"/>
      <use x="326.660156" xlink:href="#DejaVuSans-109"/>
      <use x="424.072266" xlink:href="#DejaVuSans-108"/>
      <use x="451.855469" xlink:href="#DejaVuSans-39"/>
      <use x="479.345703" xlink:href="#DejaVuSans-41"/>
     </g>
    </g>
   </g>
   <g id="matplotlib.axis_2">
    <g id="ytick_1">
     <g id="line2d_8">
      <defs>
       <path d="M 0 0 
L -3.5 0 
" id="m010391c256" style="stroke:#000000;stroke-width:0.8;"/>
      </defs>
      <g>
       <use style="stroke:#000000;stroke-width:0.8;" x="44.57" xlink:href="#m010391c256" y="260.445848"/>
      </g>
     </g>
     <g id="text_9">
      <!-- 0 -->
      <g transform="translate(31.2075 264.245067)scale(0.1 -0.1)">
       <use xlink:href="#DejaVuSans-48"/>
      </g>
     </g>
    </g>
    <g id="ytick_2">
     <g id="line2d_9">
      <g>
       <use style="stroke:#000000;stroke-width:0.8;" x="44.57" xlink:href="#m010391c256" y="206.691151"/>
      </g>
     </g>
     <g id="text_10">
      <!-- 10 -->
      <g transform="translate(24.845 210.490369)scale(0.1 -0.1)">
       <use xlink:href="#DejaVuSans-49"/>
       <use x="63.623047" xlink:href="#DejaVuSans-48"/>
      </g>
     </g>
    </g>
    <g id="ytick_3">
     <g id="line2d_10">
      <g>
       <use style="stroke:#000000;stroke-width:0.8;" x="44.57" xlink:href="#m010391c256" y="152.936453"/>
      </g>
     </g>
     <g id="text_11">
      <!-- 20 -->
      <g transform="translate(24.845 156.735672)scale(0.1 -0.1)">
       <use xlink:href="#DejaVuSans-50"/>
       <use x="63.623047" xlink:href="#DejaVuSans-48"/>
      </g>
     </g>
    </g>
    <g id="ytick_4">
     <g id="line2d_11">
      <g>
       <use style="stroke:#000000;stroke-width:0.8;" x="44.57" xlink:href="#m010391c256" y="99.181756"/>
      </g>
     </g>
     <g id="text_12">
      <!-- 30 -->
      <defs>
       <path d="M 40.578125 39.3125 
Q 47.65625 37.796875 51.625 33 
Q 55.609375 28.21875 55.609375 21.1875 
Q 55.609375 10.40625 48.1875 4.484375 
Q 40.765625 -1.421875 27.09375 -1.421875 
Q 22.515625 -1.421875 17.65625 -0.515625 
Q 12.796875 0.390625 7.625 2.203125 
L 7.625 11.71875 
Q 11.71875 9.328125 16.59375 8.109375 
Q 21.484375 6.890625 26.8125 6.890625 
Q 36.078125 6.890625 40.9375 10.546875 
Q 45.796875 14.203125 45.796875 21.1875 
Q 45.796875 27.640625 41.28125 31.265625 
Q 36.765625 34.90625 28.71875 34.90625 
L 20.21875 34.90625 
L 20.21875 43.015625 
L 29.109375 43.015625 
Q 36.375 43.015625 40.234375 45.921875 
Q 44.09375 48.828125 44.09375 54.296875 
Q 44.09375 59.90625 40.109375 62.90625 
Q 36.140625 65.921875 28.71875 65.921875 
Q 24.65625 65.921875 20.015625 65.03125 
Q 15.375 64.15625 9.8125 62.3125 
L 9.8125 71.09375 
Q 15.4375 72.65625 20.34375 73.4375 
Q 25.25 74.21875 29.59375 74.21875 
Q 40.828125 74.21875 47.359375 69.109375 
Q 53.90625 64.015625 53.90625 55.328125 
Q 53.90625 49.265625 50.4375 45.09375 
Q 46.96875 40.921875 40.578125 39.3125 
z
" id="DejaVuSans-51"/>
      </defs>
      <g transform="translate(24.845 102.980975)scale(0.1 -0.1)">
       <use xlink:href="#DejaVuSans-51"/>
       <use x="63.623047" xlink:href="#DejaVuSans-48"/>
      </g>
     </g>
    </g>
    <g id="ytick_5">
     <g id="line2d_12">
      <g>
       <use style="stroke:#000000;stroke-width:0.8;" x="44.57" xlink:href="#m010391c256" y="45.427059"/>
      </g>
     </g>
     <g id="text_13">
      <!-- 40 -->
      <g transform="translate(24.845 49.226278)scale(0.1 -0.1)">
       <use xlink:href="#DejaVuSans-52"/>
       <use x="63.623047" xlink:href="#DejaVuSans-48"/>
      </g>
     </g>
    </g>
    <g id="text_14">
     <!-- ('UV', 'mAu') -->
     <defs>
      <path d="M 34.1875 63.1875 
L 20.796875 26.90625 
L 47.609375 26.90625 
z
M 28.609375 72.90625 
L 39.796875 72.90625 
L 67.578125 0 
L 57.328125 0 
L 50.6875 18.703125 
L 17.828125 18.703125 
L 11.1875 0 
L 0.78125 0 
z
" id="DejaVuSans-65"/>
      <path d="M 8.5 21.578125 
L 8.5 54.6875 
L 17.484375 54.6875 
L 17.484375 21.921875 
Q 17.484375 14.15625 20.5 10.265625 
Q 23.53125 6.390625 29.59375 6.390625 
Q 36.859375 6.390625 41.078125 11.03125 
Q 45.3125 15.671875 45.3125 23.6875 
L 45.3125 54.6875 
L 54.296875 54.6875 
L 54.296875 0 
L 45.3125 0 
L 45.3125 8.40625 
Q 42.046875 3.421875 37.71875 1 
Q 33.40625 -1.421875 27.6875 -1.421875 
Q 18.265625 -1.421875 13.375 4.4375 
Q 8.5 10.296875 8.5 21.578125 
z
M 31.109375 56 
z
" id="DejaVuSans-117"/>
     </defs>
     <g transform="translate(18.765313 183.880625)rotate(-90)scale(0.1 -0.1)">
      <use xlink:href="#DejaVuSans-40"/>
      <use x="39.013672" xlink:href="#DejaVuSans-39"/>
      <use x="66.503906" xlink:href="#DejaVuSans-85"/>
      <use x="139.697266" xlink:href="#DejaVuSans-86"/>
      <use x="208.105469" xlink:href="#DejaVuSans-39"/>
      <use x="235.595703" xlink:href="#DejaVuSans-44"/>
      <use x="267.382812" xlink:href="#DejaVuSans-32"/>
      <use x="299.169922" xlink:href="#DejaVuSans-39"/>
      <use x="326.660156" xlink:href="#DejaVuSans-109"/>
      <use x="424.072266" xlink:href="#DejaVuSans-65"/>
      <use x="492.480469" xlink:href="#DejaVuSans-117"/>
      <use x="555.859375" xlink:href="#DejaVuSans-39"/>
      <use x="583.349609" xlink:href="#DejaVuSans-41"/>
     </g>
    </g>
   </g>
   <g id="line2d_13">
    <path clip-path="url(#p71b44fa94d)" d="M 62.998636 266.692144 
L 63.069461 267.947525 
L 63.093069 266.981645 
L 63.258326 253.253765 
L 63.305543 251.499007 
L 63.352762 248.433076 
L 63.399979 250.031268 
L 63.494411 253.81713 
L 63.565236 252.74209 
L 63.683277 251.794078 
L 63.706885 251.853025 
L 63.824926 253.258775 
L 64.485958 266.356198 
L 64.792868 269.277594 
L 64.887301 269.479464 
L 64.910909 269.432499 
L 65.265032 267.855976 
L 65.689982 263.070421 
L 67.012047 240.937172 
L 67.366172 239.121639 
L 67.389781 239.129213 
L 67.602254 239.413118 
L 68.003597 241.741164 
L 69.349269 252.179972 
L 69.727 253.369778 
L 70.222775 254.755462 
L 70.317208 254.748296 
L 70.388033 254.726257 
L 70.411641 254.760138 
L 70.576901 255.139458 
L 70.624118 255.0689 
L 70.647726 255.046403 
L 70.694942 255.130417 
L 70.836591 255.302953 
L 70.860199 255.288493 
L 70.907416 255.262175 
L 70.954632 255.345694 
L 71.214322 255.718579 
L 71.332366 255.685047 
L 71.355974 255.730378 
L 71.474015 255.933173 
L 71.497624 255.903576 
L 71.639273 255.793137 
L 71.662881 255.829341 
L 71.898966 255.784579 
L 72.205872 255.484365 
L 72.300305 255.632244 
L 72.394738 255.772796 
L 72.465562 255.72417 
L 72.536387 255.783095 
L 72.937729 256.794168 
L 73.36268 257.78119 
L 73.952887 259.494959 
L 74.188969 259.882832 
L 74.684744 261.042971 
L 75.322168 262.357827 
L 75.747119 263.126326 
L 76.148458 263.699969 
L 76.360935 264.162587 
L 76.738666 264.733704 
L 76.974747 264.992511 
L 77.588563 265.546432 
L 77.966297 265.854484 
L 78.155163 266.059204 
L 78.391248 266.191037 
L 79.146713 266.850822 
L 79.382795 267.037824 
L 79.642485 267.267577 
L 79.996611 267.519789 
L 80.114652 267.685052 
L 80.327125 267.832259 
L 80.421561 267.793911 
L 80.445166 267.827722 
L 80.657643 268.067845 
L 80.940941 268.295582 
L 81.247851 268.461791 
L 81.436716 268.57953 
L 81.554757 268.643772 
L 81.578365 268.624491 
L 82.097749 268.878702 
L 82.522699 269.030236 
L 82.664348 269.150926 
L 82.687956 269.125404 
L 82.782389 269.108175 
L 82.805997 269.130903 
L 83.018474 269.267413 
L 84.789094 270.281597 
L 84.907135 270.276625 
L 85.048787 270.343077 
L 85.214045 270.428224 
L 85.355694 270.411361 
L 85.709817 270.784951 
L 85.851469 270.8437 
L 87.551264 271.611214 
L 87.763741 271.640156 
L 87.976215 271.672516 
L 89.41632 271.667469 
L 89.605186 271.613349 
L 89.746838 271.542188 
L 89.888487 271.522863 
L 90.14818 271.465362 
L 90.761993 271.164524 
L 91.068903 271.07628 
L 91.399417 270.875598 
L 92.792306 271.09375 
L 93.146432 271.402603 
L 93.594991 271.824637 
L 93.925506 272.083691 
L 94.16159 271.748499 
L 94.279631 271.652966 
L 94.303237 271.673898 
L 94.657362 272.012531 
L 94.775403 271.623401 
L 95.105921 270.074357 
L 95.294787 269.936057 
L 95.507263 270.064154 
L 97.183451 272.403682 
L 97.773658 272.857555 
L 98.222217 273.21061 
L 98.552732 273.387753 
L 99.213764 273.751162 
L 99.449849 273.902229 
L 99.945621 274.105029 
L 100.394179 274.293267 
L 100.583045 274.382033 
L 101.055212 274.531997 
L 101.857896 274.828304 
L 104.808932 275.713187 
L 105.729654 275.912026 
L 106.437903 275.912913 
L 106.697593 275.894948 
L 107.240584 275.792271 
L 107.948833 275.584369 
L 108.137702 275.440597 
L 108.421 275.30929 
L 108.609868 275.267754 
L 109.058424 275.011979 
L 109.388939 274.884306 
L 109.743064 274.843909 
L 110.380489 274.87198 
L 110.947088 275.004528 
L 111.324822 275.207861 
L 111.60812 275.339345 
L 111.985854 275.414381 
L 112.245541 275.650783 
L 113.496785 276.29949 
L 113.968948 276.492458 
L 114.441115 276.69049 
L 114.653592 276.754201 
L 115.196583 276.907665 
L 115.45627 276.962774 
L 116.282563 277.217313 
L 116.542256 277.172052 
L 116.778338 277.262037 
L 117.344937 277.437111 
L 117.628239 277.439535 
L 118.100403 277.565063 
L 118.430917 277.555516 
L 118.808651 277.692672 
L 119.587724 277.859241 
L 119.894634 277.904718 
L 120.366798 278.014759 
L 120.579271 278.096052 
L 120.76814 278.136519 
L 121.169482 278.242034 
L 122.44433 278.690133 
L 122.727626 278.685247 
L 122.892886 278.677307 
L 123.577526 278.918612 
L 124.899594 279.176892 
L 125.442585 279.345999 
L 126.386916 279.4483 
L 126.811866 279.505178 
L 127.354858 279.514676 
L 132.619505 279.381128 
L 132.808374 279.362126 
L 133.20971 279.470302 
L 134.531777 279.590814 
L 135.546932 279.724196 
L 135.759406 279.80829 
L 136.019102 279.909354 
L 136.278789 279.932227 
L 139.064571 280.307929 
L 139.371477 280.317519 
L 140.858802 280.501935 
L 141.165712 280.484583 
L 141.685095 280.528603 
L 142.369732 280.635612 
L 142.511378 280.617416 
L 142.959943 280.603859 
L 143.52654 280.683717 
L 143.78623 280.654281 
L 144.400046 280.738875 
L 148.106549 280.846067 
L 148.460672 280.804977 
L 149.074491 280.777525 
L 150.46738 280.787383 
L 150.703462 280.797376 
L 152.592126 280.707251 
L 152.780989 280.676326 
L 153.040685 280.639719 
L 153.583673 280.572741 
L 153.843363 280.576676 
L 154.339138 280.559318 
L 154.787697 280.479143 
L 155.000171 280.455292 
L 155.401513 280.352793 
L 155.637595 280.298753 
L 156.13337 280.342955 
L 157.715121 280.174031 
L 158.116464 280.134473 
L 158.565022 280.017933 
L 162.224313 279.723852 
L 162.413181 279.754653 
L 162.578429 279.711757 
L 162.861737 279.624712 
L 163.404722 279.697399 
L 164.136585 279.748482 
L 164.703175 279.761523 
L 165.128126 279.780783 
L 165.623907 279.762281 
L 165.907205 279.844123 
L 166.402974 279.724658 
L 166.969577 279.770253 
L 167.347314 279.62547 
L 169.708142 279.462964 
L 170.038653 279.361217 
L 170.487209 279.454009 
L 171.195467 279.437049 
L 171.596809 279.469243 
L 171.903712 279.469958 
L 172.659183 279.621836 
L 173.060513 279.726024 
L 173.579903 279.915799 
L 173.910411 280.043692 
L 175.444962 280.83143 
L 176.176813 281.101063 
L 177.593316 281.727703 
L 178.702904 281.323285 
L 179.647231 279.680456 
L 180.284655 277.556468 
L 180.66239 276.172645 
L 181.110948 274.452543 
L 181.984454 272.032533 
L 182.480223 271.412107 
L 182.952399 271.597738 
L 183.637036 272.476455 
L 184.321674 273.860736 
L 184.628589 274.392063 
L 185.006314 275.102625 
L 185.360443 275.471065 
L 186.328376 276.327216 
L 186.635292 276.552411 
L 186.918587 276.711218 
L 187.178274 276.740945 
L 188.146222 277.22049 
L 189.066941 277.731375 
L 190.294576 278.33998 
L 192.324895 278.868254 
L 193.552518 278.728191 
L 194.378811 278.342077 
L 195.512004 277.308358 
L 196.338296 275.740124 
L 197.23541 273.092855 
L 197.872835 270.418994 
L 198.581089 266.79825 
L 199.1713 263.33656 
L 201.484906 249.674906 
L 201.602953 249.340767 
L 202.523672 247.169464 
L 202.736146 247.221725 
L 202.854193 247.141555 
L 203.161096 247.051107 
L 203.37357 247.463986 
L 203.940172 248.763694 
L 204.129041 249.359017 
L 205.073368 253.278691 
L 206.56069 260.294168 
L 206.962036 261.918259 
L 207.481413 263.996098 
L 208.000802 265.664031 
L 208.709048 267.693395 
L 209.795027 269.974368 
L 210.715747 271.263094 
L 210.904615 271.513333 
L 212.061429 272.528775 
L 212.769674 272.845116 
L 213.312669 272.963554 
L 214.327818 273.416587 
L 214.752768 273.649829 
L 215.319371 273.904427 
L 215.720713 274.093338 
L 216.051221 274.277098 
L 216.452567 274.571077 
L 217.208038 274.845516 
L 217.562155 274.985838 
L 219.970208 275.400405 
L 221.103404 275.290143 
L 222.212992 274.891428 
L 222.590726 274.703545 
L 223.369805 274.064982 
L 224.904341 272.161061 
L 226.061145 270.279657 
L 226.368057 269.768417 
L 227.477645 267.508979 
L 227.926201 266.677883 
L 228.044239 266.460687 
L 228.469186 265.584528 
L 228.941362 264.801365 
L 229.319087 264.094722 
L 229.885689 263.183252 
L 230.05095 262.935696 
L 230.523114 262.254134 
L 230.877243 261.942868 
L 232.057652 260.84753 
L 232.364564 260.765586 
L 233.379713 260.658001 
L 233.639413 260.771574 
L 234.206006 260.925297 
L 234.630953 261.249346 
L 234.985082 261.440433 
L 235.221164 261.729763 
L 235.787767 262.297106 
L 235.976635 262.509458 
L 236.897355 263.704721 
L 237.345913 264.388776 
L 237.86529 265.146185 
L 238.691583 266.398552 
L 239.258186 267.374764 
L 239.706741 268.097641 
L 241.028803 270.196778 
L 241.453753 270.837652 
L 243.720155 274.003487 
L 244.16871 274.536131 
L 245.301906 275.758083 
L 245.703248 276.193195 
L 246.128199 276.50866 
L 248.182126 278.165487 
L 248.465422 278.332987 
L 248.772325 278.500508 
L 249.244498 278.725208 
L 249.693057 278.984854 
L 250.236039 279.204022 
L 251.794185 279.738409 
L 252.478835 279.862249 
L 252.950999 279.953411 
L 254.367499 280.087814 
L 257.649049 279.98589 
L 257.932344 279.938295 
L 258.357295 279.904452 
L 258.569769 279.856669 
L 259.301635 279.676983 
L 260.647301 279.394739 
L 261.001421 279.291616 
L 262.394316 278.943473 
L 262.795646 278.85394 
L 264.117732 278.462847 
L 264.637109 278.351623 
L 264.920392 278.228649 
L 265.439794 278.107222 
L 266.124431 277.923145 
L 266.596595 277.751909 
L 266.879881 277.711857 
L 267.281236 277.639992 
L 267.588136 277.572094 
L 270.77526 277.038418 
L 271.011351 276.986421 
L 271.34185 276.937789 
L 272.120939 276.897 
L 273.490216 276.88684 
L 273.726286 276.870875 
L 274.36371 276.884034 
L 275.969079 276.994801 
L 277.432808 277.098327 
L 277.857759 277.13638 
L 278.495183 277.243454 
L 280.903215 277.350259 
L 281.210118 277.359118 
L 281.564256 277.421721 
L 282.27249 277.400079 
L 285.790134 277.289823 
L 286.097037 277.299967 
L 289.543845 277.093678 
L 290.20489 277.02378 
L 290.700671 277.046083 
L 291.597785 277.098671 
L 291.999115 277.017615 
L 292.542112 277.103294 
L 293.014276 277.034096 
L 293.22675 277.039923 
L 294.477981 277.005815 
L 294.832119 276.970042 
L 295.162643 276.974681 
L 295.42233 276.947932 
L 296.036136 276.883013 
L 296.24861 276.877202 
L 296.555513 276.77231 
L 297.122128 276.706418 
L 299.907894 275.981993 
L 302.29233 274.596901 
L 304.204606 272.749105 
L 305.455858 271.042936 
L 305.975235 270.279049 
L 306.352969 269.573557 
L 306.919563 268.623448 
L 307.132036 268.201016 
L 308.831835 264.710229 
L 309.303999 263.480575 
L 309.941423 262.009636 
L 310.295539 261.165134 
L 310.62606 260.588894 
L 311.452365 258.661466 
L 311.617626 258.213077 
L 312.018956 257.208288 
L 312.51474 256.340129 
L 312.868856 255.460514 
L 313.057713 255.231196 
L 314.072871 253.674637 
L 314.308965 253.374434 
L 314.922769 252.668425 
L 315.088032 252.587626 
L 315.300506 252.333979 
L 315.560196 252.058164 
L 315.796287 252.034291 
L 316.079573 252.043929 
L 316.480927 251.761395 
L 316.716997 251.908371 
L 317.118352 252.012859 
L 317.330825 251.968012 
L 317.543299 252.122169 
L 317.850202 252.420685 
L 318.275153 252.565092 
L 318.416796 252.716057 
L 318.912577 253.219857 
L 319.125051 253.422759 
L 319.384741 253.740315 
L 319.644428 254.068202 
L 321.98165 256.143741 
L 322.595479 256.199227 
L 322.902382 256.093696 
L 323.657853 255.275608 
L 324.224447 253.959118 
L 324.767441 252.277924 
L 325.499295 248.809741 
L 326.018672 245.382685 
L 327.29352 233.514981 
L 327.71847 228.233077 
L 328.639202 214.431091 
L 329.4891 198.566854 
L 330.220954 182.493479 
L 331.259708 156.589795 
L 331.613849 147.279406 
L 334.234355 77.125156 
L 335.674463 45.035375 
L 336.075818 39.602184 
L 336.524361 32.289411 
L 336.595195 31.867216 
L 337.043741 28.207628 
L 337.279832 25.21397 
L 337.374262 24.977783 
L 337.421475 25.046046 
L 337.751996 25.827913 
L 337.82283 25.658742 
L 337.940877 24.806316 
L 338.129733 23.705909 
L 338.176946 23.71924 
L 338.318589 24.594695 
L 338.790775 28.284546 
L 338.885204 28.207344 
L 338.9088 28.184621 
L 338.956013 28.263281 
L 339.074061 28.902714 
L 339.215725 30.693299 
L 339.782315 38.414979 
L 339.947576 40.018863 
L 340.2781 46.484236 
L 341.26964 66.857783 
L 341.647374 75.303296 
L 341.93066 82.18658 
L 343.040248 111.402897 
L 343.70129 128.652462 
L 344.456761 148.409082 
L 345.046972 162.963478 
L 345.920465 183.183028 
L 348.352115 226.465746 
L 348.635422 229.884636 
L 349.272846 237.721523 
L 351.161501 253.36909 
L 351.397596 254.698745 
L 351.869759 257.421006 
L 352.03502 258.020463 
L 352.412754 259.73183 
L 352.790491 261.228253 
L 353.239034 262.565261 
L 353.640389 263.878574 
L 354.159766 265.044035 
L 354.466669 265.871111 
L 355.458234 267.599942 
L 355.953994 268.302866 
L 356.378941 268.974342 
L 356.780296 269.425489 
L 357.228842 270.157413 
L 360.982553 274.552155 
L 361.501955 275.152644 
L 362.044928 275.673693 
L 364.854314 277.992929 
L 365.869476 278.659762 
L 366.41247 279.020128 
L 366.861038 279.200604 
L 367.356797 279.448816 
L 367.710939 279.622616 
L 367.970626 279.799055 
L 370.048158 280.591162 
L 370.402278 280.726796 
L 371.063295 280.934956 
L 371.653506 281.142062 
L 371.913196 281.197773 
L 372.361764 281.331026 
L 372.739498 281.410707 
L 373.258878 281.537073 
L 373.683825 281.584135 
L 374.108776 281.608943 
L 374.415679 281.673578 
L 374.675366 281.710394 
L 375.194768 281.780636 
L 379.184551 281.49758 
L 379.538692 281.438546 
L 380.577447 281.261817 
L 381.167657 281.099375 
L 387.541899 279.670506 
L 387.919636 279.635823 
L 390.563759 279.360395 
L 391.012327 279.311489 
L 391.390039 279.302996 
L 392.664887 279.218891 
L 392.948195 279.200846 
L 393.278719 279.200862 
L 394.482733 279.306941 
L 394.789636 279.282999 
L 395.096561 279.301759 
L 395.332631 279.340844 
L 396.536673 279.442156 
L 396.79636 279.43685 
L 397.410167 279.535985 
L 400.668121 279.711531 
L 402.202656 279.60178 
L 403.07615 279.313483 
L 403.312244 279.220681 
L 406.570177 277.427419 
L 406.900698 277.255608 
L 407.302052 277.247739 
L 409.143491 277.493957 
L 409.568441 277.612781 
L 411.740404 277.724871 
L 412.141734 277.686898 
L 412.472254 277.629305 
L 412.755562 277.594601 
L 413.133299 277.574013 
L 413.959579 277.45678 
L 414.549787 277.447663 
L 415.305258 277.44382 
L 416.013516 277.547502 
L 416.768963 277.722855 
L 421.726716 279.34895 
L 422.128046 279.407919 
L 423.851465 279.707602 
L 429.706329 280.794936 
L 430.202089 280.850013 
L 430.53261 280.937794 
L 430.815917 280.986598 
L 431.571364 281.044648 
L 431.571364 281.044648 
" style="fill:none;stroke:#1f77b4;stroke-linecap:square;stroke-width:1.5;"/>
   </g>
   <g id="patch_3">
    <path d="M 44.57 294.73 
L 44.57 10.8 
" style="fill:none;stroke:#000000;stroke-linecap:square;stroke-linejoin:miter;stroke-width:0.8;"/>
   </g>
   <g id="patch_4">
    <path d="M 450 294.73 
L 450 10.8 
" style="fill:none;stroke:#000000;stroke-linecap:square;stroke-linejoin:miter;stroke-width:0.8;"/>
   </g>
   <g id="patch_5">
    <path d="M 44.57 294.73 
L 450 294.73 
" style="fill:none;stroke:#000000;stroke-linecap:square;stroke-linejoin:miter;stroke-width:0.8;"/>
   </g>
   <g id="patch_6">
    <path d="M 44.57 10.8 
L 450 10.8 
" style="fill:none;stroke:#000000;stroke-linecap:square;stroke-linejoin:miter;stroke-width:0.8;"/>
   </g>
  </g>
 </g>
 <defs>
  <clipPath id="p71b44fa94d">
   <rect height="283.93" width="405.43" x="44.57" y="10.8"/>
  </clipPath>
 </defs>
</svg>
